<?xml version="1.0" encoding="UTF-8" standalone="no"?>
<svg
   xmlns:dc="http://purl.org/dc/elements/1.1/"
   xmlns:cc="http://creativecommons.org/ns#"
   xmlns:rdf="http://www.w3.org/1999/02/22-rdf-syntax-ns#"
   xmlns:svg="http://www.w3.org/2000/svg"
   xmlns="http://www.w3.org/2000/svg"
   xmlns:sodipodi="http://sodipodi.sourceforge.net/DTD/sodipodi-0.dtd"
   xmlns:inkscape="http://www.inkscape.org/namespaces/inkscape"
   inkscape:version="1.0 (4035a4fb49, 2020-05-01)"
   sodipodi:docname="2079340.svg"
   viewBox="0 0 666.66669 666.66669"
   height="666.66669"
   width="666.66669"
   xml:space="preserve"
   id="svg14657"
   version="1.1"><metadata
     id="metadata14663"><rdf:RDF><cc:Work
         rdf:about=""><dc:format>image/svg+xml</dc:format><dc:type
           rdf:resource="http://purl.org/dc/dcmitype/StillImage" /><dc:title></dc:title></cc:Work></rdf:RDF></metadata><defs
     id="defs14661"><clipPath
       id="clipPath14673"
       clipPathUnits="userSpaceOnUse"><path
         id="path14671"
         d="M 0,0 H 500 V 500 H 0 Z" /></clipPath><linearGradient
       id="linearGradient14685"
       spreadMethod="pad"
       gradientTransform="matrix(296.98514,-371.98138,-371.98138,-296.98514,129.32368,401.15012)"
       gradientUnits="userSpaceOnUse"
       y2="0"
       x2="1"
       y1="0"
       x1="0"><stop
         id="stop14679"
         offset="0"
         style="stop-opacity:1;stop-color:#311445" /><stop
         id="stop14681"
         offset="0.16934553"
         style="stop-opacity:1;stop-color:#311445" /><stop
         id="stop14683"
         offset="1"
         style="stop-opacity:1;stop-color:#f8005c" /></linearGradient><clipPath
       id="clipPath14695"
       clipPathUnits="userSpaceOnUse"><path
         id="path14693"
         d="M 0,500 V 133.121 C 27.657,161.005 62.189,193.417 127.53,203 v 0 c 110.794,16.25 48.29,133.416 122.709,145.068 v 0 C 383.932,369 341.265,500 341.265,500 v 0 z" /></clipPath><linearGradient
       id="linearGradient14711"
       spreadMethod="pad"
       gradientTransform="matrix(192,-268,-268,-192,41.347847,396.72025)"
       gradientUnits="userSpaceOnUse"
       y2="0"
       x2="1"
       y1="0"
       x1="0"><stop
         id="stop14701"
         offset="0"
         style="stop-opacity:1;stop-color:#311445" /><stop
         id="stop14703"
         offset="0.11259191"
         style="stop-opacity:1;stop-color:#311445" /><stop
         id="stop14705"
         offset="0.664865"
         style="stop-opacity:1;stop-color:#f8005c" /><stop
         id="stop14707"
         offset="0.78810516"
         style="stop-opacity:1;stop-color:#f8005c" /><stop
         id="stop14709"
         offset="1"
         style="stop-opacity:1;stop-color:#ff7063" /></linearGradient><clipPath
       id="clipPath14721"
       clipPathUnits="userSpaceOnUse"><path
         id="path14719"
         d="M 0,500 V 172.868 c 38.452,14.227 72.23,41.18 98.034,74.799 v 0 C 157.135,324.667 99.53,384 219.933,377 v 0 c 92.376,-5.37 94.151,85 78.108,123 v 0 z" /></clipPath><linearGradient
       id="linearGradient14737"
       spreadMethod="pad"
       gradientTransform="matrix(190.29782,-235.60683,-235.60683,-190.29782,7.1460609,435.28989)"
       gradientUnits="userSpaceOnUse"
       y2="0"
       x2="1"
       y1="0"
       x1="0"><stop
         id="stop14727"
         offset="0"
         style="stop-opacity:1;stop-color:#311445" /><stop
         id="stop14729"
         offset="0.11259191"
         style="stop-opacity:1;stop-color:#311445" /><stop
         id="stop14731"
         offset="0.664865"
         style="stop-opacity:1;stop-color:#f8005c" /><stop
         id="stop14733"
         offset="0.78810516"
         style="stop-opacity:1;stop-color:#f8005c" /><stop
         id="stop14735"
         offset="1"
         style="stop-opacity:1;stop-color:#ff7063" /></linearGradient><clipPath
       id="clipPath14747"
       clipPathUnits="userSpaceOnUse"><path
         id="path14745"
         d="M 0,500 V 233.253 C 72.457,222.198 107.454,318.766 82.53,365 v 0 c -25.877,48 13.999,89 92,50 v 0 c 77.159,-38.579 96.506,53 68.474,85 v 0 z" /></clipPath><linearGradient
       id="linearGradient14759"
       spreadMethod="pad"
       gradientTransform="matrix(115,-173,-173,-115,-16.951364,476.06152)"
       gradientUnits="userSpaceOnUse"
       y2="0"
       x2="1"
       y1="0"
       x1="0"><stop
         id="stop14753"
         offset="0"
         style="stop-opacity:1;stop-color:#311445" /><stop
         id="stop14755"
         offset="0.16934553"
         style="stop-opacity:1;stop-color:#311445" /><stop
         id="stop14757"
         offset="1"
         style="stop-opacity:1;stop-color:#f8005c" /></linearGradient><clipPath
       id="clipPath14769"
       clipPathUnits="userSpaceOnUse"><path
         id="path14767"
         d="M 0,500 V 302.738 C 21.294,317.646 36.895,342.707 37.53,384 v 0 c 2,129.984 137,38 147.982,116 v 0 z" /></clipPath><linearGradient
       id="linearGradient14785"
       spreadMethod="pad"
       gradientTransform="matrix(201.23828,-271.97659,-271.97659,-201.23828,-74.239395,535.08545)"
       gradientUnits="userSpaceOnUse"
       y2="0"
       x2="1"
       y1="0"
       x1="0"><stop
         id="stop14775"
         offset="0"
         style="stop-opacity:1;stop-color:#311445" /><stop
         id="stop14777"
         offset="0.11259191"
         style="stop-opacity:1;stop-color:#311445" /><stop
         id="stop14779"
         offset="0.664865"
         style="stop-opacity:1;stop-color:#f8005c" /><stop
         id="stop14781"
         offset="0.78810516"
         style="stop-opacity:1;stop-color:#f8005c" /><stop
         id="stop14783"
         offset="1"
         style="stop-opacity:1;stop-color:#ff7063" /></linearGradient><clipPath
       id="clipPath14795"
       clipPathUnits="userSpaceOnUse"><path
         id="path14793"
         d="m 388.53,500 c 0,0 -60.999,-51 11.001,-127 v 0 c 72,-76 60.999,-185 -25.001,-203 v 0 c -31.19,-6.529 -66.195,3.744 -101.101,14.018 v 0 C 212.086,202.07 151.043,220.122 111.53,147 v 0 C 89.438,106.118 46.908,75.242 0,65.486 v 0 V 0 h 500 v 500 z" /></clipPath><linearGradient
       id="linearGradient14811"
       spreadMethod="pad"
       gradientTransform="matrix(-393.17151,373.51294,373.51294,393.17151,514.64124,-1.4091984)"
       gradientUnits="userSpaceOnUse"
       y2="0"
       x2="1"
       y1="0"
       x1="0"><stop
         id="stop14801"
         offset="0"
         style="stop-opacity:1;stop-color:#311445" /><stop
         id="stop14803"
         offset="0.11259191"
         style="stop-opacity:1;stop-color:#311445" /><stop
         id="stop14805"
         offset="0.664865"
         style="stop-opacity:1;stop-color:#f8005c" /><stop
         id="stop14807"
         offset="0.78810516"
         style="stop-opacity:1;stop-color:#f8005c" /><stop
         id="stop14809"
         offset="1"
         style="stop-opacity:1;stop-color:#ff7063" /></linearGradient><clipPath
       id="clipPath14821"
       clipPathUnits="userSpaceOnUse"><path
         id="path14819"
         d="M 475,218 C 470.11,101.827 395.5,93.911 253.783,128.911 v 0 C 106.758,165.223 57.53,0 57.53,0 V 0 H 500 V 311.024 C 486.451,291.242 476.838,261.644 475,218" /></clipPath><linearGradient
       id="linearGradient14837"
       spreadMethod="pad"
       gradientTransform="matrix(-299,275,275,299,567.95538,-39.497498)"
       gradientUnits="userSpaceOnUse"
       y2="0"
       x2="1"
       y1="0"
       x1="0"><stop
         id="stop14827"
         offset="0"
         style="stop-opacity:1;stop-color:#311445" /><stop
         id="stop14829"
         offset="0.11259191"
         style="stop-opacity:1;stop-color:#311445" /><stop
         id="stop14831"
         offset="0.664865"
         style="stop-opacity:1;stop-color:#f8005c" /><stop
         id="stop14833"
         offset="0.78810516"
         style="stop-opacity:1;stop-color:#f8005c" /><stop
         id="stop14835"
         offset="1"
         style="stop-opacity:1;stop-color:#ff7063" /></linearGradient><clipPath
       id="clipPath14847"
       clipPathUnits="userSpaceOnUse"><path
         id="path14845"
         d="M 446.53,99 C 424.242,46.144 371.603,59.946 317.229,73.749 v 0 C 286.219,81.621 254.644,89.492 227.813,85 v 0 C 148.197,71.667 142.863,0 142.863,0 V 0 H 500 V 145.381 C 479.948,139.876 459.594,129.978 446.53,99" /></clipPath><linearGradient
       id="linearGradient14863"
       spreadMethod="pad"
       gradientTransform="matrix(-241.99998,277.99997,277.99997,241.99998,578.23425,-81.207108)"
       gradientUnits="userSpaceOnUse"
       y2="0"
       x2="1"
       y1="0"
       x1="0"><stop
         id="stop14853"
         offset="0"
         style="stop-opacity:1;stop-color:#311445" /><stop
         id="stop14855"
         offset="0.11259191"
         style="stop-opacity:1;stop-color:#311445" /><stop
         id="stop14857"
         offset="0.664865"
         style="stop-opacity:1;stop-color:#f8005c" /><stop
         id="stop14859"
         offset="0.78810516"
         style="stop-opacity:1;stop-color:#f8005c" /><stop
         id="stop14861"
         offset="1"
         style="stop-opacity:1;stop-color:#ff7063" /></linearGradient><clipPath
       id="clipPath14873"
       clipPathUnits="userSpaceOnUse"><path
         id="path14871"
         d="m 409.531,500 c 0,0 -43.001,-64 35,-93 v 0 c 19.019,-7.072 37.683,-8.197 55.469,-7.219 v 0 V 500 Z" /></clipPath><linearGradient
       id="linearGradient14889"
       spreadMethod="pad"
       gradientTransform="matrix(-182.90599,-264.10257,-264.10257,182.90599,604.7204,553.77911)"
       gradientUnits="userSpaceOnUse"
       y2="0"
       x2="1"
       y1="0"
       x1="0"><stop
         id="stop14879"
         offset="0"
         style="stop-opacity:1;stop-color:#311445" /><stop
         id="stop14881"
         offset="0.11259191"
         style="stop-opacity:1;stop-color:#311445" /><stop
         id="stop14883"
         offset="0.664865"
         style="stop-opacity:1;stop-color:#f8005c" /><stop
         id="stop14885"
         offset="0.78810516"
         style="stop-opacity:1;stop-color:#f8005c" /><stop
         id="stop14887"
         offset="1"
         style="stop-opacity:1;stop-color:#ff7063" /></linearGradient><clipPath
       id="clipPath14899"
       clipPathUnits="userSpaceOnUse"><path
         id="path14897"
         d="M 0,0 H 500 V 500 H 0 Z" /></clipPath><clipPath
       id="clipPath14907"
       clipPathUnits="userSpaceOnUse"><path
         id="path14905"
         d="M -125,500 H 625 V 0 h -750 z" /></clipPath><clipPath
       id="clipPath14911"
       clipPathUnits="userSpaceOnUse"><path
         id="path14909"
         d="M -125,500 H 287.019 V 193.076 H -125 Z" /></clipPath><clipPath
       id="clipPath14915"
       clipPathUnits="userSpaceOnUse"><path
         id="path14913"
         d="M -41.47,226.357 H 625 V 0 H -41.47 Z" /></clipPath><clipPath
       id="clipPath14919"
       clipPathUnits="userSpaceOnUse"><path
         id="path14917"
         d="M 383.932,500 H 625 V 374.388 H 383.932 Z" /></clipPath><clipPath
       id="clipPath15385"
       clipPathUnits="userSpaceOnUse"><path
         id="path15383"
         d="M 0,500 H 500 V 0 H 0 Z" /></clipPath></defs><sodipodi:namedview
     inkscape:current-layer="g14665"
     inkscape:window-maximized="1"
     inkscape:window-y="-11"
     inkscape:window-x="-11"
     inkscape:cy="393.65316"
     inkscape:cx="411.30108"
     inkscape:zoom="12.096"
     showgrid="false"
     id="namedview14659"
     inkscape:window-height="1346"
     inkscape:window-width="2560"
     inkscape:pageshadow="2"
     inkscape:pageopacity="0"
     guidetolerance="10"
     gridtolerance="10"
     objecttolerance="10"
     borderopacity="1"
     bordercolor="#666666"
     pagecolor="#ffffff" /><g
     transform="matrix(1.3333333,0,0,-1.3333333,0,666.66667)"
     inkscape:label="2079340"
     inkscape:groupmode="layer"
     id="g14665"><g
       id="g14677"><path
         d="M 0,0 H 500 V 500 H 0 Z"
         style="fill:url(#linearGradient14685);stroke:none"
         id="path14687" /></g><g
       id="g14689"><g
         clip-path="url(#clipPath14695)"
         id="g14691"><g
           id="g14697"><g
             id="g14699"><path
               id="path14713"
               style="fill:url(#linearGradient14711);stroke:none"
               d="M 0,500 V 133.121 C 27.657,161.005 62.189,193.417 127.53,203 v 0 c 110.794,16.25 48.29,133.416 122.709,145.068 v 0 C 383.932,369 341.265,500 341.265,500 v 0 z" /></g></g></g></g><g
       id="g14715"><g
         clip-path="url(#clipPath14721)"
         id="g14717"><g
           id="g14723"><g
             id="g14725"><path
               id="path14739"
               style="fill:url(#linearGradient14737);stroke:none"
               d="M 0,500 V 172.868 c 38.452,14.227 72.23,41.18 98.034,74.799 v 0 C 157.135,324.667 99.53,384 219.933,377 v 0 c 92.376,-5.37 94.151,85 78.108,123 v 0 z" /></g></g></g></g><g
       id="g14741"><g
         clip-path="url(#clipPath14747)"
         id="g14743"><g
           id="g14749"><g
             id="g14751"><path
               id="path14761"
               style="fill:url(#linearGradient14759);stroke:none"
               d="M 0,500 V 233.253 C 72.457,222.198 107.454,318.766 82.53,365 v 0 c -25.877,48 13.999,89 92,50 v 0 c 77.159,-38.579 96.506,53 68.474,85 v 0 z" /></g></g></g></g><g
       id="g14763"><g
         clip-path="url(#clipPath14769)"
         id="g14765"><g
           id="g14771"><g
             id="g14773"><path
               id="path14787"
               style="fill:url(#linearGradient14785);stroke:none"
               d="M 0,500 V 302.738 C 21.294,317.646 36.895,342.707 37.53,384 v 0 c 2,129.984 137,38 147.982,116 v 0 z" /></g></g></g></g><g
       id="g14789"><g
         clip-path="url(#clipPath14795)"
         id="g14791"><g
           id="g14797"><g
             id="g14799"><path
               id="path14813"
               style="fill:url(#linearGradient14811);stroke:none"
               d="m 388.53,500 c 0,0 -60.999,-51 11.001,-127 v 0 c 72,-76 60.999,-185 -25.001,-203 v 0 c -31.19,-6.529 -66.195,3.744 -101.101,14.018 v 0 C 212.086,202.07 151.043,220.122 111.53,147 v 0 C 89.438,106.118 46.908,75.242 0,65.486 v 0 V 0 h 500 v 500 z" /></g></g></g></g><g
       id="g14815"><g
         clip-path="url(#clipPath14821)"
         id="g14817"><g
           id="g14823"><g
             id="g14825"><path
               id="path14839"
               style="fill:url(#linearGradient14837);stroke:none"
               d="M 475,218 C 470.11,101.827 395.5,93.911 253.783,128.911 v 0 C 106.758,165.223 57.53,0 57.53,0 V 0 H 500 V 311.024 C 486.451,291.242 476.838,261.644 475,218" /></g></g></g></g><g
       id="g14841"><g
         clip-path="url(#clipPath14847)"
         id="g14843"><g
           id="g14849"><g
             id="g14851"><path
               id="path14865"
               style="fill:url(#linearGradient14863);stroke:none"
               d="M 446.53,99 C 424.242,46.144 371.603,59.946 317.229,73.749 v 0 C 286.219,81.621 254.644,89.492 227.813,85 v 0 C 148.197,71.667 142.863,0 142.863,0 V 0 H 500 V 145.381 C 479.948,139.876 459.594,129.978 446.53,99" /></g></g></g></g><g
       id="g14867"><g
         clip-path="url(#clipPath14873)"
         id="g14869"><g
           id="g14875"><g
             id="g14877"><path
               id="path14891"
               style="fill:url(#linearGradient14889);stroke:none"
               d="m 409.531,500 c 0,0 -43.001,-64 35,-93 v 0 c 19.019,-7.072 37.683,-8.197 55.469,-7.219 v 0 V 500 Z" /></g></g></g></g></g></svg>
