<?xml version="1.0" encoding="UTF-8" standalone="no"?>
<svg
   xmlns:dc="http://purl.org/dc/elements/1.1/"
   xmlns:cc="http://creativecommons.org/ns#"
   xmlns:rdf="http://www.w3.org/1999/02/22-rdf-syntax-ns#"
   xmlns:svg="http://www.w3.org/2000/svg"
   xmlns="http://www.w3.org/2000/svg"
   xmlns:sodipodi="http://sodipodi.sourceforge.net/DTD/sodipodi-0.dtd"
   xmlns:inkscape="http://www.inkscape.org/namespaces/inkscape"
   inkscape:version="1.0 (4035a4fb49, 2020-05-01)"
   sodipodi:docname="3610524.svg"
   viewBox="0 0 1000 666.66669"
   height="666.66669"
   width="1000"
   xml:space="preserve"
   id="svg5107"
   version="1.1"><metadata
     id="metadata5113"><rdf:RDF><cc:Work
         rdf:about=""><dc:format>image/svg+xml</dc:format><dc:type
           rdf:resource="http://purl.org/dc/dcmitype/StillImage" /><dc:title></dc:title></cc:Work></rdf:RDF></metadata><defs
     id="defs5111"><clipPath
       id="clipPath5123"
       clipPathUnits="userSpaceOnUse"><path
         id="path5121"
         d="M 0,0 H 750 V 500 H 0 Z" /></clipPath><linearGradient
       id="linearGradient5135"
       spreadMethod="pad"
       gradientTransform="matrix(390.71857,-676.74438,-676.74438,-390.71857,148.97299,641.49023)"
       gradientUnits="userSpaceOnUse"
       y2="0"
       x2="1"
       y1="0"
       x1="0"><stop
         id="stop5129"
         offset="0"
         style="stop-opacity:1;stop-color:#1c1ce6" /><stop
         id="stop5131"
         offset="0.28403689"
         style="stop-opacity:1;stop-color:#1c1ce6" /><stop
         id="stop5133"
         offset="1"
         style="stop-opacity:1;stop-color:#00ddff" /></linearGradient><clipPath
       id="clipPath5145"
       clipPathUnits="userSpaceOnUse"><path
         id="path5143"
         d="M 415.182,0 H 750 V 352.401 C 517,311 419,112 415.182,0" /></clipPath><linearGradient
       id="linearGradient5157"
       spreadMethod="pad"
       gradientTransform="matrix(-435.40091,333.12524,333.12524,435.40091,905.66278,-70.981552)"
       gradientUnits="userSpaceOnUse"
       y2="0"
       x2="1"
       y1="0"
       x1="0"><stop
         id="stop5151"
         offset="0"
         style="stop-opacity:1;stop-color:#2a2af9" /><stop
         id="stop5153"
         offset="0.28403689"
         style="stop-opacity:1;stop-color:#2a2af9" /><stop
         id="stop5155"
         offset="1"
         style="stop-opacity:1;stop-color:#00eaff" /></linearGradient><clipPath
       id="clipPath5167"
       clipPathUnits="userSpaceOnUse"><path
         id="path5165"
         d="M 485.483,0 H 750 V 278.408 C 565.923,245.7 488.499,88.484 485.483,0" /></clipPath><linearGradient
       id="linearGradient5179"
       spreadMethod="pad"
       gradientTransform="matrix(-343.98035,263.17938,263.17938,343.98035,872.97845,-56.077648)"
       gradientUnits="userSpaceOnUse"
       y2="0"
       x2="1"
       y1="0"
       x1="0"><stop
         id="stop5173"
         offset="0"
         style="stop-opacity:1;stop-color:#2a2af9" /><stop
         id="stop5175"
         offset="0.28403689"
         style="stop-opacity:1;stop-color:#2a2af9" /><stop
         id="stop5177"
         offset="1"
         style="stop-opacity:1;stop-color:#00eaff" /></linearGradient><clipPath
       id="clipPath5189"
       clipPathUnits="userSpaceOnUse"><path
         id="path5187"
         d="M 0,500 V 120.331 C 140,124 369,224 383.544,500 v 0 z" /></clipPath><linearGradient
       id="linearGradient5201"
       spreadMethod="pad"
       gradientTransform="matrix(152.29932,-597.01508,-597.01508,-152.29932,100.60633,667.53558)"
       gradientUnits="userSpaceOnUse"
       y2="0"
       x2="1"
       y1="0"
       x1="0"><stop
         id="stop5195"
         offset="0"
         style="stop-opacity:1;stop-color:#2a2af9" /><stop
         id="stop5197"
         offset="0.28403689"
         style="stop-opacity:1;stop-color:#2a2af9" /><stop
         id="stop5199"
         offset="1"
         style="stop-opacity:1;stop-color:#00eaff" /></linearGradient><clipPath
       id="clipPath5211"
       clipPathUnits="userSpaceOnUse"><path
         id="path5209"
         d="M 0,500 V 282.223 C 80.303,284.327 211.658,341.687 220,500 v 0 z" /></clipPath><linearGradient
       id="linearGradient5223"
       spreadMethod="pad"
       gradientTransform="matrix(87.358604,-342.44675,-342.44675,-87.358604,57.707603,596.09808)"
       gradientUnits="userSpaceOnUse"
       y2="0"
       x2="1"
       y1="0"
       x1="0"><stop
         id="stop5217"
         offset="0"
         style="stop-opacity:1;stop-color:#2a2af9" /><stop
         id="stop5219"
         offset="0.28403689"
         style="stop-opacity:1;stop-color:#2a2af9" /><stop
         id="stop5221"
         offset="1"
         style="stop-opacity:1;stop-color:#00eaff" /></linearGradient><clipPath
       id="clipPath5233"
       clipPathUnits="userSpaceOnUse"><path
         id="path5231"
         d="M 0,0 H 750 V 500 H 0 Z" /></clipPath><clipPath
       id="clipPath5241"
       clipPathUnits="userSpaceOnUse"><path
         id="path5239"
         d="M -0.013092,500.026 H 89.4993 V 411.399 H -0.013092 Z" /></clipPath><clipPath
       id="clipPath5257"
       clipPathUnits="userSpaceOnUse"><path
         id="path5255"
         d="M -0.013092,500.026 H 365.833 V 137.858 H -0.013092 Z" /></clipPath><clipPath
       id="clipPath5273"
       clipPathUnits="userSpaceOnUse"><path
         id="path5271"
         d="m 538.82,404.546 c 0,-28.966 23.482,-52.448 52.448,-52.448 v 0 c 28.966,0 52.448,23.482 52.448,52.448 v 0 c 0,28.966 -23.482,52.448 -52.448,52.448 v 0 c -28.966,0 -52.448,-23.482 -52.448,-52.448 m 27.801,0 c 0,13.612 11.035,24.646 24.647,24.646 v 0 c 13.612,0 24.647,-11.034 24.647,-24.646 v 0 c 0,-13.612 -11.035,-24.647 -24.647,-24.647 v 0 c -13.612,0 -24.647,11.035 -24.647,24.647" /></clipPath><linearGradient
       id="linearGradient5285"
       spreadMethod="pad"
       gradientTransform="matrix(113.99464,-106.49493,-106.49493,-113.99464,518.91364,472.13992)"
       gradientUnits="userSpaceOnUse"
       y2="0"
       x2="1"
       y1="0"
       x1="0"><stop
         id="stop5279"
         offset="0"
         style="stop-opacity:1;stop-color:#2a2af9" /><stop
         id="stop5281"
         offset="0.28403689"
         style="stop-opacity:1;stop-color:#2a2af9" /><stop
         id="stop5283"
         offset="1"
         style="stop-opacity:1;stop-color:#00eaff" /></linearGradient><clipPath
       id="clipPath5295"
       clipPathUnits="userSpaceOnUse"><path
         id="path5293"
         d="M 0,0 H 750 V 500 H 0 Z" /></clipPath><clipPath
       id="clipPath5303"
       clipPathUnits="userSpaceOnUse"><path
         id="path5301"
         d="m 243.053,102.76 h 60.43 V 42.3311 h -60.43 z" /></clipPath><clipPath
       id="clipPath5319"
       clipPathUnits="userSpaceOnUse"><path
         id="path5317"
         d="m 450.22,446.546 c 0,-12.729 10.319,-23.048 23.048,-23.048 v 0 c 12.729,0 23.048,10.319 23.048,23.048 v 0 c 0,12.729 -10.319,23.048 -23.048,23.048 v 0 c -12.729,0 -23.048,-10.319 -23.048,-23.048" /></clipPath><linearGradient
       id="linearGradient5331"
       spreadMethod="pad"
       gradientTransform="matrix(50.09433,-46.798626,-46.798626,-50.09433,441.47229,476.24963)"
       gradientUnits="userSpaceOnUse"
       y2="0"
       x2="1"
       y1="0"
       x1="0"><stop
         id="stop5325"
         offset="0"
         style="stop-opacity:1;stop-color:#2a2af9" /><stop
         id="stop5327"
         offset="0.28403689"
         style="stop-opacity:1;stop-color:#2a2af9" /><stop
         id="stop5329"
         offset="1"
         style="stop-opacity:1;stop-color:#00eaff" /></linearGradient><clipPath
       id="clipPath5341"
       clipPathUnits="userSpaceOnUse"><path
         id="path5339"
         d="m 250.22,72.546 c 0,-12.729 10.319,-23.049 23.048,-23.049 v 0 c 12.729,0 23.048,10.32 23.048,23.049 v 0 c 0,12.729 -10.319,23.048 -23.048,23.048 v 0 c -12.729,0 -23.048,-10.319 -23.048,-23.048" /></clipPath><clipPath
       id="clipPath5349"
       clipPathUnits="userSpaceOnUse"><path
         id="path5347"
         d="M -32768,32767 H 32767 V -32768 H -32768 Z" /></clipPath><linearGradient
       id="linearGradient5357"
       spreadMethod="pad"
       gradientTransform="matrix(50.094322,-46.798618,-46.798618,-50.094322,241.47227,102.24962)"
       gradientUnits="userSpaceOnUse"
       y2="0"
       x2="1"
       y1="0"
       x1="0"><stop
         id="stop5351"
         offset="0"
         style="stop-opacity:0;stop-color:#ffffff" /><stop
         id="stop5353"
         offset="0.998167"
         style="stop-opacity:0.4;stop-color:#ffffff" /><stop
         id="stop5355"
         offset="1"
         style="stop-opacity:0.4;stop-color:#ffffff" /></linearGradient><mask
       id="mask5359"
       height="1"
       width="1"
       y="0"
       x="0"
       maskUnits="userSpaceOnUse"><g
         id="g5369"><g
           id="g5367"
           clip-path="url(#clipPath5349)"><g
             id="g5365"><g
               id="g5363"><path
                 id="path5361"
                 style="fill:url(#linearGradient5357);stroke:none"
                 d="M -32768,32767 H 32767 V -32768 H -32768 Z" /></g></g></g></g></mask><linearGradient
       id="linearGradient5381"
       spreadMethod="pad"
       gradientTransform="matrix(50.094322,-46.798618,-46.798618,-50.094322,241.47227,102.24962)"
       gradientUnits="userSpaceOnUse"
       y2="0"
       x2="1"
       y1="0"
       x1="0"><stop
         id="stop5375"
         offset="0"
         style="stop-opacity:1;stop-color:#ffffff" /><stop
         id="stop5377"
         offset="0.998167"
         style="stop-opacity:1;stop-color:#ffffff" /><stop
         id="stop5379"
         offset="1"
         style="stop-opacity:1;stop-color:#ffffff" /></linearGradient><clipPath
       id="clipPath5391"
       clipPathUnits="userSpaceOnUse"><path
         id="path5389"
         d="m 125.941,218.023 c 0,-44.538 36.106,-80.643 80.644,-80.643 v 0 c 44.538,0 80.644,36.105 80.644,80.643 v 0 c 0,44.538 -36.106,80.644 -80.644,80.644 v 0 c -44.538,0 -80.644,-36.106 -80.644,-80.644 m 21.833,0 c 0,32.48 26.33,58.811 58.811,58.811 v 0 c 32.48,0 58.811,-26.331 58.811,-58.811 v 0 c 0,-32.481 -26.331,-58.811 -58.811,-58.811 v 0 c -32.481,0 -58.811,26.33 -58.811,58.811" /></clipPath><clipPath
       id="clipPath5399"
       clipPathUnits="userSpaceOnUse"><path
         id="path5397"
         d="M -32768,32767 H 32767 V -32768 H -32768 Z" /></clipPath><linearGradient
       id="linearGradient5407"
       spreadMethod="pad"
       gradientTransform="matrix(161.28741,0,0,-161.28741,125.94093,218.02299)"
       gradientUnits="userSpaceOnUse"
       y2="0"
       x2="1"
       y1="0"
       x1="0"><stop
         id="stop5401"
         offset="0"
         style="stop-opacity:0;stop-color:#ffffff" /><stop
         id="stop5403"
         offset="0.996334"
         style="stop-opacity:0.4;stop-color:#ffffff" /><stop
         id="stop5405"
         offset="1"
         style="stop-opacity:0.4;stop-color:#ffffff" /></linearGradient><mask
       id="mask5409"
       height="1"
       width="1"
       y="0"
       x="0"
       maskUnits="userSpaceOnUse"><g
         id="g5419"><g
           id="g5417"
           clip-path="url(#clipPath5399)"><g
             id="g5415"><g
               id="g5413"><path
                 id="path5411"
                 style="fill:url(#linearGradient5407);stroke:none"
                 d="M -32768,32767 H 32767 V -32768 H -32768 Z" /></g></g></g></g></mask><linearGradient
       id="linearGradient5431"
       spreadMethod="pad"
       gradientTransform="matrix(161.28741,0,0,-161.28741,125.94093,218.02299)"
       gradientUnits="userSpaceOnUse"
       y2="0"
       x2="1"
       y1="0"
       x1="0"><stop
         id="stop5425"
         offset="0"
         style="stop-opacity:1;stop-color:#ffffff" /><stop
         id="stop5427"
         offset="0.996334"
         style="stop-opacity:1;stop-color:#ffffff" /><stop
         id="stop5429"
         offset="1"
         style="stop-opacity:1;stop-color:#ffffff" /></linearGradient><clipPath
       id="clipPath5441"
       clipPathUnits="userSpaceOnUse"><path
         id="path5439"
         d="m 333.68,210.698 c 0,-80.207 65.021,-145.228 145.228,-145.228 v 0 c 80.208,0 145.228,65.021 145.228,145.228 v 0 c 0,80.207 -65.02,145.229 -145.228,145.229 v 0 c -80.207,0 -145.228,-65.022 -145.228,-145.229" /></clipPath><clipPath
       id="clipPath5449"
       clipPathUnits="userSpaceOnUse"><path
         id="path5447"
         d="M -32768,32767 H 32767 V -32768 H -32768 Z" /></clipPath><linearGradient
       id="linearGradient5455"
       spreadMethod="pad"
       gradientTransform="matrix(219.53528,-154.26793,-154.26793,-219.53528,374.15964,284.30524)"
       gradientUnits="userSpaceOnUse"
       y2="0"
       x2="1"
       y1="0"
       x1="0"><stop
         id="stop5451"
         offset="0"
         style="stop-opacity:0;stop-color:#ffffff" /><stop
         id="stop5453"
         offset="1"
         style="stop-opacity:0.2;stop-color:#ffffff" /></linearGradient><mask
       id="mask5457"
       height="1"
       width="1"
       y="0"
       x="0"
       maskUnits="userSpaceOnUse"><g
         id="g5467"><g
           id="g5465"
           clip-path="url(#clipPath5449)"><g
             id="g5463"><g
               id="g5461"><path
                 id="path5459"
                 style="fill:url(#linearGradient5455);stroke:none"
                 d="M -32768,32767 H 32767 V -32768 H -32768 Z" /></g></g></g></g></mask><linearGradient
       id="linearGradient5477"
       spreadMethod="pad"
       gradientTransform="matrix(219.53528,-154.26793,-154.26793,-219.53528,374.15964,284.30524)"
       gradientUnits="userSpaceOnUse"
       y2="0"
       x2="1"
       y1="0"
       x1="0"><stop
         id="stop5473"
         offset="0"
         style="stop-opacity:1;stop-color:#ffffff" /><stop
         id="stop5475"
         offset="1"
         style="stop-opacity:1;stop-color:#ffffff" /></linearGradient><clipPath
       id="clipPath5487"
       clipPathUnits="userSpaceOnUse"><path
         id="path5485"
         d="m 98.25,236.703 c 0,-19.887 16.121,-36.008 36.007,-36.008 v 0 c 19.887,0 36.008,16.121 36.008,36.008 v 0 c 0,19.886 -16.121,36.007 -36.008,36.007 v 0 c -19.886,0 -36.007,-16.121 -36.007,-36.007" /></clipPath><clipPath
       id="clipPath5495"
       clipPathUnits="userSpaceOnUse"><path
         id="path5493"
         d="M -32768,32767 H 32767 V -32768 H -32768 Z" /></clipPath><linearGradient
       id="linearGradient5503"
       spreadMethod="pad"
       gradientTransform="matrix(54.430897,-38.248714,-38.248714,-54.430897,108.28624,254.95247)"
       gradientUnits="userSpaceOnUse"
       y2="0"
       x2="1"
       y1="0"
       x1="0"><stop
         id="stop5497"
         offset="0"
         style="stop-opacity:0;stop-color:#ffffff" /><stop
         id="stop5499"
         offset="0.998167"
         style="stop-opacity:0.4;stop-color:#ffffff" /><stop
         id="stop5501"
         offset="1"
         style="stop-opacity:0.4;stop-color:#ffffff" /></linearGradient><mask
       id="mask5505"
       height="1"
       width="1"
       y="0"
       x="0"
       maskUnits="userSpaceOnUse"><g
         id="g5515"><g
           id="g5513"
           clip-path="url(#clipPath5495)"><g
             id="g5511"><g
               id="g5509"><path
                 id="path5507"
                 style="fill:url(#linearGradient5503);stroke:none"
                 d="M -32768,32767 H 32767 V -32768 H -32768 Z" /></g></g></g></g></mask><linearGradient
       id="linearGradient5527"
       spreadMethod="pad"
       gradientTransform="matrix(54.430897,-38.248714,-38.248714,-54.430897,108.28624,254.95247)"
       gradientUnits="userSpaceOnUse"
       y2="0"
       x2="1"
       y1="0"
       x1="0"><stop
         id="stop5521"
         offset="0"
         style="stop-opacity:1;stop-color:#ffffff" /><stop
         id="stop5523"
         offset="0.998167"
         style="stop-opacity:1;stop-color:#ffffff" /><stop
         id="stop5525"
         offset="1"
         style="stop-opacity:1;stop-color:#ffffff" /></linearGradient><clipPath
       id="clipPath5537"
       clipPathUnits="userSpaceOnUse"><path
         id="path5535"
         d="m 372.298,211.192 c 0,-58.886 47.738,-106.623 106.624,-106.623 v 0 c 58.887,0 106.625,47.737 106.625,106.623 v 0 c 0,58.887 -47.738,106.624 -106.625,106.624 v 0 c -58.886,0 -106.624,-47.737 -106.624,-106.624" /></clipPath><clipPath
       id="clipPath5545"
       clipPathUnits="userSpaceOnUse"><path
         id="path5543"
         d="M -32768,32767 H 32767 V -32768 H -32768 Z" /></clipPath><linearGradient
       id="linearGradient5553"
       spreadMethod="pad"
       gradientTransform="matrix(213.2478,0,0,-213.2478,372.29889,211.19257)"
       gradientUnits="userSpaceOnUse"
       y2="0"
       x2="1"
       y1="0"
       x1="0"><stop
         id="stop5547"
         offset="0"
         style="stop-opacity:0;stop-color:#ffffff" /><stop
         id="stop5549"
         offset="0.996334"
         style="stop-opacity:0.4;stop-color:#ffffff" /><stop
         id="stop5551"
         offset="1"
         style="stop-opacity:0.4;stop-color:#ffffff" /></linearGradient><mask
       id="mask5555"
       height="1"
       width="1"
       y="0"
       x="0"
       maskUnits="userSpaceOnUse"><g
         id="g5565"><g
           id="g5563"
           clip-path="url(#clipPath5545)"><g
             id="g5561"><g
               id="g5559"><path
                 id="path5557"
                 style="fill:url(#linearGradient5553);stroke:none"
                 d="M -32768,32767 H 32767 V -32768 H -32768 Z" /></g></g></g></g></mask><linearGradient
       id="linearGradient5577"
       spreadMethod="pad"
       gradientTransform="matrix(213.2478,0,0,-213.2478,372.29889,211.19257)"
       gradientUnits="userSpaceOnUse"
       y2="0"
       x2="1"
       y1="0"
       x1="0"><stop
         id="stop5571"
         offset="0"
         style="stop-opacity:1;stop-color:#ffffff" /><stop
         id="stop5573"
         offset="0.996334"
         style="stop-opacity:1;stop-color:#ffffff" /><stop
         id="stop5575"
         offset="1"
         style="stop-opacity:1;stop-color:#ffffff" /></linearGradient><clipPath
       id="clipPath5587"
       clipPathUnits="userSpaceOnUse"><path
         id="path5585"
         d="m 616.674,439.692 c 0,-19.19 15.557,-34.748 34.749,-34.748 v 0 c 19.191,0 34.749,15.558 34.749,34.748 v 0 c 0,19.192 -15.558,34.749 -34.749,34.749 v 0 c -19.192,0 -34.749,-15.557 -34.749,-34.749 m 17.629,0 c 0,9.456 7.665,17.12 17.12,17.12 v 0 c 9.455,0 17.119,-7.664 17.119,-17.12 v 0 c 0,-9.454 -7.664,-17.119 -17.119,-17.119 v 0 c -9.455,0 -17.12,7.665 -17.12,17.119" /></clipPath><clipPath
       id="clipPath5595"
       clipPathUnits="userSpaceOnUse"><path
         id="path5593"
         d="M -32768,32767 H 32767 V -32768 H -32768 Z" /></clipPath><linearGradient
       id="linearGradient5601"
       spreadMethod="pad"
       gradientTransform="matrix(52.528442,-36.911854,-36.911854,-52.528442,626.35944,457.30463)"
       gradientUnits="userSpaceOnUse"
       y2="0"
       x2="1"
       y1="0"
       x1="0"><stop
         id="stop5597"
         offset="0"
         style="stop-opacity:0;stop-color:#ffffff" /><stop
         id="stop5599"
         offset="1"
         style="stop-opacity:0.2;stop-color:#ffffff" /></linearGradient><mask
       id="mask5603"
       height="1"
       width="1"
       y="0"
       x="0"
       maskUnits="userSpaceOnUse"><g
         id="g5613"><g
           id="g5611"
           clip-path="url(#clipPath5595)"><g
             id="g5609"><g
               id="g5607"><path
                 id="path5605"
                 style="fill:url(#linearGradient5601);stroke:none"
                 d="M -32768,32767 H 32767 V -32768 H -32768 Z" /></g></g></g></g></mask><linearGradient
       id="linearGradient5623"
       spreadMethod="pad"
       gradientTransform="matrix(52.528442,-36.911854,-36.911854,-52.528442,626.35944,457.30463)"
       gradientUnits="userSpaceOnUse"
       y2="0"
       x2="1"
       y1="0"
       x1="0"><stop
         id="stop5619"
         offset="0"
         style="stop-opacity:1;stop-color:#ffffff" /><stop
         id="stop5621"
         offset="1"
         style="stop-opacity:1;stop-color:#ffffff" /></linearGradient><clipPath
       id="clipPath5633"
       clipPathUnits="userSpaceOnUse"><path
         id="path5631"
         d="m 22.008,52.359 c 0,-19.191 15.557,-34.749 34.749,-34.749 v 0 c 19.19,0 34.748,15.558 34.748,34.749 v 0 c 0,19.191 -15.558,34.749 -34.748,34.749 v 0 C 37.565,87.108 22.008,71.55 22.008,52.359 m 17.629,0 c 0,9.455 7.664,17.119 17.12,17.119 v 0 c 9.454,0 17.119,-7.664 17.119,-17.119 v 0 c 0,-9.455 -7.665,-17.119 -17.119,-17.119 v 0 c -9.456,0 -17.12,7.664 -17.12,17.119" /></clipPath><clipPath
       id="clipPath5641"
       clipPathUnits="userSpaceOnUse"><path
         id="path5639"
         d="M -32768,32767 H 32767 V -32768 H -32768 Z" /></clipPath><linearGradient
       id="linearGradient5647"
       spreadMethod="pad"
       gradientTransform="matrix(52.528442,-36.911854,-36.911854,-52.528442,31.692793,69.971298)"
       gradientUnits="userSpaceOnUse"
       y2="0"
       x2="1"
       y1="0"
       x1="0"><stop
         id="stop5643"
         offset="0"
         style="stop-opacity:0;stop-color:#ffffff" /><stop
         id="stop5645"
         offset="1"
         style="stop-opacity:0.2;stop-color:#ffffff" /></linearGradient><mask
       id="mask5649"
       height="1"
       width="1"
       y="0"
       x="0"
       maskUnits="userSpaceOnUse"><g
         id="g5659"><g
           id="g5657"
           clip-path="url(#clipPath5641)"><g
             id="g5655"><g
               id="g5653"><path
                 id="path5651"
                 style="fill:url(#linearGradient5647);stroke:none"
                 d="M -32768,32767 H 32767 V -32768 H -32768 Z" /></g></g></g></g></mask><linearGradient
       id="linearGradient5669"
       spreadMethod="pad"
       gradientTransform="matrix(52.528442,-36.911854,-36.911854,-52.528442,31.692793,69.971298)"
       gradientUnits="userSpaceOnUse"
       y2="0"
       x2="1"
       y1="0"
       x1="0"><stop
         id="stop5665"
         offset="0"
         style="stop-opacity:1;stop-color:#ffffff" /><stop
         id="stop5667"
         offset="1"
         style="stop-opacity:1;stop-color:#ffffff" /></linearGradient><clipPath
       id="clipPath5679"
       clipPathUnits="userSpaceOnUse"><path
         id="path5677"
         d="m 430.422,423.193 c 0,-13.256 10.745,-24.001 24.001,-24.001 v 0 c 13.255,0 24.001,10.745 24.001,24.001 v 0 c 0,13.255 -10.746,24 -24.001,24 v 0 c -13.256,0 -24.001,-10.745 -24.001,-24" /></clipPath><clipPath
       id="clipPath5687"
       clipPathUnits="userSpaceOnUse"><path
         id="path5685"
         d="M -32768,32767 H 32767 V -32768 H -32768 Z" /></clipPath><linearGradient
       id="linearGradient5693"
       spreadMethod="pad"
       gradientTransform="matrix(36.281029,-25.49476,-25.49476,-36.281029,437.11172,435.35709)"
       gradientUnits="userSpaceOnUse"
       y2="0"
       x2="1"
       y1="0"
       x1="0"><stop
         id="stop5689"
         offset="0"
         style="stop-opacity:0;stop-color:#ffffff" /><stop
         id="stop5691"
         offset="1"
         style="stop-opacity:0.4;stop-color:#ffffff" /></linearGradient><mask
       id="mask5695"
       height="1"
       width="1"
       y="0"
       x="0"
       maskUnits="userSpaceOnUse"><g
         id="g5705"><g
           id="g5703"
           clip-path="url(#clipPath5687)"><g
             id="g5701"><g
               id="g5699"><path
                 id="path5697"
                 style="fill:url(#linearGradient5693);stroke:none"
                 d="M -32768,32767 H 32767 V -32768 H -32768 Z" /></g></g></g></g></mask><linearGradient
       id="linearGradient5715"
       spreadMethod="pad"
       gradientTransform="matrix(36.281029,-25.49476,-25.49476,-36.281029,437.11172,435.35709)"
       gradientUnits="userSpaceOnUse"
       y2="0"
       x2="1"
       y1="0"
       x1="0"><stop
         id="stop5711"
         offset="0"
         style="stop-opacity:1;stop-color:#ffffff" /><stop
         id="stop5713"
         offset="1"
         style="stop-opacity:1;stop-color:#ffffff" /></linearGradient><clipPath
       id="clipPath5725"
       clipPathUnits="userSpaceOnUse"><path
         id="path5723"
         d="m 644.533,123.192 c 0,-23.41 18.978,-42.389 42.39,-42.389 v 0 c 23.411,0 42.389,18.979 42.389,42.389 v 0 c 0,23.412 -18.978,42.39 -42.389,42.39 v 0 c -23.412,0 -42.39,-18.978 -42.39,-42.39" /></clipPath><clipPath
       id="clipPath5733"
       clipPathUnits="userSpaceOnUse"><path
         id="path5731"
         d="M -32768,32767 H 32767 V -32768 H -32768 Z" /></clipPath><linearGradient
       id="linearGradient5739"
       spreadMethod="pad"
       gradientTransform="matrix(64.078438,-45.028065,-45.028065,-64.078438,656.34851,144.67715)"
       gradientUnits="userSpaceOnUse"
       y2="0"
       x2="1"
       y1="0"
       x1="0"><stop
         id="stop5735"
         offset="0"
         style="stop-opacity:0;stop-color:#ffffff" /><stop
         id="stop5737"
         offset="1"
         style="stop-opacity:0.2;stop-color:#ffffff" /></linearGradient><mask
       id="mask5741"
       height="1"
       width="1"
       y="0"
       x="0"
       maskUnits="userSpaceOnUse"><g
         id="g5751"><g
           id="g5749"
           clip-path="url(#clipPath5733)"><g
             id="g5747"><g
               id="g5745"><path
                 id="path5743"
                 style="fill:url(#linearGradient5739);stroke:none"
                 d="M -32768,32767 H 32767 V -32768 H -32768 Z" /></g></g></g></g></mask><linearGradient
       id="linearGradient5761"
       spreadMethod="pad"
       gradientTransform="matrix(64.078438,-45.028065,-45.028065,-64.078438,656.34851,144.67715)"
       gradientUnits="userSpaceOnUse"
       y2="0"
       x2="1"
       y1="0"
       x1="0"><stop
         id="stop5757"
         offset="0"
         style="stop-opacity:1;stop-color:#ffffff" /><stop
         id="stop5759"
         offset="1"
         style="stop-opacity:1;stop-color:#ffffff" /></linearGradient><clipPath
       id="clipPath5771"
       clipPathUnits="userSpaceOnUse"><path
         id="path5769"
         d="m 112.918,500 c -3.003,-9.85 -4.619,-20.308 -4.619,-31.141 v 0 c 0,-58.886 47.737,-106.623 106.624,-106.623 v 0 c 58.887,0 106.624,47.737 106.624,106.623 v 0 c 0,10.833 -1.617,21.291 -4.62,31.141 v 0 z" /></clipPath><clipPath
       id="clipPath5779"
       clipPathUnits="userSpaceOnUse"><path
         id="path5777"
         d="M -32768,32767 H 32767 V -32768 H -32768 Z" /></clipPath><linearGradient
       id="linearGradient5785"
       spreadMethod="pad"
       gradientTransform="matrix(161.17886,-113.26075,-113.26075,-161.17886,138.0181,522.90033)"
       gradientUnits="userSpaceOnUse"
       y2="0"
       x2="1"
       y1="0"
       x1="0"><stop
         id="stop5781"
         offset="0"
         style="stop-opacity:0;stop-color:#ffffff" /><stop
         id="stop5783"
         offset="1"
         style="stop-opacity:0.4;stop-color:#ffffff" /></linearGradient><mask
       id="mask5787"
       height="1"
       width="1"
       y="0"
       x="0"
       maskUnits="userSpaceOnUse"><g
         id="g5797"><g
           id="g5795"
           clip-path="url(#clipPath5779)"><g
             id="g5793"><g
               id="g5791"><path
                 id="path5789"
                 style="fill:url(#linearGradient5785);stroke:none"
                 d="M -32768,32767 H 32767 V -32768 H -32768 Z" /></g></g></g></g></mask><linearGradient
       id="linearGradient5807"
       spreadMethod="pad"
       gradientTransform="matrix(161.17886,-113.26075,-113.26075,-161.17886,138.0181,522.90033)"
       gradientUnits="userSpaceOnUse"
       y2="0"
       x2="1"
       y1="0"
       x1="0"><stop
         id="stop5803"
         offset="0"
         style="stop-opacity:1;stop-color:#ffffff" /><stop
         id="stop5805"
         offset="1"
         style="stop-opacity:1;stop-color:#ffffff" /></linearGradient><clipPath
       id="clipPath5817"
       clipPathUnits="userSpaceOnUse"><path
         id="path5815"
         d="m 164.172,500 c -5.57,-9.059 -8.784,-19.726 -8.784,-31.141 v 0 c 0,-32.88 26.654,-59.535 59.535,-59.535 v 0 c 32.88,0 59.535,26.655 59.535,59.535 v 0 c 0,11.415 -3.214,22.082 -8.785,31.141 v 0 z" /></clipPath><clipPath
       id="clipPath5825"
       clipPathUnits="userSpaceOnUse"><path
         id="path5823"
         d="M -32768,32767 H 32767 V -32768 H -32768 Z" /></clipPath><linearGradient
       id="linearGradient5831"
       spreadMethod="pad"
       gradientTransform="matrix(89.996468,-63.240719,-63.240719,-89.996468,171.98198,499.03381)"
       gradientUnits="userSpaceOnUse"
       y2="0"
       x2="1"
       y1="0"
       x1="0"><stop
         id="stop5827"
         offset="0"
         style="stop-opacity:0;stop-color:#ffffff" /><stop
         id="stop5829"
         offset="1"
         style="stop-opacity:0.4;stop-color:#ffffff" /></linearGradient><mask
       id="mask5833"
       height="1"
       width="1"
       y="0"
       x="0"
       maskUnits="userSpaceOnUse"><g
         id="g5843"><g
           id="g5841"
           clip-path="url(#clipPath5825)"><g
             id="g5839"><g
               id="g5837"><path
                 id="path5835"
                 style="fill:url(#linearGradient5831);stroke:none"
                 d="M -32768,32767 H 32767 V -32768 H -32768 Z" /></g></g></g></g></mask><linearGradient
       id="linearGradient5853"
       spreadMethod="pad"
       gradientTransform="matrix(89.996468,-63.240719,-63.240719,-89.996468,171.98198,499.03381)"
       gradientUnits="userSpaceOnUse"
       y2="0"
       x2="1"
       y1="0"
       x1="0"><stop
         id="stop5849"
         offset="0"
         style="stop-opacity:1;stop-color:#ffffff" /><stop
         id="stop5851"
         offset="1"
         style="stop-opacity:1;stop-color:#ffffff" /></linearGradient><clipPath
       id="clipPath5863"
       clipPathUnits="userSpaceOnUse"><path
         id="path5861"
         d="M 0,0 H 750 V 500 H 0 Z" /></clipPath><clipPath
       id="clipPath5871"
       clipPathUnits="userSpaceOnUse"><path
         id="path5869"
         d="M 128.644,555.138 H 301.201 V 382.581 H 128.644 Z" /></clipPath><clipPath
       id="clipPath5875"
       clipPathUnits="userSpaceOnUse"><path
         id="path5873"
         d="M 128.644,555.138 H 301.201 V 382.581 H 128.644 Z" /></clipPath><clipPath
       id="clipPath5899"
       clipPathUnits="userSpaceOnUse"><path
         id="path5897"
         d="M 353.969,336.147 H 603.877 V 86.2383 H 353.969 Z" /></clipPath><clipPath
       id="clipPath5903"
       clipPathUnits="userSpaceOnUse"><path
         id="path5901"
         d="M 353.969,336.147 H 603.877 V 86.2383 H 353.969 Z" /></clipPath><clipPath
       id="clipPath5927"
       clipPathUnits="userSpaceOnUse"><path
         id="path5925"
         d="m 405.782,211.192 c 0,-40.394 32.747,-73.14 73.14,-73.14 v 0 c 40.395,0 73.142,32.746 73.142,73.14 v 0 c 0,40.395 -32.747,73.141 -73.142,73.141 v 0 c -40.393,0 -73.14,-32.746 -73.14,-73.141" /></clipPath><clipPath
       id="clipPath5935"
       clipPathUnits="userSpaceOnUse"><path
         id="path5933"
         d="M -32768,32767 H 32767 V -32768 H -32768 Z" /></clipPath><linearGradient
       id="linearGradient5943"
       spreadMethod="pad"
       gradientTransform="matrix(248.77592,-200.08319,-200.08319,-248.77592,350.15762,314.75461)"
       gradientUnits="userSpaceOnUse"
       y2="0"
       x2="1"
       y1="0"
       x1="0"><stop
         id="stop5937"
         offset="0"
         style="stop-opacity:0;stop-color:#ffffff" /><stop
         id="stop5939"
         offset="0.996334"
         style="stop-opacity:0.4;stop-color:#ffffff" /><stop
         id="stop5941"
         offset="1"
         style="stop-opacity:0.4;stop-color:#ffffff" /></linearGradient><mask
       id="mask5945"
       height="1"
       width="1"
       y="0"
       x="0"
       maskUnits="userSpaceOnUse"><g
         id="g5955"><g
           id="g5953"
           clip-path="url(#clipPath5935)"><g
             id="g5951"><g
               id="g5949"><path
                 id="path5947"
                 style="fill:url(#linearGradient5943);stroke:none"
                 d="M -32768,32767 H 32767 V -32768 H -32768 Z" /></g></g></g></g></mask><linearGradient
       id="linearGradient5967"
       spreadMethod="pad"
       gradientTransform="matrix(248.77592,-200.08319,-200.08319,-248.77592,350.15762,314.75461)"
       gradientUnits="userSpaceOnUse"
       y2="0"
       x2="1"
       y1="0"
       x1="0"><stop
         id="stop5961"
         offset="0"
         style="stop-opacity:1;stop-color:#ffffff" /><stop
         id="stop5963"
         offset="0.996334"
         style="stop-opacity:1;stop-color:#ffffff" /><stop
         id="stop5965"
         offset="1"
         style="stop-opacity:1;stop-color:#ffffff" /></linearGradient></defs><sodipodi:namedview
     inkscape:current-layer="g5115"
     inkscape:window-maximized="1"
     inkscape:window-y="-11"
     inkscape:window-x="-11"
     inkscape:cy="277.54534"
     inkscape:cx="500"
     inkscape:zoom="1.434"
     showgrid="false"
     id="namedview5109"
     inkscape:window-height="1346"
     inkscape:window-width="2560"
     inkscape:pageshadow="2"
     inkscape:pageopacity="0"
     guidetolerance="10"
     gridtolerance="10"
     objecttolerance="10"
     borderopacity="1"
     bordercolor="#666666"
     pagecolor="#ffffff" /><g
     transform="matrix(1.3333333,0,0,-1.3333333,0,666.66667)"
     inkscape:label="3610524"
     inkscape:groupmode="layer"
     id="g5115"><g
       id="g5117"><g
         clip-path="url(#clipPath5123)"
         id="g5119"><g
           id="g5125"><g
             id="g5127"><path
               id="path5137"
               style="fill:url(#linearGradient5135);stroke:none"
               d="M 0,0 H 750 V 500 H 0 Z" /></g></g></g></g><g
       id="g5139"><g
         clip-path="url(#clipPath5145)"
         id="g5141"><g
           id="g5147"><g
             id="g5149"><path
               id="path5159"
               style="fill:url(#linearGradient5157);stroke:none"
               d="M 415.182,0 H 750 V 352.401 C 517,311 419,112 415.182,0" /></g></g></g></g><g
       id="g5161"><g
         clip-path="url(#clipPath5167)"
         id="g5163"><g
           id="g5169"><g
             id="g5171"><path
               id="path5181"
               style="fill:url(#linearGradient5179);stroke:none"
               d="M 485.483,0 H 750 V 278.408 C 565.923,245.7 488.499,88.484 485.483,0" /></g></g></g></g><g
       id="g5183"><g
         clip-path="url(#clipPath5189)"
         id="g5185"><g
           id="g5191"><g
             id="g5193"><path
               id="path5203"
               style="fill:url(#linearGradient5201);stroke:none"
               d="M 0,500 V 120.331 C 140,124 369,224 383.544,500 v 0 z" /></g></g></g></g><g
       id="g5213"><g
         id="g5215"><path
           id="path5225"
           style="fill:url(#linearGradient5223);stroke:none"
           d="M 0,500 V 282.223 C 80.303,284.327 211.658,341.687 220,500 v 0 z" /></g></g><g
       id="g5267"><g
         clip-path="url(#clipPath5273)"
         id="g5269"><g
           id="g5275"><g
             id="g5277"><path
               id="path5287"
               style="fill:url(#linearGradient5285);stroke:none"
               d="m 538.82,404.546 c 0,-28.966 23.482,-52.448 52.448,-52.448 v 0 c 28.966,0 52.448,23.482 52.448,52.448 v 0 c 0,28.966 -23.482,52.448 -52.448,52.448 v 0 c -28.966,0 -52.448,-23.482 -52.448,-52.448 m 27.801,0 c 0,13.612 11.035,24.646 24.647,24.646 v 0 c 13.612,0 24.647,-11.034 24.647,-24.646 v 0 c 0,-13.612 -11.035,-24.647 -24.647,-24.647 v 0 c -13.612,0 -24.647,11.035 -24.647,24.647" /></g></g></g></g><g
       id="g5313"><g
         clip-path="url(#clipPath5319)"
         id="g5315"><g
           id="g5321"><g
             id="g5323"><path
               id="path5333"
               style="fill:url(#linearGradient5331);stroke:none"
               d="m 450.22,446.546 c 0,-12.729 10.319,-23.048 23.048,-23.048 v 0 c 12.729,0 23.048,10.319 23.048,23.048 v 0 c 0,12.729 -10.319,23.048 -23.048,23.048 v 0 c -12.729,0 -23.048,-10.319 -23.048,-23.048" /></g></g></g></g><g
       id="g5335"><g
         clip-path="url(#clipPath5341)"
         id="g5337"><g
           id="g5343"><g
             id="g5345" /><g
             mask="url(#mask5359)"
             id="g5371"><g
               id="g5373"><path
                 id="path5383"
                 style="fill:url(#linearGradient5381);stroke:none"
                 d="m 250.22,72.546 c 0,-12.729 10.319,-23.049 23.048,-23.049 v 0 c 12.729,0 23.048,10.32 23.048,23.049 v 0 c 0,12.729 -10.319,23.048 -23.048,23.048 v 0 c -12.729,0 -23.048,-10.319 -23.048,-23.048" /></g></g></g></g></g><g
       id="g5481"><g
         clip-path="url(#clipPath5487)"
         id="g5483"><g
           id="g5489"><g
             id="g5491" /><g
             mask="url(#mask5505)"
             id="g5517"><g
               id="g5519"><path
                 id="path5529"
                 style="fill:url(#linearGradient5527);stroke:none"
                 d="m 98.25,236.703 c 0,-19.887 16.121,-36.008 36.007,-36.008 v 0 c 19.887,0 36.008,16.121 36.008,36.008 v 0 c 0,19.886 -16.121,36.007 -36.008,36.007 v 0 c -19.886,0 -36.007,-16.121 -36.007,-36.007" /></g></g></g></g></g><g
       id="g5627"><g
         clip-path="url(#clipPath5633)"
         id="g5629"><g
           id="g5635"><g
             id="g5637" /><g
             mask="url(#mask5649)"
             id="g5661"><g
               id="g5663"><path
                 id="path5671"
                 style="fill:url(#linearGradient5669);stroke:none"
                 d="m 22.008,52.359 c 0,-19.191 15.557,-34.749 34.749,-34.749 v 0 c 19.19,0 34.748,15.558 34.748,34.749 v 0 c 0,19.191 -15.558,34.749 -34.748,34.749 v 0 C 37.565,87.108 22.008,71.55 22.008,52.359 m 17.629,0 c 0,9.455 7.664,17.119 17.12,17.119 v 0 c 9.454,0 17.119,-7.664 17.119,-17.119 v 0 c 0,-9.455 -7.665,-17.119 -17.119,-17.119 v 0 c -9.456,0 -17.12,7.664 -17.12,17.119" /></g></g></g></g></g><g
       id="g5719"><g
         clip-path="url(#clipPath5725)"
         id="g5721"><g
           id="g5727"><g
             id="g5729" /><g
             mask="url(#mask5741)"
             id="g5753"><g
               id="g5755"><path
                 id="path5763"
                 style="fill:url(#linearGradient5761);stroke:none"
                 d="m 644.533,123.192 c 0,-23.41 18.978,-42.389 42.39,-42.389 v 0 c 23.411,0 42.389,18.979 42.389,42.389 v 0 c 0,23.412 -18.978,42.39 -42.389,42.39 v 0 c -23.412,0 -42.39,-18.978 -42.39,-42.39" /></g></g></g></g></g><g
       id="g5811"><g
         clip-path="url(#clipPath5817)"
         id="g5813"><g
           id="g5819"><g
             id="g5821" /><g
             mask="url(#mask5833)"
             id="g5845"><g
               id="g5847"><path
                 id="path5855"
                 style="fill:url(#linearGradient5853);stroke:none"
                 d="m 164.172,500 c -5.57,-9.059 -8.784,-19.726 -8.784,-31.141 v 0 c 0,-32.88 26.654,-59.535 59.535,-59.535 v 0 c 32.88,0 59.535,26.655 59.535,59.535 v 0 c 0,11.415 -3.214,22.082 -8.785,31.141 v 0 z" /></g></g></g></g></g><g
       id="g5921"><g
         clip-path="url(#clipPath5927)"
         id="g5923"><g
           id="g5929"><g
             id="g5931" /><g
             mask="url(#mask5945)"
             id="g5957"><g
               id="g5959"><path
                 id="path5969"
                 style="fill:url(#linearGradient5967);stroke:none"
                 d="m 405.782,211.192 c 0,-40.394 32.747,-73.14 73.14,-73.14 v 0 c 40.395,0 73.142,32.746 73.142,73.14 v 0 c 0,40.395 -32.747,73.141 -73.142,73.141 v 0 c -40.393,0 -73.14,-32.746 -73.14,-73.141" /></g></g></g></g></g></g></svg>
