<?xml version="1.0" encoding="UTF-8" standalone="no"?>
<svg
   xmlns:dc="http://purl.org/dc/elements/1.1/"
   xmlns:cc="http://creativecommons.org/ns#"
   xmlns:rdf="http://www.w3.org/1999/02/22-rdf-syntax-ns#"
   xmlns:svg="http://www.w3.org/2000/svg"
   xmlns="http://www.w3.org/2000/svg"
   xmlns:sodipodi="http://sodipodi.sourceforge.net/DTD/sodipodi-0.dtd"
   xmlns:inkscape="http://www.inkscape.org/namespaces/inkscape"
   version="1.1"
   id="svg833"
   xml:space="preserve"
   width="1000"
   height="666.66669"
   viewBox="0 0 1000 666.66669"
   sodipodi:docname="4706610.svg"
   inkscape:version="1.0 (4035a4fb49, 2020-05-01)"><metadata
     id="metadata839"><rdf:RDF><cc:Work
         rdf:about=""><dc:format>image/svg+xml</dc:format><dc:type
           rdf:resource="http://purl.org/dc/dcmitype/StillImage" /><dc:title /></cc:Work></rdf:RDF></metadata><defs
     id="defs837"><clipPath
       clipPathUnits="userSpaceOnUse"
       id="clipPath849"><path
         d="M 0.237,500 0,249.881 V 0.355 L 374.763,0 h 375 L 750,249.17 V 499.644 L 374.763,500 Z"
         id="path847" /></clipPath><linearGradient
       x1="0"
       y1="0"
       x2="1"
       y2="0"
       gradientUnits="userSpaceOnUse"
       gradientTransform="matrix(740.59564,-504.7532,-504.7532,-740.59564,5.5195031,501.81958)"
       spreadMethod="pad"
       id="linearGradient861"><stop
         style="stop-opacity:1;stop-color:#1200a9"
         offset="0"
         id="stop855" /><stop
         style="stop-opacity:1;stop-color:#1200a9"
         offset="0.07677536"
         id="stop857" /><stop
         style="stop-opacity:1;stop-color:#8d20a1"
         offset="1"
         id="stop859" /></linearGradient><clipPath
       clipPathUnits="userSpaceOnUse"
       id="clipPath871"><path
         d="M 0,500 H 750 V 0 H 0 Z"
         id="path869" /></clipPath><clipPath
       clipPathUnits="userSpaceOnUse"
       id="clipPath879"><path
         d="M 207.812,499.812 H 750.237 V -0.355637 H 207.812 Z"
         id="path877" /></clipPath><clipPath
       clipPathUnits="userSpaceOnUse"
       id="clipPath895"><path
         d="M -0.0890808,500.356 H 249.331 V 156.274 H -0.0890808 Z"
         id="path893" /></clipPath><clipPath
       clipPathUnits="userSpaceOnUse"
       id="clipPath911"><path
         d="M 0.237,500 0,249.881 V 0.355 L 374.763,0 h 375 L 750,249.17 V 499.644 L 374.763,500 Z"
         id="path909" /></clipPath><clipPath
       clipPathUnits="userSpaceOnUse"
       id="clipPath919"><path
         d="M 480.486,298.421 H 694.212 V -101.303 H 480.486 Z"
         id="path917" /></clipPath><clipPath
       clipPathUnits="userSpaceOnUse"
       id="clipPath923"><path
         d="M 655.862,104.81 C 655.83,70.731 628.178,43.131 594.099,43.163 c -34.078,0.032 -61.679,27.686 -61.647,61.764 0.032,34.079 27.685,61.678 61.764,61.646 34.079,-0.032 61.679,-27.684 61.646,-61.763"
         id="path921" /></clipPath><clipPath
       clipPathUnits="userSpaceOnUse"
       id="clipPath1007"><path
         d="M 0.238,500 0,249.94 V 249.881 0.355 L 374.052,0.001 374.763,0 h 375 l 0.236,248.912 10e-4,0.258 V 499.644 L 375.132,500 h -0.369 z"
         id="path1005" /></clipPath><clipPath
       clipPathUnits="userSpaceOnUse"
       id="clipPath1015"><path
         d="M 20.9726,374.814 H 799.67 V 75.6512 H 20.9726 Z"
         id="path1013" /></clipPath><clipPath
       clipPathUnits="userSpaceOnUse"
       id="clipPath1031"><path
         d="m 617.736,135.94 c 71.847,95.607 80.195,257.193 16.586,363.814 v 0 l -229.773,0.218 C 501.806,467.655 655.499,377.79 617.736,135.94"
         id="path1029" /></clipPath><linearGradient
       x1="0"
       y1="0"
       x2="1"
       y2="0"
       gradientUnits="userSpaceOnUse"
       gradientTransform="matrix(-434.84381,715.58661,715.58661,434.84381,799.75238,-14.06721)"
       spreadMethod="pad"
       id="linearGradient1043"><stop
         style="stop-opacity:1;stop-color:#ff008b"
         offset="0"
         id="stop1037" /><stop
         style="stop-opacity:1;stop-color:#ff008b"
         offset="0.27500507"
         id="stop1039" /><stop
         style="stop-opacity:1;stop-color:#ff9b36"
         offset="1"
         id="stop1041" /></linearGradient><clipPath
       clipPathUnits="userSpaceOnUse"
       id="clipPath1053"><path
         d="M 551.706,111.999 C 450.328,72.59 372.619,106.907 298.808,141.225 v 0 c -55.12,25.627 -108.066,51.254 -167.072,46.18 v 0 C 66.421,181.788 25.25,132.477 0,82.084 v 0 V 0.355 L 145.917,0.217 c 1.958,34.202 17.504,76.126 75.741,97.094 v 0 c 54.032,19.453 93.772,1.406 138.767,-16.64 v 0 C 405.408,62.628 455.642,44.586 530.658,64.014 v 0 c 150.052,38.862 189.22,212.842 165.301,299.874 v 0 c -23.92,87.032 -53.92,90.06 -53.92,90.06 v 0 c 0,0 86.75,-273.11 -90.333,-341.949"
         id="path1051" /></clipPath><linearGradient
       x1="0"
       y1="0"
       x2="1"
       y2="0"
       gradientUnits="userSpaceOnUse"
       gradientTransform="matrix(-284.58435,468.31702,468.31702,284.58435,514.52344,-127.10751)"
       spreadMethod="pad"
       id="linearGradient1063"><stop
         style="stop-opacity:1;stop-color:#ffc431"
         offset="0"
         id="stop1059" /><stop
         style="stop-opacity:1;stop-color:#ff8300"
         offset="1"
         id="stop1061" /></linearGradient><clipPath
       clipPathUnits="userSpaceOnUse"
       id="clipPath1073"><path
         d="M 620.821,225.945 C 527.72,130.025 401.728,151.145 182.763,211.36 v 0 C 98.607,234.502 40.116,221.718 0,197.209 v 0 V 0.355 L 67.466,0.292 c 25.933,83.644 133.191,138.87 268.21,102.911 v 0 C 482.653,64.06 611.69,87.941 611.69,87.941 v 0 c 57.366,11.539 102.584,37.233 138.224,70.852 v 0 L 750,248.912 v 0.257 250.475 l -123.678,0.118 c 22.927,-58.208 67.153,-198.96 -5.501,-273.817"
         id="path1071" /></clipPath><linearGradient
       x1="0"
       y1="0"
       x2="1"
       y2="0"
       gradientUnits="userSpaceOnUse"
       gradientTransform="matrix(545.63617,-371.87851,-371.87851,-545.63617,133.3268,415.80353)"
       spreadMethod="pad"
       id="linearGradient1085"><stop
         style="stop-opacity:1;stop-color:#ff008b"
         offset="0"
         id="stop1079" /><stop
         style="stop-opacity:1;stop-color:#ff008b"
         offset="0.27500507"
         id="stop1081" /><stop
         style="stop-opacity:1;stop-color:#ff9b36"
         offset="1"
         id="stop1083" /></linearGradient><clipPath
       clipPathUnits="userSpaceOnUse"
       id="clipPath1095"><path
         d="M 0.238,500 0,249.94 V 249.881 0.355 L 374.052,0.001 374.763,0 h 375 l 0.236,248.912 10e-4,0.258 V 499.644 L 375.132,500 h -0.369 z"
         id="path1093" /></clipPath><clipPath
       clipPathUnits="userSpaceOnUse"
       id="clipPath1103"><path
         d="M -106.003,211.854 H 299.918 V -145.522 H -106.003 Z"
         id="path1101" /></clipPath><clipPath
       clipPathUnits="userSpaceOnUse"
       id="clipPath1107"><path
         d="M 299.917,163.071 C 40.916,314.23 -68.572,77.186 -106.003,-47.649 l 126.411,-97.873 c 0,0 15.989,14.372 29.331,59.436 -15.516,45.508 -20.218,105.991 14.108,175.381 76.147,153.928 236.07,73.776 236.07,73.776"
         id="path1105" /></clipPath><linearGradient
       x1="0"
       y1="0"
       x2="1"
       y2="0"
       gradientUnits="userSpaceOnUse"
       gradientTransform="matrix(200.98349,-136.98036,-136.98036,-200.98349,-17.549673,129.89445)"
       spreadMethod="pad"
       id="linearGradient1115"><stop
         style="stop-opacity:1;stop-color:#8d20a1"
         offset="0"
         id="stop1109" /><stop
         style="stop-opacity:1;stop-color:#0c0090"
         offset="0.92322464"
         id="stop1111" /><stop
         style="stop-opacity:1;stop-color:#0c0090"
         offset="1"
         id="stop1113" /></linearGradient><clipPath
       clipPathUnits="userSpaceOnUse"
       id="clipPath1137"><path
         d="M 495.068,499.091 C 675.049,459.917 713.751,141.849 578.706,108.974 v 0 C 443.661,76.099 338.736,166.207 200.796,244.346 v 0 c -97.199,55.06 -167.643,37.1 -200.781,21.687 v 0 L 0,249.94 V 249.881 99.742 c 35.267,44.039 95.915,93.232 188.741,87.609 v 0 C 308.869,180.076 470.604,13.066 653.73,126.905 v 0 c 61.296,38.103 87.992,99.111 96.27,163.853 v 0 103.693 c -4.157,39.006 -12.037,75.577 -19.849,105.212 v 0 l -238.67,0.227 c 1.168,-0.266 2.367,-0.533 3.587,-0.799"
         id="path1135" /></clipPath><linearGradient
       x1="0"
       y1="0"
       x2="1"
       y2="0"
       gradientUnits="userSpaceOnUse"
       gradientTransform="matrix(549.9613,-374.82629,-374.82629,-549.9613,97.162056,464.50815)"
       spreadMethod="pad"
       id="linearGradient1153"><stop
         style="stop-opacity:1;stop-color:#00ffff"
         offset="0"
         id="stop1143" /><stop
         style="stop-opacity:1;stop-color:#00ffff"
         offset="0.08798793"
         id="stop1145" /><stop
         style="stop-opacity:1;stop-color:#5500ea"
         offset="0.496569"
         id="stop1147" /><stop
         style="stop-opacity:1;stop-color:#5500ea"
         offset="0.64396424"
         id="stop1149" /><stop
         style="stop-opacity:1;stop-color:#ff00ff"
         offset="1"
         id="stop1151" /></linearGradient><clipPath
       clipPathUnits="userSpaceOnUse"
       id="clipPath1163"><path
         d="M 0.238,500 0,249.94 V 249.881 0.355 L 374.052,0.001 374.763,0 h 375 l 0.236,248.912 10e-4,0.258 V 499.644 L 375.132,500 h -0.369 z"
         id="path1161" /></clipPath><clipPath
       clipPathUnits="userSpaceOnUse"
       id="clipPath1171"><path
         d="M -51.2451,225.336 H 313.08 V 34.5524 H -51.2451 Z"
         id="path1169" /></clipPath><clipPath
       clipPathUnits="userSpaceOnUse"
       id="clipPath1175"><path
         d="M 101.977,225.259 C -28.027,221.382 -50.132,111.403 -50.132,111.403 c 0,0 -0.407,-3.595 -1.113,-9.87 l 11.818,-66.98 c 0,0 63.377,162.78 228.168,152.799 37.581,-2.277 79.234,-20.186 124.339,-40.239 -69.201,38.96 -140.717,80.244 -211.103,78.146"
         id="path1173" /></clipPath><linearGradient
       x1="0"
       y1="0"
       x2="1"
       y2="0"
       gradientUnits="userSpaceOnUse"
       gradientTransform="matrix(237.46155,-161.842,-161.842,-237.46155,-6.8907657,188.78358)"
       spreadMethod="pad"
       id="linearGradient1183"><stop
         style="stop-opacity:1;stop-color:#8d20a1"
         offset="0"
         id="stop1177" /><stop
         style="stop-opacity:1;stop-color:#0c0090"
         offset="0.92322464"
         id="stop1179" /><stop
         style="stop-opacity:1;stop-color:#0c0090"
         offset="1"
         id="stop1181" /></linearGradient><clipPath
       clipPathUnits="userSpaceOnUse"
       id="clipPath1205"><path
         d="M 588.297,572.886 H 753.003 V 140.771 H 588.297 Z"
         id="path1203" /></clipPath><clipPath
       clipPathUnits="userSpaceOnUse"
       id="clipPath1209"><path
         d="m 588.999,563.372 -0.702,-0.574 29.954,-48.028 c 0,0 136.496,-189.281 55.071,-373.999 154.134,123.758 37.71,418.579 34.835,430.126 -1.139,4.576 -58.535,0.92 -119.158,-7.525"
         id="path1207" /></clipPath><linearGradient
       x1="0"
       y1="0"
       x2="1"
       y2="0"
       gradientUnits="userSpaceOnUse"
       gradientTransform="matrix(259.81927,-177.07993,-177.07993,-259.81927,525.55438,468.53394)"
       spreadMethod="pad"
       id="linearGradient1217"><stop
         style="stop-opacity:1;stop-color:#8d20a1"
         offset="0"
         id="stop1211" /><stop
         style="stop-opacity:1;stop-color:#0c0090"
         offset="0.92322464"
         id="stop1213" /><stop
         style="stop-opacity:1;stop-color:#0c0090"
         offset="1"
         id="stop1215" /></linearGradient><clipPath
       clipPathUnits="userSpaceOnUse"
       id="clipPath1239"><path
         d="M 0.237,500 0,249.881 V 0.355 L 374.763,0 h 375 L 750,249.17 V 499.644 L 374.763,500 Z"
         id="path1237" /></clipPath><clipPath
       clipPathUnits="userSpaceOnUse"
       id="clipPath1247"><path
         d="M 208.345,259.753 H 356.838 V 111.261 H 208.345 Z"
         id="path1245" /></clipPath><clipPath
       clipPathUnits="userSpaceOnUse"
       id="clipPath1251"><path
         d="m 356.838,185.507 c 0,-41.005 -33.241,-74.246 -74.247,-74.246 -41.005,0 -74.246,33.241 -74.246,74.246 0,41.006 33.241,74.246 74.246,74.246 41.006,0 74.247,-33.24 74.247,-74.246"
         id="path1249" /></clipPath><clipPath
       clipPathUnits="userSpaceOnUse"
       id="clipPath1255"><path
         d="M -32768,32767 H 32767 V -32768 H -32768 Z"
         id="path1253" /></clipPath><linearGradient
       x1="0"
       y1="0"
       x2="1"
       y2="0"
       gradientUnits="userSpaceOnUse"
       gradientTransform="matrix(0,109.06924,109.06924,0,282.5914,120.98851)"
       spreadMethod="pad"
       id="linearGradient1265"><stop
         style="stop-opacity:0;stop-color:#ffffff"
         offset="0"
         id="stop1257" /><stop
         style="stop-opacity:0;stop-color:#ffffff"
         offset="0.0025"
         id="stop1259" /><stop
         style="stop-opacity:1;stop-color:#ffffff"
         offset="0.56105755"
         id="stop1261" /><stop
         style="stop-opacity:1;stop-color:#ffffff"
         offset="1"
         id="stop1263" /></linearGradient><mask
       maskUnits="userSpaceOnUse"
       x="0"
       y="0"
       width="1"
       height="1"
       id="mask1267"><g
         id="g1277"><g
           clip-path="url(#clipPath1255)"
           id="g1275"><g
             id="g1273"><g
               id="g1271"><path
                 d="M -32768,32767 H 32767 V -32768 H -32768 Z"
                 style="fill:url(#linearGradient1265);stroke:none"
                 id="path1269" /></g></g></g></g></mask><linearGradient
       x1="0"
       y1="0"
       x2="1"
       y2="0"
       gradientUnits="userSpaceOnUse"
       gradientTransform="matrix(0,109.06924,109.06924,0,282.5914,120.98851)"
       spreadMethod="pad"
       id="linearGradient1287"><stop
         style="stop-opacity:1;stop-color:#ffe7dd"
         offset="0"
         id="stop1279" /><stop
         style="stop-opacity:1;stop-color:#ffe7dd"
         offset="0.0025"
         id="stop1281" /><stop
         style="stop-opacity:1;stop-color:#ffc0a2"
         offset="0.56105755"
         id="stop1283" /><stop
         style="stop-opacity:1;stop-color:#ffc0a2"
         offset="1"
         id="stop1285" /></linearGradient><clipPath
       clipPathUnits="userSpaceOnUse"
       id="clipPath1313"><path
         d="M 489.183,120.916 H 580 V 30.0986 h -90.817 z"
         id="path1311" /></clipPath><clipPath
       clipPathUnits="userSpaceOnUse"
       id="clipPath1317"><path
         d="m 580,75.507 c 0,-25.078 -20.33,-45.408 -45.408,-45.408 -25.079,0 -45.409,20.33 -45.409,45.408 0,25.079 20.33,45.409 45.409,45.409 25.078,0 45.408,-20.33 45.408,-45.409"
         id="path1315" /></clipPath><clipPath
       clipPathUnits="userSpaceOnUse"
       id="clipPath1321"><path
         d="M -32768,32767 H 32767 V -32768 H -32768 Z"
         id="path1319" /></clipPath><linearGradient
       x1="0"
       y1="0"
       x2="1"
       y2="0"
       gradientUnits="userSpaceOnUse"
       gradientTransform="matrix(0,66.706123,66.706123,0,534.59137,36.047924)"
       spreadMethod="pad"
       id="linearGradient1331"><stop
         style="stop-opacity:0;stop-color:#ffffff"
         offset="0"
         id="stop1323" /><stop
         style="stop-opacity:0;stop-color:#ffffff"
         offset="0.0025"
         id="stop1325" /><stop
         style="stop-opacity:1;stop-color:#ffffff"
         offset="0.56105755"
         id="stop1327" /><stop
         style="stop-opacity:1;stop-color:#ffffff"
         offset="1"
         id="stop1329" /></linearGradient><mask
       maskUnits="userSpaceOnUse"
       x="0"
       y="0"
       width="1"
       height="1"
       id="mask1333"><g
         id="g1343"><g
           clip-path="url(#clipPath1321)"
           id="g1341"><g
             id="g1339"><g
               id="g1337"><path
                 d="M -32768,32767 H 32767 V -32768 H -32768 Z"
                 style="fill:url(#linearGradient1331);stroke:none"
                 id="path1335" /></g></g></g></g></mask><linearGradient
       x1="0"
       y1="0"
       x2="1"
       y2="0"
       gradientUnits="userSpaceOnUse"
       gradientTransform="matrix(0,66.706123,66.706123,0,534.59137,36.047924)"
       spreadMethod="pad"
       id="linearGradient1353"><stop
         style="stop-opacity:1;stop-color:#ffe7dd"
         offset="0"
         id="stop1345" /><stop
         style="stop-opacity:1;stop-color:#ffe7dd"
         offset="0.0025"
         id="stop1347" /><stop
         style="stop-opacity:1;stop-color:#ffc0a2"
         offset="0.56105755"
         id="stop1349" /><stop
         style="stop-opacity:1;stop-color:#ffc0a2"
         offset="1"
         id="stop1351" /></linearGradient><clipPath
       clipPathUnits="userSpaceOnUse"
       id="clipPath1403"><path
         d="m 693.319,80.506 c 0,-10.355 8.394,-18.749 18.748,-18.749 v 0 c 10.355,0 18.749,8.394 18.749,18.749 v 0 c 0,10.354 -8.394,18.749 -18.749,18.749 v 0 c -10.354,0 -18.748,-8.395 -18.748,-18.749"
         id="path1401" /></clipPath><linearGradient
       x1="0"
       y1="0"
       x2="1"
       y2="0"
       gradientUnits="userSpaceOnUse"
       gradientTransform="matrix(-11.9994,-58.497074,-58.497074,11.9994,718.28656,110.82465)"
       spreadMethod="pad"
       id="linearGradient1413"><stop
         style="stop-opacity:1;stop-color:#ffc431"
         offset="0"
         id="stop1409" /><stop
         style="stop-opacity:1;stop-color:#ff8300"
         offset="1"
         id="stop1411" /></linearGradient><clipPath
       clipPathUnits="userSpaceOnUse"
       id="clipPath1423"><path
         d="m 584,279 c 0,-3.314 2.687,-5.999 6,-5.999 v 0 c 3.313,0 5.999,2.685 5.999,5.999 v 0 c 0,3.314 -2.686,5.999 -5.999,5.999 v 0 c -3.313,0 -6,-2.685 -6,-5.999"
         id="path1421" /></clipPath><linearGradient
       x1="0"
       y1="0"
       x2="1"
       y2="0"
       gradientUnits="userSpaceOnUse"
       gradientTransform="matrix(-3.839808,-18.719065,-18.719065,3.839808,591.98987,288.70203)"
       spreadMethod="pad"
       id="linearGradient1433"><stop
         style="stop-opacity:1;stop-color:#ffc431"
         offset="0"
         id="stop1429" /><stop
         style="stop-opacity:1;stop-color:#ff8300"
         offset="1"
         id="stop1431" /></linearGradient><clipPath
       clipPathUnits="userSpaceOnUse"
       id="clipPath1443"><path
         d="m 190.082,286.26 c 0,-10.355 8.394,-18.748 18.749,-18.748 v 0 c 10.355,0 18.749,8.393 18.749,18.748 v 0 c 0,10.355 -8.394,18.749 -18.749,18.749 v 0 c -10.355,0 -18.749,-8.394 -18.749,-18.749"
         id="path1441" /></clipPath><linearGradient
       x1="0"
       y1="0"
       x2="1"
       y2="0"
       gradientUnits="userSpaceOnUse"
       gradientTransform="matrix(-11.9994,-58.497074,-58.497074,11.9994,215.05032,316.57895)"
       spreadMethod="pad"
       id="linearGradient1455"><stop
         style="stop-opacity:1;stop-color:#ff2f7f"
         offset="0"
         id="stop1449" /><stop
         style="stop-opacity:1;stop-color:#ff2f7f"
         offset="0.27500507"
         id="stop1451" /><stop
         style="stop-opacity:1;stop-color:#ff9b36"
         offset="1"
         id="stop1453" /></linearGradient><clipPath
       clipPathUnits="userSpaceOnUse"
       id="clipPath1465"><path
         d="m 144.082,50.26 c 0,-10.355 8.394,-18.749 18.749,-18.749 v 0 c 10.355,0 18.749,8.394 18.749,18.749 v 0 c 0,10.355 -8.394,18.748 -18.749,18.748 v 0 c -10.355,0 -18.749,-8.393 -18.749,-18.748"
         id="path1463" /></clipPath><linearGradient
       x1="0"
       y1="0"
       x2="1"
       y2="0"
       gradientUnits="userSpaceOnUse"
       gradientTransform="matrix(-11.9994,-58.497074,-58.497074,11.9994,169.05032,80.578957)"
       spreadMethod="pad"
       id="linearGradient1477"><stop
         style="stop-opacity:1;stop-color:#ff2f7f"
         offset="0"
         id="stop1471" /><stop
         style="stop-opacity:1;stop-color:#ff2f7f"
         offset="0.27500507"
         id="stop1473" /><stop
         style="stop-opacity:1;stop-color:#ff9b36"
         offset="1"
         id="stop1475" /></linearGradient><clipPath
       clipPathUnits="userSpaceOnUse"
       id="clipPath1487"><path
         d="m 736.069,45.245 c 0,-8.613 5.807,-15.869 13.72,-18.067 v 0 l 0.034,36.145 c -7.93,-2.186 -13.754,-9.452 -13.754,-18.078"
         id="path1485" /></clipPath><linearGradient
       x1="0"
       y1="0"
       x2="1"
       y2="0"
       gradientUnits="userSpaceOnUse"
       gradientTransform="matrix(-11.9994,-58.497074,-58.497074,11.9994,761.0368,75.564407)"
       spreadMethod="pad"
       id="linearGradient1497"><stop
         style="stop-opacity:1;stop-color:#68c5ff"
         offset="0"
         id="stop1493" /><stop
         style="stop-opacity:1;stop-color:#3239ff"
         offset="1"
         id="stop1495" /></linearGradient><clipPath
       clipPathUnits="userSpaceOnUse"
       id="clipPath1507"><path
         d="M 0.113,368.332 0.042,294.165 c 0.917,-0.067 1.841,-0.102 2.775,-0.102 v 0 c 20.536,0 37.183,16.648 37.183,37.183 v 0 c 0,20.535 -16.647,37.182 -37.183,37.182 v 0 c -0.91,0 -1.811,-0.032 -2.704,-0.096"
         id="path1505" /></clipPath><linearGradient
       x1="0"
       y1="0"
       x2="1"
       y2="0"
       gradientUnits="userSpaceOnUse"
       gradientTransform="matrix(-23.796745,-116.00914,-116.00914,23.796745,15.151355,391.37271)"
       spreadMethod="pad"
       id="linearGradient1517"><stop
         style="stop-opacity:1;stop-color:#68c5ff"
         offset="0"
         id="stop1513" /><stop
         style="stop-opacity:1;stop-color:#3239ff"
         offset="1"
         id="stop1515" /></linearGradient><clipPath
       clipPathUnits="userSpaceOnUse"
       id="clipPath1527"><path
         d="m 533.001,249 c 0,-7.455 6.044,-13.499 13.5,-13.499 v 0 c 7.455,0 13.499,6.044 13.499,13.499 v 0 c 0,7.456 -6.044,13.499 -13.499,13.499 v 0 c -7.456,0 -13.5,-6.043 -13.5,-13.499"
         id="path1525" /></clipPath><linearGradient
       x1="0"
       y1="0"
       x2="1"
       y2="0"
       gradientUnits="userSpaceOnUse"
       gradientTransform="matrix(-8.6395674,-42.117893,-42.117893,8.6395674,550.97852,270.82956)"
       spreadMethod="pad"
       id="linearGradient1539"><stop
         style="stop-opacity:1;stop-color:#ff9b36"
         offset="0"
         id="stop1533" /><stop
         style="stop-opacity:1;stop-color:#ff008b"
         offset="0.72499493"
         id="stop1535" /><stop
         style="stop-opacity:1;stop-color:#ff008b"
         offset="1"
         id="stop1537" /></linearGradient><clipPath
       clipPathUnits="userSpaceOnUse"
       id="clipPath1549"><path
         d="m 518.001,211 c 0,-3.313 2.686,-6 5.999,-6 v 0 c 3.314,0 6,2.687 6,6 v 0 c 0,3.313 -2.686,6 -6,6 v 0 c -3.313,0 -5.999,-2.687 -5.999,-6"
         id="path1547" /></clipPath><linearGradient
       x1="0"
       y1="0"
       x2="1"
       y2="0"
       gradientUnits="userSpaceOnUse"
       gradientTransform="matrix(-3.839808,-18.719065,-18.719065,3.839808,525.99048,220.70203)"
       spreadMethod="pad"
       id="linearGradient1561"><stop
         style="stop-opacity:1;stop-color:#ff9b36"
         offset="0"
         id="stop1555" /><stop
         style="stop-opacity:1;stop-color:#ff008b"
         offset="0.72499493"
         id="stop1557" /><stop
         style="stop-opacity:1;stop-color:#ff008b"
         offset="1"
         id="stop1559" /></linearGradient><clipPath
       clipPathUnits="userSpaceOnUse"
       id="clipPath1571"><path
         d="m 229.251,250.25 c 0,-3.727 3.022,-6.749 6.749,-6.749 v 0 c 3.728,0 6.75,3.022 6.75,6.749 v 0 c 0,3.728 -3.022,6.75 -6.75,6.75 v 0 c -3.727,0 -6.749,-3.022 -6.749,-6.75"
         id="path1569" /></clipPath><linearGradient
       x1="0"
       y1="0"
       x2="1"
       y2="0"
       gradientUnits="userSpaceOnUse"
       gradientTransform="matrix(-4.3197837,-21.058947,-21.058947,4.3197837,238.23892,261.16513)"
       spreadMethod="pad"
       id="linearGradient1581"><stop
         style="stop-opacity:1;stop-color:#ffc431"
         offset="0"
         id="stop1577" /><stop
         style="stop-opacity:1;stop-color:#ff8300"
         offset="1"
         id="stop1579" /></linearGradient><clipPath
       clipPathUnits="userSpaceOnUse"
       id="clipPath1591"><path
         d="m 726.001,351.904 c 0,-10.809 8.762,-19.571 19.572,-19.571 v 0 c 1.522,0 3.004,0.174 4.427,0.503 v 0 38.137 c -1.423,0.329 -2.905,0.503 -4.427,0.503 v 0 c -10.81,0 -19.572,-8.762 -19.572,-19.572"
         id="path1589" /></clipPath><linearGradient
       x1="0"
       y1="0"
       x2="1"
       y2="0"
       gradientUnits="userSpaceOnUse"
       gradientTransform="matrix(-12.525454,-61.061584,-61.061584,12.525454,752.06384,383.55246)"
       spreadMethod="pad"
       id="linearGradient1601"><stop
         style="stop-opacity:1;stop-color:#ffc431"
         offset="0"
         id="stop1597" /><stop
         style="stop-opacity:1;stop-color:#ff8300"
         offset="1"
         id="stop1599" /></linearGradient><clipPath
       clipPathUnits="userSpaceOnUse"
       id="clipPath1611"><path
         d="m 263.955,159.885 c 0,-10.809 8.762,-19.571 19.571,-19.571 v 0 c 10.808,0 19.571,8.762 19.571,19.571 v 0 c 0,10.809 -8.763,19.571 -19.571,19.571 v 0 c -10.809,0 -19.571,-8.762 -19.571,-19.571"
         id="path1609" /></clipPath><linearGradient
       x1="0"
       y1="0"
       x2="1"
       y2="0"
       gradientUnits="userSpaceOnUse"
       gradientTransform="matrix(-12.525454,-61.061584,-61.061584,12.525454,290.01761,191.53326)"
       spreadMethod="pad"
       id="linearGradient1621"><stop
         style="stop-opacity:1;stop-color:#ffc431"
         offset="0"
         id="stop1617" /><stop
         style="stop-opacity:1;stop-color:#ff8300"
         offset="1"
         id="stop1619" /></linearGradient><clipPath
       clipPathUnits="userSpaceOnUse"
       id="clipPath1631"><path
         d="M 0.237,500 0,249.881 V 0.355 L 374.763,0 h 375 L 750,249.17 V 499.644 L 374.763,500 Z"
         id="path1629" /></clipPath><clipPath
       clipPathUnits="userSpaceOnUse"
       id="clipPath1639"><path
         d="M -25.6516,492.826 H 218.663 V 34.8612 H -25.6516 Z"
         id="path1637" /></clipPath><clipPath
       clipPathUnits="userSpaceOnUse"
       id="clipPath1643"><path
         d="m 174.955,271.076 c 0,-39.024 -31.635,-70.66 -70.66,-70.66 -39.024,0 -70.66,31.636 -70.66,70.66 0,39.025 31.636,70.661 70.66,70.661 39.025,0 70.66,-31.636 70.66,-70.661"
         id="path1641" /></clipPath><clipPath
       clipPathUnits="userSpaceOnUse"
       id="clipPath1727"><path
         d="M 552.802,757.348 H 839.284 V 221.552 H 552.802 Z"
         id="path1725" /></clipPath><clipPath
       clipPathUnits="userSpaceOnUse"
       id="clipPath1731"><path
         d="m 787.879,497.829 c -0.044,-45.68 -37.109,-82.675 -82.789,-82.632 -45.68,0.044 -82.675,37.11 -82.632,82.789 0.044,45.68 37.109,82.676 82.789,82.632 45.68,-0.043 82.675,-37.109 82.632,-82.789"
         id="path1729" /></clipPath></defs><sodipodi:namedview
     inkscape:document-rotation="0"
     pagecolor="#ffffff"
     bordercolor="#666666"
     borderopacity="1"
     objecttolerance="10"
     gridtolerance="10"
     guidetolerance="10"
     inkscape:pageopacity="0"
     inkscape:pageshadow="2"
     inkscape:window-width="2560"
     inkscape:window-height="1346"
     id="namedview835"
     showgrid="false"
     inkscape:zoom="1.6889999"
     inkscape:cx="500"
     inkscape:cy="333.33334"
     inkscape:window-x="-11"
     inkscape:window-y="-11"
     inkscape:window-maximized="1"
     inkscape:current-layer="g841" /><g
     id="g841"
     inkscape:groupmode="layer"
     inkscape:label="4706608"
     transform="matrix(1.3333333,0,0,-1.3333333,0,666.66667)"><g
       id="g843"><g
         id="g845"
         clip-path="url(#clipPath849)"><g
           id="g851"><g
             id="g853"><path
               d="M 0.237,500 0,249.881 V 0.355 L 374.763,0 h 375 L 750,249.17 V 499.644 L 374.763,500 Z"
               style="fill:url(#linearGradient861);stroke:none"
               id="path863" /></g></g></g></g><g
       id="g865"><g
         id="g867"
         clip-path="url(#clipPath871)"><g
           id="g873"><g
             id="g875" /><g
             id="g887"><g
               clip-path="url(#clipPath879)"
               opacity="0.229996"
               id="g885"><g
                 transform="translate(749.7627,-0.3555)"
                 id="g883"><path
                   d="m 0,0 0.475,500 -176.79,0.167 C -227.491,463.913 -273.941,406.741 -269.867,319.444 -261.046,130.416 -330.104,76.477 -468.141,52.605 -507.286,45.836 -529.79,25.776 -541.95,0.514 Z"
                   style="fill:#ffffff;fill-opacity:1;fill-rule:nonzero;stroke:none"
                   id="path881" /></g></g></g></g><g
           id="g889"><g
             id="g891" /><g
             id="g903"><g
               clip-path="url(#clipPath895)"
               opacity="0.229996"
               id="g901"><g
                 transform="translate(0.2373,500.3555)"
                 id="g899"><path
                   d="m 0,0 -0.326,-344.082 c 126.85,53.739 48.338,177.007 159.02,235.126 64.456,33.847 84.849,77.311 90.399,108.72 z"
                   style="fill:#ffffff;fill-opacity:1;fill-rule:nonzero;stroke:none"
                   id="path897" /></g></g></g></g></g></g><g
       clip-path="url(#clipPath1031)"
       id="g1027"><g
         id="g1033"><g
           id="g1035"><path
             id="path1045"
             style="fill:url(#linearGradient1043);stroke:none"
             d="m 617.736,135.94 c 71.847,95.607 80.195,257.193 16.586,363.814 v 0 l -229.773,0.218 C 501.806,467.655 655.499,377.79 617.736,135.94" /></g></g></g><g
       id="g1047"><g
         id="g1049"
         clip-path="url(#clipPath1053)"><g
           id="g1055"><g
             id="g1057"><path
               d="M 551.706,111.999 C 450.328,72.59 372.619,106.907 298.808,141.225 v 0 c -55.12,25.627 -108.066,51.254 -167.072,46.18 v 0 C 66.421,181.788 25.25,132.477 0,82.084 v 0 V 0.355 L 145.917,0.217 c 1.958,34.202 17.504,76.126 75.741,97.094 v 0 c 54.032,19.453 93.772,1.406 138.767,-16.64 v 0 C 405.408,62.628 455.642,44.586 530.658,64.014 v 0 c 150.052,38.862 189.22,212.842 165.301,299.874 v 0 c -23.92,87.032 -53.92,90.06 -53.92,90.06 v 0 c 0,0 86.75,-273.11 -90.333,-341.949"
               style="fill:url(#linearGradient1063);stroke:none"
               id="path1065" /></g></g></g></g><g
       id="g1067"><g
         id="g1069"
         clip-path="url(#clipPath1073)"><g
           id="g1075"><g
             id="g1077"><path
               d="M 620.821,225.945 C 527.72,130.025 401.728,151.145 182.763,211.36 v 0 C 98.607,234.502 40.116,221.718 0,197.209 v 0 V 0.355 L 67.466,0.292 c 25.933,83.644 133.191,138.87 268.21,102.911 v 0 C 482.653,64.06 611.69,87.941 611.69,87.941 v 0 c 57.366,11.539 102.584,37.233 138.224,70.852 v 0 L 750,248.912 v 0.257 250.475 l -123.678,0.118 c 22.927,-58.208 67.153,-198.96 -5.501,-273.817"
               style="fill:url(#linearGradient1085);stroke:none"
               id="path1087" /></g></g></g></g><g
       id="g1089"><g
         id="g1091"
         clip-path="url(#clipPath1095)"><g
           id="g1097"><g
             id="g1099" /><g
             id="g1129"><g
               clip-path="url(#clipPath1103)"
               opacity="0.289993"
               id="g1127"><g
                 id="g1125"><g
                   clip-path="url(#clipPath1107)"
                   id="g1123"><g
                     id="g1121"><g
                       id="g1119"><path
                         d="M 299.917,163.071 C 40.916,314.23 -68.572,77.186 -106.003,-47.649 l 126.411,-97.873 c 0,0 15.989,14.372 29.331,59.436 -15.516,45.508 -20.218,105.991 14.108,175.381 76.147,153.928 236.07,73.776 236.07,73.776"
                         style="fill:url(#linearGradient1115);stroke:none"
                         id="path1117" /></g></g></g></g></g></g></g></g></g><g
       id="g1131"><g
         id="g1133"
         clip-path="url(#clipPath1137)"><g
           id="g1139"><g
             id="g1141"><path
               d="M 495.068,499.091 C 675.049,459.917 713.751,141.849 578.706,108.974 v 0 C 443.661,76.099 338.736,166.207 200.796,244.346 v 0 c -97.199,55.06 -167.643,37.1 -200.781,21.687 v 0 L 0,249.94 V 249.881 99.742 c 35.267,44.039 95.915,93.232 188.741,87.609 v 0 C 308.869,180.076 470.604,13.066 653.73,126.905 v 0 c 61.296,38.103 87.992,99.111 96.27,163.853 v 0 103.693 c -4.157,39.006 -12.037,75.577 -19.849,105.212 v 0 l -238.67,0.227 c 1.168,-0.266 2.367,-0.533 3.587,-0.799"
               style="fill:url(#linearGradient1153);stroke:none"
               id="path1155" /></g></g></g></g><g
       id="g1157"><g
         id="g1159"
         clip-path="url(#clipPath1163)"><g
           id="g1165"><g
             id="g1167" /><g
             id="g1197"><g
               clip-path="url(#clipPath1171)"
               opacity="0.289993"
               id="g1195"><g
                 id="g1193"><g
                   clip-path="url(#clipPath1175)"
                   id="g1191"><g
                     id="g1189"><g
                       id="g1187"><path
                         d="M 101.977,225.259 C -28.027,221.382 -50.132,111.403 -50.132,111.403 c 0,0 -0.407,-3.595 -1.113,-9.87 l 11.818,-66.98 c 0,0 63.377,162.78 228.168,152.799 37.581,-2.277 79.234,-20.186 124.339,-40.239 -69.201,38.96 -140.717,80.244 -211.103,78.146"
                         style="fill:url(#linearGradient1183);stroke:none"
                         id="path1185" /></g></g></g></g></g></g></g><g
           id="g1199"><g
             id="g1201" /><g
             id="g1231"><g
               clip-path="url(#clipPath1205)"
               opacity="0.289993"
               id="g1229"><g
                 id="g1227"><g
                   clip-path="url(#clipPath1209)"
                   id="g1225"><g
                     id="g1223"><g
                       id="g1221"><path
                         d="m 588.999,563.372 -0.702,-0.574 29.954,-48.028 c 0,0 136.496,-189.281 55.071,-373.999 154.134,123.758 37.71,418.579 34.835,430.126 -1.139,4.576 -58.535,0.92 -119.158,-7.525"
                         style="fill:url(#linearGradient1217);stroke:none"
                         id="path1219" /></g></g></g></g></g></g></g></g></g><g
       id="g1241"><g
         id="g1243" /><g
         id="g1305"><g
           clip-path="url(#clipPath1247)"
           id="g1303"><g
             id="g1301"><g
               clip-path="url(#clipPath1251)"
               id="g1299"><g
                 id="g1297"><g
                   id="g1289" /><g
                   mask="url(#mask1267)"
                   id="g1295"><g
                     id="g1293"><path
                       d="m 356.838,185.507 c 0,-41.005 -33.241,-74.246 -74.247,-74.246 -41.005,0 -74.246,33.241 -74.246,74.246 0,41.006 33.241,74.246 74.246,74.246 41.006,0 74.247,-33.24 74.247,-74.246"
                       style="fill:url(#linearGradient1287);stroke:none"
                       id="path1291" /></g></g></g></g></g></g></g></g><g
       id="g1307"><g
         id="g1309" /><g
         id="g1371"><g
           clip-path="url(#clipPath1313)"
           id="g1369"><g
             id="g1367"><g
               clip-path="url(#clipPath1317)"
               id="g1365"><g
                 id="g1363"><g
                   id="g1355" /><g
                   mask="url(#mask1333)"
                   id="g1361"><g
                     id="g1359"><path
                       d="m 580,75.507 c 0,-25.078 -20.33,-45.408 -45.408,-45.408 -25.079,0 -45.409,20.33 -45.409,45.408 0,25.079 20.33,45.409 45.409,45.409 25.078,0 45.408,-20.33 45.408,-45.409"
                       style="fill:url(#linearGradient1353);stroke:none"
                       id="path1357" /></g></g></g></g></g></g></g></g><g
       id="g1397"><g
         id="g1399"
         clip-path="url(#clipPath1403)"><g
           id="g1405"><g
             id="g1407"><path
               d="m 693.319,80.506 c 0,-10.355 8.394,-18.749 18.748,-18.749 v 0 c 10.355,0 18.749,8.394 18.749,18.749 v 0 c 0,10.354 -8.394,18.749 -18.749,18.749 v 0 c -10.354,0 -18.748,-8.395 -18.748,-18.749"
               style="fill:url(#linearGradient1413);stroke:none"
               id="path1415" /></g></g></g></g><g
       id="g1417"><g
         id="g1419"
         clip-path="url(#clipPath1423)"><g
           id="g1425"><g
             id="g1427"><path
               d="m 584,279 c 0,-3.314 2.687,-5.999 6,-5.999 v 0 c 3.313,0 5.999,2.685 5.999,5.999 v 0 c 0,3.314 -2.686,5.999 -5.999,5.999 v 0 c -3.313,0 -6,-2.685 -6,-5.999"
               style="fill:url(#linearGradient1433);stroke:none"
               id="path1435" /></g></g></g></g><g
       id="g1437"><g
         id="g1439"
         clip-path="url(#clipPath1443)"><g
           id="g1445"><g
             id="g1447"><path
               d="m 190.082,286.26 c 0,-10.355 8.394,-18.748 18.749,-18.748 v 0 c 10.355,0 18.749,8.393 18.749,18.748 v 0 c 0,10.355 -8.394,18.749 -18.749,18.749 v 0 c -10.355,0 -18.749,-8.394 -18.749,-18.749"
               style="fill:url(#linearGradient1455);stroke:none"
               id="path1457" /></g></g></g></g><g
       id="g1459"><g
         id="g1461"
         clip-path="url(#clipPath1465)"><g
           id="g1467"><g
             id="g1469"><path
               d="m 144.082,50.26 c 0,-10.355 8.394,-18.749 18.749,-18.749 v 0 c 10.355,0 18.749,8.394 18.749,18.749 v 0 c 0,10.355 -8.394,18.748 -18.749,18.748 v 0 c -10.355,0 -18.749,-8.393 -18.749,-18.748"
               style="fill:url(#linearGradient1477);stroke:none"
               id="path1479" /></g></g></g></g><g
       id="g1481"><g
         id="g1483"
         clip-path="url(#clipPath1487)"><g
           id="g1489"><g
             id="g1491"><path
               d="m 736.069,45.245 c 0,-8.613 5.807,-15.869 13.72,-18.067 v 0 l 0.034,36.145 c -7.93,-2.186 -13.754,-9.452 -13.754,-18.078"
               style="fill:url(#linearGradient1497);stroke:none"
               id="path1499" /></g></g></g></g><g
       id="g1501"><g
         id="g1503"
         clip-path="url(#clipPath1507)"><g
           id="g1509"><g
             id="g1511"><path
               d="M 0.113,368.332 0.042,294.165 c 0.917,-0.067 1.841,-0.102 2.775,-0.102 v 0 c 20.536,0 37.183,16.648 37.183,37.183 v 0 c 0,20.535 -16.647,37.182 -37.183,37.182 v 0 c -0.91,0 -1.811,-0.032 -2.704,-0.096"
               style="fill:url(#linearGradient1517);stroke:none"
               id="path1519" /></g></g></g></g><g
       id="g1521"><g
         id="g1523"
         clip-path="url(#clipPath1527)"><g
           id="g1529"><g
             id="g1531"><path
               d="m 533.001,249 c 0,-7.455 6.044,-13.499 13.5,-13.499 v 0 c 7.455,0 13.499,6.044 13.499,13.499 v 0 c 0,7.456 -6.044,13.499 -13.499,13.499 v 0 c -7.456,0 -13.5,-6.043 -13.5,-13.499"
               style="fill:url(#linearGradient1539);stroke:none"
               id="path1541" /></g></g></g></g><g
       id="g1543"><g
         id="g1545"
         clip-path="url(#clipPath1549)"><g
           id="g1551"><g
             id="g1553"><path
               d="m 518.001,211 c 0,-3.313 2.686,-6 5.999,-6 v 0 c 3.314,0 6,2.687 6,6 v 0 c 0,3.313 -2.686,6 -6,6 v 0 c -3.313,0 -5.999,-2.687 -5.999,-6"
               style="fill:url(#linearGradient1561);stroke:none"
               id="path1563" /></g></g></g></g><g
       id="g1565"><g
         id="g1567"
         clip-path="url(#clipPath1571)"><g
           id="g1573"><g
             id="g1575"><path
               d="m 229.251,250.25 c 0,-3.727 3.022,-6.749 6.749,-6.749 v 0 c 3.728,0 6.75,3.022 6.75,6.749 v 0 c 0,3.728 -3.022,6.75 -6.75,6.75 v 0 c -3.727,0 -6.749,-3.022 -6.749,-6.75"
               style="fill:url(#linearGradient1581);stroke:none"
               id="path1583" /></g></g></g></g><g
       id="g1585"><g
         id="g1587"
         clip-path="url(#clipPath1591)"><g
           id="g1593"><g
             id="g1595"><path
               d="m 726.001,351.904 c 0,-10.809 8.762,-19.571 19.572,-19.571 v 0 c 1.522,0 3.004,0.174 4.427,0.503 v 0 38.137 c -1.423,0.329 -2.905,0.503 -4.427,0.503 v 0 c -10.81,0 -19.572,-8.762 -19.572,-19.572"
               style="fill:url(#linearGradient1601);stroke:none"
               id="path1603" /></g></g></g></g><g
       id="g1605"><g
         id="g1607"
         clip-path="url(#clipPath1611)"><g
           id="g1613"><g
             id="g1615"><path
               d="m 263.955,159.885 c 0,-10.809 8.762,-19.571 19.571,-19.571 v 0 c 10.808,0 19.571,8.762 19.571,19.571 v 0 c 0,10.809 -8.763,19.571 -19.571,19.571 v 0 c -10.809,0 -19.571,-8.762 -19.571,-19.571"
               style="fill:url(#linearGradient1621);stroke:none"
               id="path1623" /></g></g></g></g></g></svg>
