<?xml version="1.0" encoding="UTF-8" standalone="no"?>
<svg
   xmlns:dc="http://purl.org/dc/elements/1.1/"
   xmlns:cc="http://creativecommons.org/ns#"
   xmlns:rdf="http://www.w3.org/1999/02/22-rdf-syntax-ns#"
   xmlns:svg="http://www.w3.org/2000/svg"
   xmlns="http://www.w3.org/2000/svg"
   xmlns:sodipodi="http://sodipodi.sourceforge.net/DTD/sodipodi-0.dtd"
   xmlns:inkscape="http://www.inkscape.org/namespaces/inkscape"
   version="1.1"
   id="svg383766"
   xml:space="preserve"
   width="1000"
   height="666.66669"
   viewBox="0 0 1000 666.66669"
   sodipodi:docname="4721187.svg"
   inkscape:version="1.0 (4035a4fb49, 2020-05-01)"><metadata
     id="metadata383772"><rdf:RDF><cc:Work
         rdf:about=""><dc:format>image/svg+xml</dc:format><dc:type
           rdf:resource="http://purl.org/dc/dcmitype/StillImage" /><dc:title /></cc:Work></rdf:RDF></metadata><defs
     id="defs383770"><clipPath
       clipPathUnits="userSpaceOnUse"
       id="clipPath383782"><path
         d="M 0,0 H 750 V 500 H 0 Z"
         id="path383780" /></clipPath><linearGradient
       x1="0"
       y1="0"
       x2="1"
       y2="0"
       gradientUnits="userSpaceOnUse"
       gradientTransform="matrix(741.07452,-504.04984,-504.04984,-741.07452,5.2806945,501.46857)"
       spreadMethod="pad"
       id="linearGradient383792"><stop
         style="stop-opacity:1;stop-color:#51299f"
         offset="0"
         id="stop383788" /><stop
         style="stop-opacity:1;stop-color:#001270"
         offset="1"
         id="stop383790" /></linearGradient><clipPath
       clipPathUnits="userSpaceOnUse"
       id="clipPath383802"><path
         d="m 661.635,500 c 0.201,-1.455 0.304,-2.941 0.304,-4.451 v 0 c 0,-17.853 -14.472,-32.326 -32.325,-32.326 v 0 c -17.853,0 -32.326,14.473 -32.326,32.326 v 0 c 0,1.51 0.103,2.996 0.304,4.451 v 0 h -47.816 c -0.081,-1.473 -0.122,-2.958 -0.122,-4.451 v 0 c 0,-44.161 35.799,-79.96 79.96,-79.96 v 0 c 44.16,0 79.959,35.799 79.959,79.96 v 0 c 0,1.493 -0.041,2.978 -0.121,4.451 v 0 z"
         id="path383800" /></clipPath><linearGradient
       x1="0"
       y1="0"
       x2="1"
       y2="0"
       gradientUnits="userSpaceOnUse"
       gradientTransform="matrix(-82.495872,227.9886,227.9886,82.495872,700.98584,298.3028)"
       spreadMethod="pad"
       id="linearGradient383812"><stop
         style="stop-opacity:1;stop-color:#ffc431"
         offset="0"
         id="stop383808" /><stop
         style="stop-opacity:1;stop-color:#ff8300"
         offset="1"
         id="stop383810" /></linearGradient><clipPath
       clipPathUnits="userSpaceOnUse"
       id="clipPath383822"><path
         d="m 24.527,500 c 2.253,-4.314 5.191,-8.363 8.815,-11.988 v 0 L 240.369,280.985 c 19.16,-19.16 50.224,-19.16 69.384,0 v 0 L 516.78,488.012 c 3.624,3.625 6.562,7.674 8.815,11.988 v 0 z"
         id="path383820" /></clipPath><linearGradient
       x1="0"
       y1="0"
       x2="1"
       y2="0"
       gradientUnits="userSpaceOnUse"
       gradientTransform="matrix(-382.00003,518.00006,518.00006,382.00003,430.49338,311.93527)"
       spreadMethod="pad"
       id="linearGradient383832"><stop
         style="stop-opacity:1;stop-color:#51299f"
         offset="0"
         id="stop383828" /><stop
         style="stop-opacity:1;stop-color:#001270"
         offset="1"
         id="stop383830" /></linearGradient><clipPath
       clipPathUnits="userSpaceOnUse"
       id="clipPath383842"><path
         d="M 274.419,209.198 67.392,2.171 C 66.684,1.463 66.002,0.739 65.347,0 v 0 h 487.528 c -0.656,0.739 -1.338,1.463 -2.045,2.171 v 0 L 343.802,209.198 c -9.58,9.58 -22.136,14.371 -34.692,14.371 v 0 c -12.555,0 -25.111,-4.791 -34.691,-14.371"
         id="path383840" /></clipPath><linearGradient
       x1="0"
       y1="0"
       x2="1"
       y2="0"
       gradientUnits="userSpaceOnUse"
       gradientTransform="matrix(-461.99997,-516,-516,461.99997,501.21036,182.03259)"
       spreadMethod="pad"
       id="linearGradient383852"><stop
         style="stop-opacity:1;stop-color:#51299f"
         offset="0"
         id="stop383848" /><stop
         style="stop-opacity:1;stop-color:#001270"
         offset="1"
         id="stop383850" /></linearGradient><clipPath
       clipPathUnits="userSpaceOnUse"
       id="clipPath383862"><path
         d="m 581.572,176.755 c -19.159,-19.159 -19.159,-50.223 0,-69.382 v 0 L 688.945,0 H 750 v 345.183 z"
         id="path383860" /></clipPath><linearGradient
       x1="0"
       y1="0"
       x2="1"
       y2="0"
       gradientUnits="userSpaceOnUse"
       gradientTransform="matrix(-461.99997,-516,-516,461.99997,1015.3914,356.61743)"
       spreadMethod="pad"
       id="linearGradient383872"><stop
         style="stop-opacity:1;stop-color:#51299f"
         offset="0"
         id="stop383868" /><stop
         style="stop-opacity:1;stop-color:#001270"
         offset="1"
         id="stop383870" /></linearGradient><clipPath
       clipPathUnits="userSpaceOnUse"
       id="clipPath383882"><path
         d="M 0,500 V 153.598 c 13.169,-0.497 26.499,4.281 36.553,14.335 v 0 L 243.581,374.96 c 19.159,19.16 19.159,50.223 0,69.384 v 0 L 187.923,500 Z"
         id="path383880" /></clipPath><linearGradient
       x1="0"
       y1="0"
       x2="1"
       y2="0"
       gradientUnits="userSpaceOnUse"
       gradientTransform="matrix(493.16855,93.880699,93.880699,-493.16855,-244.17867,362.81488)"
       spreadMethod="pad"
       id="linearGradient383892"><stop
         style="stop-opacity:1;stop-color:#e001ff"
         offset="0"
         id="stop383888" /><stop
         style="stop-opacity:1;stop-color:#3239ff"
         offset="1"
         id="stop383890" /></linearGradient><clipPath
       clipPathUnits="userSpaceOnUse"
       id="clipPath383902"><path
         d="M 62.281,357.104 0,294.823 V 0 h 257.998 l 80.694,80.693 c 19.159,19.159 19.159,50.224 0,69.383 v 0 L 131.664,357.104 c -9.58,9.579 -22.136,14.369 -34.692,14.369 v 0 c -12.556,0 -25.111,-4.79 -34.691,-14.369"
         id="path383900" /></clipPath><linearGradient
       x1="0"
       y1="0"
       x2="1"
       y2="0"
       gradientUnits="userSpaceOnUse"
       gradientTransform="matrix(493.16855,93.880699,93.880699,-493.16855,-149.06738,68.547875)"
       spreadMethod="pad"
       id="linearGradient383914"><stop
         style="stop-opacity:1;stop-color:#ff2f7f"
         offset="0"
         id="stop383908" /><stop
         style="stop-opacity:1;stop-color:#ff2f7f"
         offset="0.27500507"
         id="stop383910" /><stop
         style="stop-opacity:1;stop-color:#ff9b36"
         offset="1"
         id="stop383912" /></linearGradient><clipPath
       clipPathUnits="userSpaceOnUse"
       id="clipPath383924"><path
         d="m 0,0 h 49.676 l 98.767,98.768 c 19.16,19.16 19.16,50.223 0,69.383 v 0 L 0,316.595 Z"
         id="path383922" /></clipPath><linearGradient
       x1="0"
       y1="0"
       x2="1"
       y2="0"
       gradientUnits="userSpaceOnUse"
       gradientTransform="matrix(493.16855,93.880699,93.880699,-493.16855,-339.31561,86.622841)"
       spreadMethod="pad"
       id="linearGradient383936"><stop
         style="stop-opacity:1;stop-color:#ff2f7f"
         offset="0"
         id="stop383930" /><stop
         style="stop-opacity:1;stop-color:#ff2f7f"
         offset="0.27500507"
         id="stop383932" /><stop
         style="stop-opacity:1;stop-color:#ff9b36"
         offset="1"
         id="stop383934" /></linearGradient><clipPath
       clipPathUnits="userSpaceOnUse"
       id="clipPath383946"><path
         d="M 231.227,88.787 142.44,0 h 222.862 l -88.788,88.787 c -6.253,6.253 -14.448,9.379 -22.643,9.379 v 0 c -8.195,0 -16.391,-3.126 -22.644,-9.379"
         id="path383944" /></clipPath><linearGradient
       x1="0"
       y1="0"
       x2="1"
       y2="0"
       gradientUnits="userSpaceOnUse"
       gradientTransform="matrix(321.89377,61.276436,61.276436,-321.89377,93.279465,-99.555084)"
       spreadMethod="pad"
       id="linearGradient383956"><stop
         style="stop-opacity:1;stop-color:#ffd531"
         offset="0"
         id="stop383952" /><stop
         style="stop-opacity:1;stop-color:#ff8300"
         offset="1"
         id="stop383954" /></linearGradient><clipPath
       clipPathUnits="userSpaceOnUse"
       id="clipPath383966"><path
         d="m 0,158.043 100.892,100.891 c 12.506,12.506 12.506,32.782 0,45.288 v 0 L 0,405.113 Z"
         id="path383964" /></clipPath><linearGradient
       x1="0"
       y1="0"
       x2="1"
       y2="0"
       gradientUnits="userSpaceOnUse"
       gradientTransform="matrix(321.89377,61.276436,61.276436,-321.89377,-217.47066,251.00726)"
       spreadMethod="pad"
       id="linearGradient383976"><stop
         style="stop-opacity:1;stop-color:#3239ff"
         offset="0"
         id="stop383972" /><stop
         style="stop-opacity:1;stop-color:#68c5ff"
         offset="1"
         id="stop383974" /></linearGradient><clipPath
       clipPathUnits="userSpaceOnUse"
       id="clipPath383986"><path
         d="M 406.083,500 325.03,418.947 c -21.226,-21.224 -21.226,-55.637 0,-76.862 v 0 l 3.51,-3.51 c 21.224,-21.225 55.637,-21.225 76.862,0 v 0 L 566.828,500 Z"
         id="path383984" /></clipPath><linearGradient
       x1="0"
       y1="0"
       x2="1"
       y2="0"
       gradientUnits="userSpaceOnUse"
       gradientTransform="matrix(-103.78065,526.90613,526.90613,-103.78065,581.20752,279.40939)"
       spreadMethod="pad"
       id="linearGradient383998"><stop
         style="stop-opacity:1;stop-color:#ff2f7f"
         offset="0"
         id="stop383992" /><stop
         style="stop-opacity:1;stop-color:#ff2f7f"
         offset="0.27500507"
         id="stop383994" /><stop
         style="stop-opacity:1;stop-color:#ff9b36"
         offset="1"
         id="stop383996" /></linearGradient><clipPath
       clipPathUnits="userSpaceOnUse"
       id="clipPath384008"><path
         d="m 470.476,500 -61.45,-61.45 c -21.226,-21.225 -21.226,-55.638 0,-76.863 v 0 l 3.509,-3.51 c 21.225,-21.225 55.638,-21.225 76.862,0 v 0 L 631.221,500 Z"
         id="path384006" /></clipPath><linearGradient
       x1="0"
       y1="0"
       x2="1"
       y2="0"
       gradientUnits="userSpaceOnUse"
       gradientTransform="matrix(64.496773,-395.98019,-395.98019,-64.496773,584.23474,740.99164)"
       spreadMethod="pad"
       id="linearGradient384020"><stop
         style="stop-opacity:1;stop-color:#ff2f7f"
         offset="0"
         id="stop384014" /><stop
         style="stop-opacity:1;stop-color:#ff2f7f"
         offset="0.27500507"
         id="stop384016" /><stop
         style="stop-opacity:1;stop-color:#ff9b36"
         offset="1"
         id="stop384018" /></linearGradient><clipPath
       clipPathUnits="userSpaceOnUse"
       id="clipPath384030"><path
         d="m 279.67,500 -2.784,-2.784 c -13.631,-13.631 -13.631,-35.729 0,-49.361 v 0 l 2.254,-2.253 c 13.631,-13.632 35.73,-13.632 49.361,0 v 0 L 382.9,500 Z"
         id="path384028" /></clipPath><linearGradient
       x1="0"
       y1="0"
       x2="1"
       y2="0"
       gradientUnits="userSpaceOnUse"
       gradientTransform="matrix(28.523233,300.24457,300.24457,-28.523233,382.09167,303.25674)"
       spreadMethod="pad"
       id="linearGradient384040"><stop
         style="stop-opacity:1;stop-color:#e001ff"
         offset="0"
         id="stop384036" /><stop
         style="stop-opacity:1;stop-color:#3239ff"
         offset="1"
         id="stop384038" /></linearGradient><clipPath
       clipPathUnits="userSpaceOnUse"
       id="clipPath384050"><path
         d="M 363.581,65.643 297.938,0 h 133.747 c 16.451,17.742 16.048,45.468 -1.207,62.722 v 0 l -2.92,2.921 c -8.834,8.834 -20.411,13.251 -31.989,13.251 v 0 c -11.577,0 -23.154,-4.417 -31.988,-13.251"
         id="path384048" /></clipPath><linearGradient
       x1="0"
       y1="0"
       x2="1"
       y2="0"
       gradientUnits="userSpaceOnUse"
       gradientTransform="matrix(86.380936,-438.5658,-438.5658,86.380936,217.25121,114.88931)"
       spreadMethod="pad"
       id="linearGradient384060"><stop
         style="stop-opacity:1;stop-color:#e001ff"
         offset="0"
         id="stop384056" /><stop
         style="stop-opacity:1;stop-color:#3239ff"
         offset="1"
         id="stop384058" /></linearGradient><clipPath
       clipPathUnits="userSpaceOnUse"
       id="clipPath384070"><path
         d="M 0,0 H 750 V 500 H 0 Z"
         id="path384068" /></clipPath><clipPath
       clipPathUnits="userSpaceOnUse"
       id="clipPath384078"><path
         d="M -16.9975,218.456 H 236.415 V -256.562 H -16.9975 Z"
         id="path384076" /></clipPath><clipPath
       clipPathUnits="userSpaceOnUse"
       id="clipPath384082"><path
         d="m 191.08,-11.551 c 0,-40.477 -32.814,-73.291 -73.292,-73.291 -40.478,0 -73.291,32.814 -73.291,73.291 0,40.479 32.813,73.292 73.291,73.292 40.478,0 73.292,-32.813 73.292,-73.292"
         id="path384080" /></clipPath><clipPath
       clipPathUnits="userSpaceOnUse"
       id="clipPath384162"><path
         d="M 615.214,579.556 H 868.627 V 104.538 H 615.214 Z"
         id="path384160" /></clipPath><clipPath
       clipPathUnits="userSpaceOnUse"
       id="clipPath384166"><path
         d="m 823.292,349.549 c 0,-40.477 -32.814,-73.291 -73.292,-73.291 -40.478,0 -73.292,32.814 -73.292,73.291 0,40.478 32.814,73.292 73.292,73.292 40.478,0 73.292,-32.814 73.292,-73.292"
         id="path384164" /></clipPath><clipPath
       clipPathUnits="userSpaceOnUse"
       id="clipPath384250"><path
         d="m 392.711,45.6666 h 91.333 v -91.3332 h -91.333 z"
         id="path384248" /></clipPath><clipPath
       clipPathUnits="userSpaceOnUse"
       id="clipPath384382"><path
         d="M 37.3259,277.102 H 128.659 V 185.769 H 37.3259 Z"
         id="path384380" /></clipPath><clipPath
       clipPathUnits="userSpaceOnUse"
       id="clipPath384398"><path
         d="m 136.129,204.338 h 18.569 v -18.569 h -18.569 z"
         id="path384396" /></clipPath><clipPath
       clipPathUnits="userSpaceOnUse"
       id="clipPath384414"><path
         d="m 350.852,421.678 h 28.481 v -28.481 h -28.481 z"
         id="path384412" /></clipPath><clipPath
       clipPathUnits="userSpaceOnUse"
       id="clipPath384430"><path
         d="m 236.746,14.2406 h 28.482 v -28.4812 h -28.482 z"
         id="path384428" /></clipPath><clipPath
       clipPathUnits="userSpaceOnUse"
       id="clipPath384446"><path
         d="m 145.413,547.715 h 91.333 v -91.333 h -91.333 z"
         id="path384444" /></clipPath></defs><sodipodi:namedview
     inkscape:document-rotation="0"
     pagecolor="#ffffff"
     bordercolor="#666666"
     borderopacity="1"
     objecttolerance="10"
     gridtolerance="10"
     guidetolerance="10"
     inkscape:pageopacity="0"
     inkscape:pageshadow="2"
     inkscape:window-width="2560"
     inkscape:window-height="1346"
     id="namedview383768"
     showgrid="false"
     inkscape:zoom="1.434"
     inkscape:cx="500"
     inkscape:cy="333.33334"
     inkscape:window-x="-11"
     inkscape:window-y="-11"
     inkscape:window-maximized="1"
     inkscape:current-layer="g383774" /><g
     id="g383774"
     inkscape:groupmode="layer"
     inkscape:label="4721187"
     transform="matrix(1.3333333,0,0,-1.3333333,0,666.66667)"><g
       id="g383784"><g
         id="g383786"><path
           d="M 0,0 H 750 V 500 H 0 Z"
           style="fill:url(#linearGradient383792);stroke:none"
           id="path383794" /></g></g><g
       id="g383796"><g
         id="g383798"
         clip-path="url(#clipPath383802)"><g
           id="g383804"><g
             id="g383806"><path
               d="m 661.635,500 c 0.201,-1.455 0.304,-2.941 0.304,-4.451 v 0 c 0,-17.853 -14.472,-32.326 -32.325,-32.326 v 0 c -17.853,0 -32.326,14.473 -32.326,32.326 v 0 c 0,1.51 0.103,2.996 0.304,4.451 v 0 h -47.816 c -0.081,-1.473 -0.122,-2.958 -0.122,-4.451 v 0 c 0,-44.161 35.799,-79.96 79.96,-79.96 v 0 c 44.16,0 79.959,35.799 79.959,79.96 v 0 c 0,1.493 -0.041,2.978 -0.121,4.451 v 0 z"
               style="fill:url(#linearGradient383812);stroke:none"
               id="path383814" /></g></g></g></g><g
       clip-path="url(#clipPath383822)"
       id="g383818"><g
         id="g383824"><g
           id="g383826"><path
             id="path383834"
             style="fill:url(#linearGradient383832);stroke:none"
             d="m 24.527,500 c 2.253,-4.314 5.191,-8.363 8.815,-11.988 v 0 L 240.369,280.985 c 19.16,-19.16 50.224,-19.16 69.384,0 v 0 L 516.78,488.012 c 3.624,3.625 6.562,7.674 8.815,11.988 v 0 z" /></g></g></g><g
       id="g383836"><g
         id="g383838"
         clip-path="url(#clipPath383842)"><g
           id="g383844"><g
             id="g383846"><path
               d="M 274.419,209.198 67.392,2.171 C 66.684,1.463 66.002,0.739 65.347,0 v 0 h 487.528 c -0.656,0.739 -1.338,1.463 -2.045,2.171 v 0 L 343.802,209.198 c -9.58,9.58 -22.136,14.371 -34.692,14.371 v 0 c -12.555,0 -25.111,-4.791 -34.691,-14.371"
               style="fill:url(#linearGradient383852);stroke:none"
               id="path383854" /></g></g></g></g><g
       id="g383856"><g
         id="g383858"
         clip-path="url(#clipPath383862)"><g
           id="g383864"><g
             id="g383866"><path
               d="m 581.572,176.755 c -19.159,-19.159 -19.159,-50.223 0,-69.382 v 0 L 688.945,0 H 750 v 345.183 z"
               style="fill:url(#linearGradient383872);stroke:none"
               id="path383874" /></g></g></g></g><g
       clip-path="url(#clipPath383882)"
       id="g383878"><g
         id="g383884"><g
           id="g383886"><path
             id="path383894"
             style="fill:url(#linearGradient383892);stroke:none"
             d="M 0,500 V 153.598 c 13.169,-0.497 26.499,4.281 36.553,14.335 v 0 L 243.581,374.96 c 19.159,19.16 19.159,50.223 0,69.384 v 0 L 187.923,500 Z" /></g></g></g><g
       id="g383896"><g
         id="g383898"
         clip-path="url(#clipPath383902)"><g
           id="g383904"><g
             id="g383906"><path
               d="M 62.281,357.104 0,294.823 V 0 h 257.998 l 80.694,80.693 c 19.159,19.159 19.159,50.224 0,69.383 v 0 L 131.664,357.104 c -9.58,9.579 -22.136,14.369 -34.692,14.369 v 0 c -12.556,0 -25.111,-4.79 -34.691,-14.369"
               style="fill:url(#linearGradient383914);stroke:none"
               id="path383916" /></g></g></g></g><g
       id="g383918"><g
         id="g383920"
         clip-path="url(#clipPath383924)"><g
           id="g383926"><g
             id="g383928"><path
               d="m 0,0 h 49.676 l 98.767,98.768 c 19.16,19.16 19.16,50.223 0,69.383 v 0 L 0,316.595 Z"
               style="fill:url(#linearGradient383936);stroke:none"
               id="path383938" /></g></g></g></g><g
       id="g383940"><g
         id="g383942"
         clip-path="url(#clipPath383946)"><g
           id="g383948"><g
             id="g383950"><path
               d="M 231.227,88.787 142.44,0 h 222.862 l -88.788,88.787 c -6.253,6.253 -14.448,9.379 -22.643,9.379 v 0 c -8.195,0 -16.391,-3.126 -22.644,-9.379"
               style="fill:url(#linearGradient383956);stroke:none"
               id="path383958" /></g></g></g></g><g
       style="fill:#00ffff"
       id="g383960"><g
         style="fill:#00ffff"
         id="g383962"
         clip-path="url(#clipPath383966)"><g
           style="fill:#00ffff"
           id="g383968"><g
             style="fill:#00ffff"
             id="g383970"><path
               d="m 0,158.043 100.892,100.891 c 12.506,12.506 12.506,32.782 0,45.288 v 0 L 0,405.113 Z"
               style="fill:#00ffff;stroke:none"
               id="path383978" /></g></g></g></g><g
       id="g383980"><g
         id="g383982"
         clip-path="url(#clipPath383986)"><g
           id="g383988"><g
             id="g383990"><path
               d="M 406.083,500 325.03,418.947 c -21.226,-21.224 -21.226,-55.637 0,-76.862 v 0 l 3.51,-3.51 c 21.224,-21.225 55.637,-21.225 76.862,0 v 0 L 566.828,500 Z"
               style="fill:url(#linearGradient383998);stroke:none"
               id="path384000" /></g></g></g></g><g
       id="g384002"><g
         id="g384004"
         clip-path="url(#clipPath384008)"><g
           id="g384010"><g
             id="g384012"><path
               d="m 470.476,500 -61.45,-61.45 c -21.226,-21.225 -21.226,-55.638 0,-76.863 v 0 l 3.509,-3.51 c 21.225,-21.225 55.638,-21.225 76.862,0 v 0 L 631.221,500 Z"
               style="fill:url(#linearGradient384020);stroke:none"
               id="path384022" /></g></g></g></g><g
       id="g384024"><g
         id="g384026"
         clip-path="url(#clipPath384030)"><g
           id="g384032"><g
             id="g384034"><path
               d="m 279.67,500 -2.784,-2.784 c -13.631,-13.631 -13.631,-35.729 0,-49.361 v 0 l 2.254,-2.253 c 13.631,-13.632 35.73,-13.632 49.361,0 v 0 L 382.9,500 Z"
               style="fill:url(#linearGradient384040);stroke:none"
               id="path384042" /></g></g></g></g><g
       id="g384044"><g
         id="g384046"
         clip-path="url(#clipPath384050)"><g
           id="g384052"><g
             id="g384054"><path
               d="M 363.581,65.643 297.938,0 h 133.747 c 16.451,17.742 16.048,45.468 -1.207,62.722 v 0 l -2.92,2.921 c -8.834,8.834 -20.411,13.251 -31.989,13.251 v 0 c -11.577,0 -23.154,-4.417 -31.988,-13.251"
               style="fill:url(#linearGradient384060);stroke:none"
               id="path384062" /></g></g></g></g></g></svg>
