<?xml version="1.0" encoding="UTF-8" standalone="no"?>
<svg
   xmlns:dc="http://purl.org/dc/elements/1.1/"
   xmlns:cc="http://creativecommons.org/ns#"
   xmlns:rdf="http://www.w3.org/1999/02/22-rdf-syntax-ns#"
   xmlns:svg="http://www.w3.org/2000/svg"
   xmlns="http://www.w3.org/2000/svg"
   xmlns:sodipodi="http://sodipodi.sourceforge.net/DTD/sodipodi-0.dtd"
   xmlns:inkscape="http://www.inkscape.org/namespaces/inkscape"
   inkscape:version="1.0 (4035a4fb49, 2020-05-01)"
   sodipodi:docname="4758487.svg"
   viewBox="0 0 1000 666.66669"
   height="666.66669"
   width="1000"
   xml:space="preserve"
   id="svg10288"
   version="1.1"><metadata
     id="metadata10294"><rdf:RDF><cc:Work
         rdf:about=""><dc:format>image/svg+xml</dc:format><dc:type
           rdf:resource="http://purl.org/dc/dcmitype/StillImage" /><dc:title></dc:title></cc:Work></rdf:RDF></metadata><defs
     id="defs10292"><clipPath
       id="clipPath10306"
       clipPathUnits="userSpaceOnUse"><path
         id="path10304"
         d="M 0,0 H 750 V 500 H 0 Z" /></clipPath><clipPath
       id="clipPath10314"
       clipPathUnits="userSpaceOnUse"><path
         id="path10312"
         d="M -12.166,515.6 H 831.187 V -52.9467 H -12.166 Z" /></clipPath><clipPath
       id="clipPath10338"
       clipPathUnits="userSpaceOnUse"><path
         id="path10336"
         d="M -75.6617,274.198 H 311.94 V -48.6207 H -75.6617 Z" /></clipPath><clipPath
       id="clipPath10354"
       clipPathUnits="userSpaceOnUse"><path
         id="path10352"
         d="M 471.801,559.513 H 844.97 V 200.567 H 471.801 Z" /></clipPath><clipPath
       id="clipPath10370"
       clipPathUnits="userSpaceOnUse"><path
         id="path10368"
         d="M 180.808,232.481 H 301.393 V 118.058 H 180.808 Z" /></clipPath><clipPath
       id="clipPath10386"
       clipPathUnits="userSpaceOnUse"><path
         id="path10384"
         d="M -7.81252,550.486 H 423.573 V 277.228 H -7.81252 Z" /></clipPath><clipPath
       id="clipPath10402"
       clipPathUnits="userSpaceOnUse"><path
         id="path10400"
         d="M 452.295,198.123 H 827.648 V -58.669 H 452.295 Z" /></clipPath><clipPath
       id="clipPath10422"
       clipPathUnits="userSpaceOnUse"><path
         id="path10420"
         d="M -13.9058,550.486 H 295.698 V 389.26 H -13.9058 Z" /></clipPath><clipPath
       id="clipPath10438"
       clipPathUnits="userSpaceOnUse"><path
         id="path10436"
         d="M 402.705,82.8311 H 831.187 V -37.3924 H 402.705 Z" /></clipPath><clipPath
       id="clipPath10454"
       clipPathUnits="userSpaceOnUse"><path
         id="path10452"
         d="M 552.354,556.469 H 784.322 V 297.766 H 552.354 Z" /></clipPath><clipPath
       id="clipPath10470"
       clipPathUnits="userSpaceOnUse"><path
         id="path10468"
         d="M -90.9392,210.272 H 326.286 V -22.7925 H -90.9392 Z" /></clipPath></defs><sodipodi:namedview
     inkscape:current-layer="g10296"
     inkscape:window-maximized="1"
     inkscape:window-y="-11"
     inkscape:window-x="-11"
     inkscape:cy="361.22735"
     inkscape:cx="500"
     inkscape:zoom="1.434"
     showgrid="false"
     id="namedview10290"
     inkscape:window-height="1346"
     inkscape:window-width="2560"
     inkscape:pageshadow="2"
     inkscape:pageopacity="0"
     guidetolerance="10"
     gridtolerance="10"
     objecttolerance="10"
     borderopacity="1"
     bordercolor="#666666"
     pagecolor="#ffffff" /><g
     transform="matrix(1.3333333,0,0,-1.3333333,0,666.66667)"
     inkscape:label="4758487"
     inkscape:groupmode="layer"
     id="g10296"><path
       id="path10298"
       style="fill:#8500ff;fill-opacity:1;fill-rule:nonzero;stroke:none"
       d="M 0,0 H 750 V 500 H 0 Z" /><g
       style="fill:#ff00ff"
       id="g10332"><g
         style="fill:#ff00ff"
         id="g10334" /><g
         style="fill:#ff00ff"
         id="g10346"><g
           style="fill:#ff00ff"
           id="g10344"
           clip-path="url(#clipPath10338)"><g
             style="fill:#ff00ff"
             id="g10342"
             transform="translate(304.683,-48.6211)"><path
               id="path10340"
               style="fill:#ff00ff;fill-opacity:1;fill-rule:nonzero;stroke:none"
               d="m 0,0 c 11.476,29.437 9.233,63.906 -5.96,91.608 -17.553,32.002 -50.592,52.542 -86.923,55.513 -37.368,3.055 -71.699,2.81 -93.978,39.702 -17.744,29.385 -11.758,63.911 -34.86,92.488 -32.636,40.371 -99.402,57.4 -145.706,30.462 -20.495,-11.922 -10.359,-40.096 -10.765,-60.615 0.39,-16.59 1.341,-33.176 3.631,-49.61 V 0.603 Z" /></g></g></g></g><g
       style="fill:#ff00ff"
       id="g10348"><g
         style="fill:#ff00ff"
         id="g10350" /><g
         style="fill:#ff00ff"
         id="g10362"><g
           style="fill:#ff00ff"
           id="g10360"
           clip-path="url(#clipPath10354)"><g
             style="fill:#ff00ff"
             id="g10358"
             transform="translate(819.5072,200.5752)"><path
               id="path10356"
               style="fill:#ff00ff;fill-opacity:1;fill-rule:nonzero;stroke:none"
               d="m 0,0 c -37.018,0.746 -77.833,10.721 -98.244,41.612 -8.582,12.988 -12.639,28.471 -14.75,43.895 -4.488,32.79 -0.806,66.476 -7.408,98.908 -6.603,32.431 -27.605,65.567 -60.16,71.533 -35.313,6.471 -69.537,-20.859 -105.268,-17.37 -25.217,2.462 -47.476,21.176 -56.624,44.804 -9.148,23.627 -5.893,51.131 6.238,73.375 -0.376,-0.377 0.225,2.523 -0.151,2.147 H 19.738 l 1.799,-337.65 c 4.842,-4.685 5.119,-3.586 1.306,-9.14 C 16.944,3.525 10.416,-0.21 0,0" /></g></g></g></g><g
       style="fill:#ff00ff"
       id="g10364"><g
         style="fill:#ff00ff"
         id="g10366" /><g
         style="fill:#ff00ff"
         id="g10378"><g
           style="fill:#ff00ff"
           id="g10376"
           clip-path="url(#clipPath10370)"><g
             style="fill:#ff00ff"
             id="g10374"
             transform="translate(181.8685,170.1865)"><path
               id="path10372"
               style="fill:#ff00ff;fill-opacity:1;fill-rule:nonzero;stroke:none"
               d="m 0,0 c -2.919,-16.426 -0.198,-33.494 13.026,-43.798 13.875,-10.81 33.742,-9.425 49.781,-5.193 4.231,1.117 8.396,2.498 12.455,4.134 16.229,6.541 30.547,18.51 38.27,34.212 7.723,15.702 8.282,35.15 -0.085,50.518 C 94.145,75.329 43.802,63.673 20.136,39.756 17.811,37.406 15.645,34.898 13.663,32.252 7.347,23.814 2.148,12.081 0,0" /></g></g></g></g><g
       transform="translate(0.52301247,-4.1841003)"
       style="fill:#ff2a2a;fill-opacity:1;stroke-width:0;stroke-miterlimit:4;stroke-dasharray:none"
       id="g10380"><g
         style="fill:#ff2a2a;fill-opacity:1;stroke-width:0;stroke-miterlimit:4;stroke-dasharray:none"
         id="g10382" /><g
         style="fill:#ff2a2a;fill-opacity:1;stroke-width:0;stroke-miterlimit:4;stroke-dasharray:none"
         id="g10394"><g
           style="fill:#ff2a2a;fill-opacity:1;stroke-width:0;stroke-miterlimit:4;stroke-dasharray:none"
           id="g10392"
           clip-path="url(#clipPath10386)"><g
             style="fill:#ff2a2a;fill-opacity:1;stroke-width:0;stroke-miterlimit:4;stroke-dasharray:none"
             id="g10390"
             transform="translate(370.6586,550.4863)"><path
               id="path10388"
               style="fill:#ff2a2a;fill-opacity:1;fill-rule:nonzero;stroke:none;stroke-width:0;stroke-miterlimit:4;stroke-dasharray:none"
               d="m 0,0 c 10.641,-23.603 45.03,-31.132 51.747,-56.136 8.114,-30.21 -27.924,-52.338 -50.975,-63.13 -21.97,-10.287 -45.614,-16.913 -66.889,-28.569 -31.305,-17.152 -42.408,-47.2 -64.746,-72.861 -20.301,-23.321 -45.668,-43.892 -75.851,-50.602 -47.994,-10.669 -97.527,23.395 -98.092,73.367 -0.294,26.038 13.952,54.291 4.141,79.632 -11.755,30.36 -48.856,32.646 -74.883,21.278 -0.764,0 -2.159,-2.366 -2.923,-2.366 v 92.886 z" /></g></g></g></g><g
       style="fill:#ff00ff"
       id="g10396"><g
         style="fill:#ff00ff"
         id="g10398" /><g
         style="fill:#ff00ff"
         id="g10410"><g
           style="fill:#ff00ff"
           id="g10408"
           clip-path="url(#clipPath10402)"><g
             style="fill:#ff00ff"
             id="g10406"
             transform="translate(821.6996,183.5127)"><path
               id="path10404"
               style="fill:#ff00ff;fill-opacity:1;fill-rule:nonzero;stroke:none"
               d="m 0,0 c -12.208,-12.41 -30.912,-15.58 -48.313,-16.092 -26.743,-0.787 -50.383,6.293 -75.687,14.683 -19.59,6.494 -39.369,12.989 -59.885,15.233 -20.515,2.243 -42.089,-0.056 -60.031,-10.256 -24.338,-13.834 -38.644,-44.509 -32.883,-71.974 3.168,-15.105 8.726,-30.195 6.927,-45.524 -1.886,-16.073 -11.831,-30.325 -24.207,-40.753 -16.671,-14.046 -37.47,-20.705 -53.844,-35.073 -7.512,-6.592 -14.638,-14.356 -18.491,-23.718 -1.134,-2.755 -6.02,-27.849 -0.172,-27.863 0.002,0 372.534,-0.845 372.534,-0.845 z" /></g></g></g></g><g
       transform="translate(10.8383,15.3657)"
       style="fill:#ff00ff"
       id="g10416"><g
         style="fill:#ff00ff"
         id="g10418" /><g
         style="fill:#ff00ff"
         id="g10430"><g
           style="fill:#ff00ff"
           id="g10428"
           clip-path="url(#clipPath10422)"><g
             style="fill:#ff00ff"
             id="g10426"
             transform="translate(295.6977,550.4863)"><path
               id="path10424"
               style="fill:#ff00ff;fill-opacity:1;fill-rule:nonzero;stroke:none"
               d="m 0,0 c -17.572,-5.101 -30.563,-20.79 -36.743,-38.013 -7.758,-21.621 -3.06,-40.344 -4.474,-62.536 -0.825,-12.965 -4.099,-26.04 -11.41,-36.779 -17.936,-26.345 -57.313,-30.974 -82.953,-13.56 -24.048,16.333 -33.988,46.226 -54.875,65.771 -29.969,28.044 -76.143,28.3 -114.366,21.175 -0.682,0 -1.033,-1.91 -1.715,-1.91 v 23.537 c -1.023,0 -2.045,-1.044 -3.068,-1.044 h 217.709 c -1.469,0.462 -2.991,2.631 -4.46,3.094 C -66.832,-24.716 -30.648,-13.196 0,0" /></g></g></g></g><path
       id="path11226"
       d="m 297.33264,11.059303 c -37.91371,3.0213 -74.04636,12.373732 -95.63897,24.7548 -19.01015,10.900313 -31.7188,23.622983 -55.91288,55.974602 -26.08448,34.879395 -37.29084,46.868475 -54.515094,58.322745 -14.590684,9.70292 -33.534371,17.4737 -53.347285,21.88328 -9.070654,2.01877 -19.320032,3.34315 -32.9497916,4.25762 -19.1582174,1.2854 -25.1058184,2.1731 -33.6926754,5.02876 -16.305963,5.42273 -30.002728,18.07433 -36.603131,33.81004 -2.729366,6.50695 -4.162452,31.45852 -2.230271,38.83145 2.386947,9.10826 6.742019,14.07917 16.590847,18.93694 20.884594,10.30096 44.5309312,12.98812 70.05657,7.96122 30.899456,-6.08521 59.429437,-23.99789 74.781289,-46.95179 6.186002,-9.24923 10.646622,-21.02599 14.888612,-39.30829 5.78545,-24.93447 7.64366,-31.14016 12.05884,-40.27197 4.16525,-8.61485 8.58622,-14.88873 15.14993,-21.4995 9.78883,-9.85902 19.1133,-15.0928 33.8674,-19.00963 9.44431,-2.50723 17.39055,-3.60377 38.06146,-5.25231 15.68346,-1.25078 21.82434,-2.11345 29.63891,-4.16369 38.07488,-9.989363 67.6529,-39.146664 77.21926,-76.1209 1.53676,-5.93961 2.97032,-13.821172 2.9728,-16.344142 l 0.001,-1.699793 -5.62239,0.06555 c -3.09231,0.03607 -9.7411,0.393818 -14.7751,0.79497 z"
       style="fill:#ff2a2a;fill-opacity:1;stroke:#6d6d32;stroke-width:0;stroke-miterlimit:4;stroke-dasharray:none" /><path
       id="path11228"
       d="m 203.45189,121.86362 c -13.66563,2.58227 -23.80621,10.6686 -28.29189,22.5606 -6.86894,18.21027 -1.04933,44.56024 13.94483,63.13918 17.33035,21.47367 51.0264,32.54727 74.37598,24.44235 13.03463,-4.52448 23.16227,-15.99171 27.06586,-30.64591 1.398,-5.24816 1.94004,-16.13292 1.08085,-21.70503 -3.49977,-22.69722 -20.25471,-42.1911 -44.53566,-51.81594 -14.51406,-5.7533 -32.08364,-8.15895 -43.63997,-5.97525 z"
       style="fill:#ff2a2a;fill-opacity:1;stroke:#6d6d32;stroke-width:0;stroke-miterlimit:4;stroke-dasharray:none" /><path
       id="path11230"
       d="m 174.9477,378.98424 c -9.7503,1.11592 -20.04151,4.95981 -28.09043,10.49212 -5.00498,3.44011 -12.83006,11.1058 -18.05668,17.68892 -2.16964,2.73274 -7.53672,10.2631 -11.92683,16.73414 -13.64635,20.11473 -20.358149,28.13323 -29.610066,35.37476 -20.810888,16.28879 -50.701947,22.95341 -87.52519999,19.51495 -11.04108601,-1.03099 -21.05892601,-2.72461 -22.06456101,-3.73025 -0.915314,-0.91531 -0.947992,-0.56939 -0.947992,10.03527 v 10.98327 H 84.054519 191.38308 l -1.81078,1.51802 c -0.99593,0.83491 -1.69311,1.63705 -1.54928,1.78253 0.99113,1.00252 17.71416,8.81471 28.83042,13.46817 9.80737,4.10554 51.8463,20.40672 52.06434,20.18868 0.10513,-0.10512 -0.75263,-0.84517 -1.90613,-1.64454 -3.11319,-2.15744 -9.45548,-8.9982 -12.43169,-13.40874 -5.42662,-8.04192 -9.68807,-18.25728 -11.35442,-27.21831 -1.41871,-7.62932 -1.82201,-16.36601 -1.49121,-32.30387 0.46267,-22.29174 -0.80986,-32.60696 -5.52134,-44.75642 -9.23577,-23.81613 -33.98431,-37.841 -61.26529,-34.7187 z"
       style="fill:#0000ff;fill-opacity:1;stroke:#6d6d32;stroke-width:0;stroke-miterlimit:4;stroke-dasharray:none" /><path
       id="path11234"
       d="m 759.15272,285.61367 c -8.0244,2.71993 -11.7675,5.39035 -25.60935,18.27025 -10.54763,9.81461 -14.41907,12.81201 -20.69348,16.02154 -8.9044,4.55487 -17.99008,6.85994 -30.90652,7.84112 -9.82337,0.74622 -21.57452,0.19169 -39.94545,-1.88502 -18.96876,-2.14427 -25.48147,-2.53617 -37.01274,-2.22723 -11.80865,0.31638 -19.60961,1.556 -27.4021,4.35436 -20.31142,7.29407 -34.17623,23.53613 -38.44521,45.03701 -1.24566,6.27376 -1.2459,19.11718 -5e-4,25.38953 3.35634,16.90374 9.9781,28.61738 28.52015,50.45106 14.15483,16.66761 18.49414,23.51093 22.47444,35.44335 2.9616,8.87848 3.77668,20.53419 1.93842,27.71966 -3.29151,12.86612 -13.11939,23.76138 -25.46622,28.23205 l -3.16427,1.14576 27.59729,0.34771 c 42.66256,0.53752 177.52976,0.42779 177.52976,-0.14444 0,-0.27068 -0.23535,-0.63761 -0.52297,-0.81539 -0.34635,-0.21407 -0.52305,-43.58981 -0.52305,-128.43045 V 284.25733 l -2.22278,0.0134 c -1.22257,0.007 -3.98797,0.61169 -6.14542,1.34296 z"
       style="fill:#0000ff;fill-opacity:1;stroke:#6d6d32;stroke-width:0;stroke-miterlimit:4;stroke-dasharray:none" /><path
       id="path11236"
       d="m 357.95944,13.006292 c 0.59878,0.968835 1.08869,2.106435 1.08869,2.52798 0,1.17582 4.01667,15.59904 6.33033,22.731195 12.92466,39.841974 55.93153,75.650673 105.70387,88.011943 14.95104,3.71318 27.22638,5.0133 43.25395,4.58115 31.03584,-0.8368 52.98645,-8.04666 88.69721,-29.13335 27.02773,-15.959481 32.89934,-18.915516 46.6564,-23.488919 31.40422,-10.440045 69.11241,-11.142878 113.74454,-2.120063 5.66295,1.144831 10.66425,2.222708 11.11395,2.395291 0.73545,0.282195 0.81772,-2.534671 0.81772,-27.983454 V 22.230827 l 1.60755,-3.402338 c 1.197,-2.533395 2.19195,-3.804435 3.89588,-4.976775 1.25865,-0.86595 2.43202,-1.806765 2.60745,-2.0907 0.20977,-0.33933 -72.83348,-0.516247 -213.14356,-0.516247 H 356.87076 Z"
       style="fill:#0000ff;fill-opacity:1;stroke:#6d6d32;stroke-width:0;stroke-miterlimit:4;stroke-dasharray:none" /><path
       id="path11238"
       d="m 291.37152,-25.924682 c -9.92416,0.523958 -100.40974,5.094158 -201.079068,10.155998 -100.66932,5.06184 -183.075736,9.2512423 -183.125356,9.3097873 -0.0496,0.0585 2.10756,43.7649087 4.793757,97.1252657 3.104617,61.672141 4.771372,98.745821 4.574857,101.759021 -0.170025,2.60711 -0.14646,6.04223 0.05235,7.6336 0.33285,2.66407 0.520628,2.98284 2.368973,4.02167 l 2.007466,1.12826 0.346986,-1.43969 c 0.711915,-2.95381 5.041597,-11.08466 8.096752,-15.20514 10.330175,-13.93231 24.031034,-22.04423 42.134856,-24.94694 2.592333,-0.41565 10.832579,-1.23822 18.311659,-1.82794 16.9149116,-1.33372 24.843709,-2.27712 33.211298,-3.95163 21.658342,-4.33423 43.295921,-13.27693 59.100422,-24.4259 C 96.97154,122.96773 109.04087,109.89943 131.32492,80.184413 152.59483,51.8217 163.96095,39.251565 177.4332,29.191837 c 17.22943,-12.8652 38.21448,-21.1683908 69.25024,-27.4003584 21.12202,-4.2413026 41.59457,-6.2987402 62.77009,-6.3082277 l 11.54437,-0.00525 -0.98546,-3.7918431 c -1.0604,-4.0801198 -1.4851,-13.3496398 -0.76683,-16.7363998 l 0.41597,-1.961295 -5.12308,0.06705 c -2.81769,0.03698 -13.24284,0.49581 -23.167,1.019775 z"
       style="fill:#0000ff;fill-opacity:1;stroke:#6d6d32;stroke-width:0;stroke-miterlimit:4;stroke-dasharray:none" /></g></svg>
