<?xml version="1.0" encoding="UTF-8" standalone="no"?>
<svg
   xmlns:dc="http://purl.org/dc/elements/1.1/"
   xmlns:cc="http://creativecommons.org/ns#"
   xmlns:rdf="http://www.w3.org/1999/02/22-rdf-syntax-ns#"
   xmlns:svg="http://www.w3.org/2000/svg"
   xmlns="http://www.w3.org/2000/svg"
   xmlns:sodipodi="http://sodipodi.sourceforge.net/DTD/sodipodi-0.dtd"
   xmlns:inkscape="http://www.inkscape.org/namespaces/inkscape"
   version="1.1"
   id="svg833"
   xml:space="preserve"
   width="1000"
   height="666.66669"
   viewBox="0 0 1000 666.66669"
   sodipodi:docname="4814521.svg"
   inkscape:version="1.0.2 (e86c870879, 2021-01-15, custom)"><metadata
     id="metadata839"><rdf:RDF><cc:Work
         rdf:about=""><dc:format>image/svg+xml</dc:format><dc:type
           rdf:resource="http://purl.org/dc/dcmitype/StillImage" /><dc:title></dc:title></cc:Work></rdf:RDF></metadata><defs
     id="defs837"><clipPath
       clipPathUnits="userSpaceOnUse"
       id="clipPath849"><path
         d="M 0,0 H 750 V 500 H 0 Z"
         id="path847" /></clipPath><linearGradient
       x1="0"
       y1="0"
       x2="1"
       y2="0"
       gradientUnits="userSpaceOnUse"
       gradientTransform="matrix(625,625,625,-625,62.5,-62.5)"
       spreadMethod="pad"
       id="linearGradient859"><stop
         style="stop-opacity:1;stop-color:#ffe4a0"
         offset="0"
         id="stop855" /><stop
         style="stop-opacity:1;stop-color:#fff1d6"
         offset="1"
         id="stop857" /></linearGradient><clipPath
       clipPathUnits="userSpaceOnUse"
       id="clipPath869"><path
         d="M 0,366.606 V 276.401 L 116.117,160.283 277.338,321.503 116.117,482.724 Z"
         id="path867" /></clipPath><linearGradient
       x1="0"
       y1="0"
       x2="1"
       y2="0"
       gradientUnits="userSpaceOnUse"
       gradientTransform="matrix(322.4407,0,0,-322.4407,-45.102947,321.50323)"
       spreadMethod="pad"
       id="linearGradient879"><stop
         style="stop-opacity:1;stop-color:#033450"
         offset="0"
         id="stop875" /><stop
         style="stop-opacity:1;stop-color:#163d60"
         offset="1"
         id="stop877" /></linearGradient><clipPath
       clipPathUnits="userSpaceOnUse"
       id="clipPath889"><path
         d="M 98.841,500 277.338,321.503 438.557,482.724 421.281,500 Z"
         id="path887" /></clipPath><linearGradient
       x1="0"
       y1="0"
       x2="1"
       y2="0"
       gradientUnits="userSpaceOnUse"
       gradientTransform="matrix(380.94772,-58.507019,58.507019,-380.94772,57.610382,541.23059)"
       spreadMethod="pad"
       id="linearGradient899"><stop
         style="stop-opacity:1;stop-color:#674eae"
         offset="0"
         id="stop895" /><stop
         style="stop-opacity:1;stop-color:#958be2"
         offset="1"
         id="stop897" /></linearGradient><clipPath
       clipPathUnits="userSpaceOnUse"
       id="clipPath909"><path
         d="M 0,45.103 V 0 H 277.338 L 116.117,161.221 Z"
         id="path907" /></clipPath><linearGradient
       x1="0"
       y1="0"
       x2="1"
       y2="0"
       gradientUnits="userSpaceOnUse"
       gradientTransform="matrix(322.4407,0,0,-322.4407,-45.102947,0)"
       spreadMethod="pad"
       id="linearGradient919"><stop
         style="stop-opacity:1;stop-color:#ff7f15"
         offset="0"
         id="stop915" /><stop
         style="stop-opacity:1;stop-color:#ffc10b"
         offset="1"
         id="stop917" /></linearGradient><clipPath
       clipPathUnits="userSpaceOnUse"
       id="clipPath929"><path
         d="m 107.841,302.477 c 0,-98.581 79.915,-178.497 178.497,-178.497 v 0 c 98.58,0 178.496,79.916 178.496,178.497 v 0 c 0,98.581 -79.916,178.497 -178.496,178.497 v 0 c -98.582,0 -178.497,-79.916 -178.497,-178.497"
         id="path927" /></clipPath><linearGradient
       x1="0"
       y1="0"
       x2="1"
       y2="0"
       gradientUnits="userSpaceOnUse"
       gradientTransform="matrix(252.43256,252.43256,252.43256,-252.43256,160.12102,176.26051)"
       spreadMethod="pad"
       id="linearGradient939"><stop
         style="stop-opacity:1;stop-color:#ff4e64"
         offset="0"
         id="stop935" /><stop
         style="stop-opacity:1;stop-color:#ff797d"
         offset="1"
         id="stop937" /></linearGradient><clipPath
       clipPathUnits="userSpaceOnUse"
       id="clipPath949"><path
         d="M 10.311,137.324 C 10.311,66.637 67.615,9.333 138.302,9.333 v 0 c 70.687,0 127.991,57.304 127.991,127.991 v 0 c 0,70.687 -57.304,127.99 -127.991,127.99 v 0 c -70.687,0 -127.991,-57.303 -127.991,-127.99 m 33.212,0 c 0,52.345 42.434,94.779 94.779,94.779 v 0 c 52.345,0 94.778,-42.434 94.778,-94.779 v 0 c 0,-52.345 -42.433,-94.779 -94.778,-94.779 v 0 c -52.345,0 -94.779,42.434 -94.779,94.779"
         id="path947" /></clipPath><linearGradient
       x1="0"
       y1="0"
       x2="1"
       y2="0"
       gradientUnits="userSpaceOnUse"
       gradientTransform="matrix(181.0058,181.0058,181.0058,-181.0058,47.79929,46.820839)"
       spreadMethod="pad"
       id="linearGradient959"><stop
         style="stop-opacity:1;stop-color:#ff4e64"
         offset="0"
         id="stop955" /><stop
         style="stop-opacity:1;stop-color:#ffbc1b"
         offset="1"
         id="stop957" /></linearGradient><clipPath
       clipPathUnits="userSpaceOnUse"
       id="clipPath969"><path
         d="M 0,500 V 426.208 L 426.208,0 h 134.357 l -500,500 z"
         id="path967" /></clipPath><linearGradient
       x1="0"
       y1="0"
       x2="1"
       y2="0"
       gradientUnits="userSpaceOnUse"
       gradientTransform="matrix(669.55664,44.82624,-44.82624,-669.55664,-75.828041,212.02324)"
       spreadMethod="pad"
       id="linearGradient979"><stop
         style="stop-opacity:1;stop-color:#ff7f15"
         offset="0"
         id="stop975" /><stop
         style="stop-opacity:1;stop-color:#ffc10b"
         offset="1"
         id="stop977" /></linearGradient><clipPath
       clipPathUnits="userSpaceOnUse"
       id="clipPath989"><path
         d="M 0,0 H 723.413 V 500 H 0 Z"
         id="path987" /></clipPath><clipPath
       clipPathUnits="userSpaceOnUse"
       id="clipPath997"><path
         d="M -91.4275,483.839 H 508.353 v -599.78 H -91.4275 Z"
         id="path995" /></clipPath><clipPath
       clipPathUnits="userSpaceOnUse"
       id="clipPath1001"><path
         d="M 508.353,-82.145 -57.63,483.839 -91.428,450.042 474.556,-115.941 Z"
         id="path999" /></clipPath><clipPath
       clipPathUnits="userSpaceOnUse"
       id="clipPath1005"><path
         d="M -32768,32767 H 32767 V -32768 H -32768 Z"
         id="path1003" /></clipPath><linearGradient
       x1="0"
       y1="0"
       x2="1"
       y2="0"
       gradientUnits="userSpaceOnUse"
       gradientTransform="matrix(-35.231445,-35.231445,70.028565,-70.028565,227.52328,203.00937)"
       spreadMethod="pad"
       id="linearGradient1013"><stop
         style="stop-opacity:1;stop-color:#ffffff"
         offset="0"
         id="stop1007" /><stop
         style="stop-opacity:0;stop-color:#ffffff"
         offset="0.74869914"
         id="stop1009" /><stop
         style="stop-opacity:0;stop-color:#ffffff"
         offset="1"
         id="stop1011" /></linearGradient><mask
       maskUnits="userSpaceOnUse"
       x="0"
       y="0"
       width="1"
       height="1"
       id="mask1015"><g
         id="g1025"><g
           clip-path="url(#clipPath1005)"
           id="g1023"><g
             id="g1021"><g
               id="g1019"><path
                 d="M -32768,32767 H 32767 V -32768 H -32768 Z"
                 style="fill:url(#linearGradient1013);stroke:none"
                 id="path1017" /></g></g></g></g></mask><linearGradient
       x1="0"
       y1="0"
       x2="1"
       y2="0"
       gradientUnits="userSpaceOnUse"
       gradientTransform="matrix(-35.231445,-35.231445,70.028565,-70.028565,227.52328,203.00937)"
       spreadMethod="pad"
       id="linearGradient1033"><stop
         style="stop-opacity:1;stop-color:#a26144"
         offset="0"
         id="stop1027" /><stop
         style="stop-opacity:1;stop-color:#ffffff"
         offset="0.74869914"
         id="stop1029" /><stop
         style="stop-opacity:1;stop-color:#ffffff"
         offset="1"
         id="stop1031" /></linearGradient><clipPath
       clipPathUnits="userSpaceOnUse"
       id="clipPath1059"><path
         d="m 415.084,106.079 c 0,-22.046 17.871,-39.917 39.916,-39.917 v 0 c 22.045,0 39.916,17.871 39.916,39.917 v 0 c 0,22.044 -17.871,39.916 -39.916,39.916 v 0 c -22.045,0 -39.916,-17.872 -39.916,-39.916"
         id="path1057" /></clipPath><linearGradient
       x1="0"
       y1="0"
       x2="1"
       y2="0"
       gradientUnits="userSpaceOnUse"
       gradientTransform="matrix(56.450325,56.450325,56.450325,-56.450325,426.77484,77.853065)"
       spreadMethod="pad"
       id="linearGradient1069"><stop
         style="stop-opacity:1;stop-color:#ff4e64"
         offset="0"
         id="stop1065" /><stop
         style="stop-opacity:1;stop-color:#ff797d"
         offset="1"
         id="stop1067" /></linearGradient><clipPath
       clipPathUnits="userSpaceOnUse"
       id="clipPath1079"><path
         d="M 0,0 H 723.413 V 500 H 0 Z"
         id="path1077" /></clipPath><clipPath
       clipPathUnits="userSpaceOnUse"
       id="clipPath1087"><path
         d="m -177.673,409.403 h 611.59 v -611.59 h -611.59 z"
         id="path1085" /></clipPath><clipPath
       clipPathUnits="userSpaceOnUse"
       id="clipPath1091"><path
         d="M 433.917,-156.58 -132.066,409.403 -177.673,363.796 388.31,-202.187 Z"
         id="path1089" /></clipPath><linearGradient
       x1="0"
       y1="0"
       x2="1"
       y2="0"
       gradientUnits="userSpaceOnUse"
       gradientTransform="matrix(-47.542805,-47.542805,70.028565,-70.028565,153.84328,129.32936)"
       spreadMethod="pad"
       id="linearGradient1097"><stop
         style="stop-opacity:1;stop-color:#e08b5b"
         offset="0"
         id="stop1093" /><stop
         style="stop-opacity:1;stop-color:#ffffff"
         offset="1"
         id="stop1095" /></linearGradient><clipPath
       clipPathUnits="userSpaceOnUse"
       id="clipPath1119"><path
         d="M -56.0394,632.539 H 354.449 V 222.051 H -56.0394 Z"
         id="path1117" /></clipPath><clipPath
       clipPathUnits="userSpaceOnUse"
       id="clipPath1123"><path
         d="M 333.153,632.54 -56.04,243.347 -34.744,222.051 354.449,611.244 Z"
         id="path1121" /></clipPath><linearGradient
       x1="0"
       y1="0"
       x2="1"
       y2="0"
       gradientUnits="userSpaceOnUse"
       gradientTransform="matrix(22.199398,-22.199398,48.15448,48.15448,137.19482,439.30521)"
       spreadMethod="pad"
       id="linearGradient1129"><stop
         style="stop-opacity:1;stop-color:#7b707a"
         offset="0"
         id="stop1125" /><stop
         style="stop-opacity:1;stop-color:#ffffff"
         offset="1"
         id="stop1127" /></linearGradient><clipPath
       clipPathUnits="userSpaceOnUse"
       id="clipPath1151"><path
         d="M -29.0668,605.567 H 381.422 V 195.078 H -29.0668 Z"
         id="path1149" /></clipPath><clipPath
       clipPathUnits="userSpaceOnUse"
       id="clipPath1155"><path
         d="M 360.126,605.567 -29.067,216.374 -7.771,195.078 381.422,584.271 Z"
         id="path1153" /></clipPath><linearGradient
       x1="0"
       y1="0"
       x2="1"
       y2="0"
       gradientUnits="userSpaceOnUse"
       gradientTransform="matrix(22.199398,-22.199398,48.15448,48.15448,164.16737,412.33264)"
       spreadMethod="pad"
       id="linearGradient1161"><stop
         style="stop-opacity:1;stop-color:#7b707a"
         offset="0"
         id="stop1157" /><stop
         style="stop-opacity:1;stop-color:#ffffff"
         offset="1"
         id="stop1159" /></linearGradient><clipPath
       clipPathUnits="userSpaceOnUse"
       id="clipPath1183"><path
         d="m 258.088,302.477 89.624,-89.624 89.625,89.624 -89.625,89.624 z"
         id="path1181" /></clipPath><linearGradient
       x1="0"
       y1="0"
       x2="1"
       y2="0"
       gradientUnits="userSpaceOnUse"
       gradientTransform="matrix(179.24908,0,0,-179.24908,258.08774,302.47681)"
       spreadMethod="pad"
       id="linearGradient1193"><stop
         style="stop-opacity:1;stop-color:#674eae"
         offset="0"
         id="stop1189" /><stop
         style="stop-opacity:1;stop-color:#958be2"
         offset="1"
         id="stop1191" /></linearGradient><clipPath
       clipPathUnits="userSpaceOnUse"
       id="clipPath1203"><path
         d="m 258.088,302.477 69.525,-69.525 69.525,69.525 -69.525,69.524 z"
         id="path1201" /></clipPath><linearGradient
       x1="0"
       y1="0"
       x2="1"
       y2="0"
       gradientUnits="userSpaceOnUse"
       gradientTransform="matrix(139.04964,0,0,-139.04964,258.08774,302.47681)"
       spreadMethod="pad"
       id="linearGradient1213"><stop
         style="stop-opacity:1;stop-color:#033450"
         offset="0"
         id="stop1209" /><stop
         style="stop-opacity:1;stop-color:#163d60"
         offset="1"
         id="stop1211" /></linearGradient><clipPath
       clipPathUnits="userSpaceOnUse"
       id="clipPath1223"><path
         d="M 0,0 H 723.413 V 500 H 0 Z"
         id="path1221" /></clipPath><clipPath
       clipPathUnits="userSpaceOnUse"
       id="clipPath1231"><path
         d="M 131.958,429.469 H 385.942 V 175.485 H 131.958 Z"
         id="path1229" /></clipPath><clipPath
       clipPathUnits="userSpaceOnUse"
       id="clipPath1235"><path
         d="m 385.942,302.477 c 0,-70.136 -56.856,-126.993 -126.992,-126.993 -70.136,0 -126.992,56.857 -126.992,126.993 0,70.135 56.856,126.992 126.992,126.992 70.136,0 126.992,-56.857 126.992,-126.992"
         id="path1233" /></clipPath><linearGradient
       x1="0"
       y1="0"
       x2="1"
       y2="0"
       gradientUnits="userSpaceOnUse"
       gradientTransform="matrix(179.5938,179.5938,179.5938,-179.5938,169.15338,212.6799)"
       spreadMethod="pad"
       id="linearGradient1241"><stop
         style="stop-opacity:1;stop-color:#e08b5b"
         offset="0"
         id="stop1237" /><stop
         style="stop-opacity:1;stop-color:#ffffff"
         offset="1"
         id="stop1239" /></linearGradient><clipPath
       clipPathUnits="userSpaceOnUse"
       id="clipPath1263"><path
         d="M 41.63,551.874 H 250.614 V 342.89 H 41.63 Z"
         id="path1261" /></clipPath><clipPath
       clipPathUnits="userSpaceOnUse"
       id="clipPath1267"><path
         d="m 146.122,370.005 c -42.734,0 -77.378,34.643 -77.378,77.377 0,42.735 34.644,77.378 77.378,77.378 42.734,0 77.378,-34.643 77.378,-77.378 0,-42.734 -34.644,-77.377 -77.378,-77.377 m 0,181.87 c -57.709,0 -104.492,-46.783 -104.492,-104.493 0,-57.709 46.783,-104.492 104.492,-104.492 57.71,0 104.492,46.783 104.492,104.492 0,57.71 -46.782,104.493 -104.492,104.493"
         id="path1265" /></clipPath><linearGradient
       x1="0"
       y1="0"
       x2="1"
       y2="0"
       gradientUnits="userSpaceOnUse"
       gradientTransform="matrix(147.77409,147.77409,147.77409,-147.77409,72.235046,373.49536)"
       spreadMethod="pad"
       id="linearGradient1273"><stop
         style="stop-opacity:1;stop-color:#132450"
         offset="0"
         id="stop1269" /><stop
         style="stop-opacity:1;stop-color:#00a5e1"
         offset="1"
         id="stop1271" /></linearGradient><clipPath
       clipPathUnits="userSpaceOnUse"
       id="clipPath1295"><path
         d="M 193.09,401.1 H 384.614 V 209.576 H 193.09 Z"
         id="path1293" /></clipPath><clipPath
       clipPathUnits="userSpaceOnUse"
       id="clipPath1299"><path
         d="m 288.852,260.467 c -24.781,0 -44.871,20.09 -44.871,44.871 0,24.782 20.09,44.87 44.871,44.87 24.781,0 44.871,-20.088 44.871,-44.87 0,-24.781 -20.09,-44.871 -44.871,-44.871 m 0,140.633 c -52.888,0 -95.762,-42.874 -95.762,-95.762 0,-52.888 42.874,-95.762 95.762,-95.762 52.888,0 95.762,42.874 95.762,95.762 0,52.888 -42.874,95.762 -95.762,95.762"
         id="path1297" /></clipPath><linearGradient
       x1="0"
       y1="0"
       x2="1"
       y2="0"
       gradientUnits="userSpaceOnUse"
       gradientTransform="matrix(135.42812,135.42812,135.42812,-135.42812,221.13794,237.62402)"
       spreadMethod="pad"
       id="linearGradient1305"><stop
         style="stop-opacity:1;stop-color:#132450"
         offset="0"
         id="stop1301" /><stop
         style="stop-opacity:1;stop-color:#00a5e1"
         offset="1"
         id="stop1303" /></linearGradient><clipPath
       clipPathUnits="userSpaceOnUse"
       id="clipPath1327"><path
         d="M 307.05,120.657 H 464.834 V -37.1266 H 307.05 Z"
         id="path1325" /></clipPath><clipPath
       clipPathUnits="userSpaceOnUse"
       id="clipPath1331"><path
         d="m 385.942,4.8 c -20.415,0 -36.965,16.55 -36.965,36.965 0,20.416 16.55,36.965 36.965,36.965 20.415,0 36.966,-16.549 36.966,-36.965 C 422.908,21.35 406.357,4.8 385.942,4.8 m 0,115.857 c -43.57,0 -78.892,-35.321 -78.892,-78.892 0,-43.571 35.322,-78.892 78.892,-78.892 43.571,0 78.892,35.321 78.892,78.892 0,43.571 -35.321,78.892 -78.892,78.892"
         id="path1329" /></clipPath><linearGradient
       x1="0"
       y1="0"
       x2="1"
       y2="0"
       gradientUnits="userSpaceOnUse"
       gradientTransform="matrix(111.56984,111.56984,111.56984,-111.56984,330.15735,-14.019796)"
       spreadMethod="pad"
       id="linearGradient1337"><stop
         style="stop-opacity:1;stop-color:#132450"
         offset="0"
         id="stop1333" /><stop
         style="stop-opacity:1;stop-color:#00a5e1"
         offset="1"
         id="stop1335" /></linearGradient><clipPath
       clipPathUnits="userSpaceOnUse"
       id="clipPath1359"><path
         d="M 156.914,594.333 H 323.463 V 427.785 H 156.914 Z"
         id="path1357" /></clipPath><clipPath
       clipPathUnits="userSpaceOnUse"
       id="clipPath1363"><path
         d="m 240.188,472.04 c -21.549,0 -39.019,17.47 -39.019,39.019 0,21.55 17.47,39.02 39.019,39.02 21.55,0 39.02,-17.47 39.02,-39.02 0,-21.549 -17.47,-39.019 -39.02,-39.019 m 0,122.293 c -45.99,0 -83.273,-37.283 -83.273,-83.274 0,-45.991 37.283,-83.274 83.273,-83.274 45.992,0 83.275,37.283 83.275,83.274 0,45.991 -37.283,83.274 -83.275,83.274"
         id="path1361" /></clipPath><linearGradient
       x1="0"
       y1="0"
       x2="1"
       y2="0"
       gradientUnits="userSpaceOnUse"
       gradientTransform="matrix(117.7674,117.7674,117.7674,-117.7674,181.30487,452.17551)"
       spreadMethod="pad"
       id="linearGradient1369"><stop
         style="stop-opacity:1;stop-color:#132450"
         offset="0"
         id="stop1365" /><stop
         style="stop-opacity:1;stop-color:#00a5e1"
         offset="1"
         id="stop1367" /></linearGradient><clipPath
       clipPathUnits="userSpaceOnUse"
       id="clipPath1391"><path
         d="M 116.117,160.83 H 317.102 V -40.1539 H 116.117 Z"
         id="path1389" /></clipPath><clipPath
       clipPathUnits="userSpaceOnUse"
       id="clipPath1395"><path
         d="m 216.609,10.475 c -27.539,0 -49.863,22.324 -49.863,49.863 0,27.539 22.324,49.864 49.863,49.864 27.539,0 49.864,-22.325 49.864,-49.864 0,-27.539 -22.325,-49.863 -49.864,-49.863 m 0,150.355 c -55.5,0 -100.492,-44.992 -100.492,-100.492 0,-55.5 44.992,-100.492 100.492,-100.492 55.501,0 100.493,44.992 100.493,100.492 0,55.5 -44.992,100.492 -100.493,100.492"
         id="path1393" /></clipPath><linearGradient
       x1="0"
       y1="0"
       x2="1"
       y2="0"
       gradientUnits="userSpaceOnUse"
       gradientTransform="matrix(142.11723,142.11723,142.11723,-142.11723,145.55086,-10.720526)"
       spreadMethod="pad"
       id="linearGradient1401"><stop
         style="stop-opacity:1;stop-color:#132450"
         offset="0"
         id="stop1397" /><stop
         style="stop-opacity:1;stop-color:#ffff8d"
         offset="1"
         id="stop1399" /></linearGradient><clipPath
       clipPathUnits="userSpaceOnUse"
       id="clipPath1423"><path
         d="M 419.313,187.398 H 712.106 V -105.395 H 419.313 Z"
         id="path1421" /></clipPath><clipPath
       clipPathUnits="userSpaceOnUse"
       id="clipPath1427"><path
         d="m 565.71,-31.64 c -40.119,0 -72.642,32.523 -72.642,72.642 0,40.118 32.523,72.642 72.642,72.642 40.118,0 72.641,-32.524 72.641,-72.642 0,-40.119 -32.523,-72.642 -72.641,-72.642 m 0,219.037 c -80.853,0 -146.397,-65.543 -146.397,-146.395 0,-80.853 65.544,-146.397 146.397,-146.397 80.852,0 146.395,65.544 146.395,146.397 0,80.852 -65.543,146.395 -146.395,146.395"
         id="path1425" /></clipPath><linearGradient
       x1="0"
       y1="0"
       x2="1"
       y2="0"
       gradientUnits="userSpaceOnUse"
       gradientTransform="matrix(207.03566,207.03566,207.03566,-207.03566,462.19168,-62.516182)"
       spreadMethod="pad"
       id="linearGradient1433"><stop
         style="stop-opacity:1;stop-color:#132450"
         offset="0"
         id="stop1429" /><stop
         style="stop-opacity:1;stop-color:#ffff8d"
         offset="1"
         id="stop1431" /></linearGradient><clipPath
       clipPathUnits="userSpaceOnUse"
       id="clipPath1455"><path
         d="M 258.2,482.724 H 467.775 V 273.148 H 258.2 Z"
         id="path1453" /></clipPath><clipPath
       clipPathUnits="userSpaceOnUse"
       id="clipPath1459"><path
         d="M 258.2,482.724 H 467.775 V 273.148 H 258.2 Z"
         id="path1457" /></clipPath><clipPath
       clipPathUnits="userSpaceOnUse"
       id="clipPath1463"><path
         d="M 438.558,482.724 258.2,302.365 287.417,273.147 467.775,453.506 Z"
         id="path1461" /></clipPath><clipPath
       clipPathUnits="userSpaceOnUse"
       id="clipPath1467"><path
         d="M -32768,32767 H 32767 V -32768 H -32768 Z"
         id="path1465" /></clipPath><linearGradient
       x1="0"
       y1="0"
       x2="1"
       y2="0"
       gradientUnits="userSpaceOnUse"
       gradientTransform="matrix(30.457071,-30.457138,22.315582,22.315618,346.50986,394.4133)"
       spreadMethod="pad"
       id="linearGradient1475"><stop
         style="stop-opacity:1;stop-color:#ffffff"
         offset="0"
         id="stop1469" /><stop
         style="stop-opacity:0;stop-color:#ffffff"
         offset="0.30096912"
         id="stop1471" /><stop
         style="stop-opacity:0;stop-color:#ffffff"
         offset="1"
         id="stop1473" /></linearGradient><mask
       maskUnits="userSpaceOnUse"
       x="0"
       y="0"
       width="1"
       height="1"
       id="mask1477"><g
         id="g1487"><g
           clip-path="url(#clipPath1467)"
           id="g1485"><g
             id="g1483"><g
               id="g1481"><path
                 d="M -32768,32767 H 32767 V -32768 H -32768 Z"
                 style="fill:url(#linearGradient1475);stroke:none"
                 id="path1479" /></g></g></g></g></mask><linearGradient
       x1="0"
       y1="0"
       x2="1"
       y2="0"
       gradientUnits="userSpaceOnUse"
       gradientTransform="matrix(30.457071,-30.457138,22.315582,22.315618,346.50986,394.4133)"
       spreadMethod="pad"
       id="linearGradient1495"><stop
         style="stop-opacity:1;stop-color:#7b707a"
         offset="0"
         id="stop1489" /><stop
         style="stop-opacity:1;stop-color:#ffffff"
         offset="0.30096912"
         id="stop1491" /><stop
         style="stop-opacity:1;stop-color:#ffffff"
         offset="1"
         id="stop1493" /></linearGradient><clipPath
       clipPathUnits="userSpaceOnUse"
       id="clipPath1529"><path
         d="M 206.099,302.477 H 461.381 V 47.195 H 206.099 Z"
         id="path1527" /></clipPath><clipPath
       clipPathUnits="userSpaceOnUse"
       id="clipPath1533"><path
         d="M 437.337,302.477 206.099,71.238 230.143,47.195 461.381,278.433 Z"
         id="path1531" /></clipPath><clipPath
       clipPathUnits="userSpaceOnUse"
       id="clipPath1537"><path
         d="M -32768,32767 H 32767 V -32768 H -32768 Z"
         id="path1535" /></clipPath><linearGradient
       x1="0"
       y1="0"
       x2="1"
       y2="0"
       gradientUnits="userSpaceOnUse"
       gradientTransform="matrix(24.348265,-24.348265,-24.348265,-24.348265,321.76163,186.8141)"
       spreadMethod="pad"
       id="linearGradient1545"><stop
         style="stop-opacity:1;stop-color:#ffffff"
         offset="0"
         id="stop1539" /><stop
         style="stop-opacity:0;stop-color:#ffffff"
         offset="0.56004839"
         id="stop1541" /><stop
         style="stop-opacity:0;stop-color:#ffffff"
         offset="1"
         id="stop1543" /></linearGradient><mask
       maskUnits="userSpaceOnUse"
       x="0"
       y="0"
       width="1"
       height="1"
       id="mask1547"><g
         id="g1557"><g
           clip-path="url(#clipPath1537)"
           id="g1555"><g
             id="g1553"><g
               id="g1551"><path
                 d="M -32768,32767 H 32767 V -32768 H -32768 Z"
                 style="fill:url(#linearGradient1545);stroke:none"
                 id="path1549" /></g></g></g></g></mask><linearGradient
       x1="0"
       y1="0"
       x2="1"
       y2="0"
       gradientUnits="userSpaceOnUse"
       gradientTransform="matrix(24.348265,-24.348265,-24.348265,-24.348265,321.76163,186.8141)"
       spreadMethod="pad"
       id="linearGradient1565"><stop
         style="stop-opacity:1;stop-color:#e08b5b"
         offset="0"
         id="stop1559" /><stop
         style="stop-opacity:1;stop-color:#ffffff"
         offset="0.56004839"
         id="stop1561" /><stop
         style="stop-opacity:1;stop-color:#ffffff"
         offset="1"
         id="stop1563" /></linearGradient></defs><sodipodi:namedview
     pagecolor="#ffffff"
     bordercolor="#666666"
     borderopacity="1"
     objecttolerance="10"
     gridtolerance="10"
     guidetolerance="10"
     inkscape:pageopacity="0"
     inkscape:pageshadow="2"
     inkscape:window-width="2560"
     inkscape:window-height="1346"
     id="namedview835"
     showgrid="false"
     inkscape:zoom="0.992"
     inkscape:cx="500"
     inkscape:cy="333.33334"
     inkscape:window-x="-11"
     inkscape:window-y="-11"
     inkscape:window-maximized="1"
     inkscape:current-layer="g841" /><g
     id="g841"
     inkscape:groupmode="layer"
     inkscape:label="4814521"
     transform="matrix(1.3333333,0,0,-1.3333333,0,666.66667)"><g
       id="g843"><g
         id="g845"
         clip-path="url(#clipPath849)"><g
           id="g851"><g
             id="g853"><path
               d="M 0,0 H 750 V 500 H 0 Z"
               style="fill:url(#linearGradient859);stroke:none"
               id="path861" /></g></g></g></g><g
       id="g863"><g
         id="g865"
         clip-path="url(#clipPath869)"><g
           id="g871"><g
             id="g873"><path
               d="M 0,366.606 V 276.401 L 116.117,160.283 277.338,321.503 116.117,482.724 Z"
               style="fill:url(#linearGradient879);stroke:none"
               id="path881" /></g></g></g></g><g
       id="g883"><g
         id="g885"
         clip-path="url(#clipPath889)"><g
           id="g891"><g
             id="g893"><path
               d="M 98.841,500 277.338,321.503 438.557,482.724 421.281,500 Z"
               style="fill:url(#linearGradient899);stroke:none"
               id="path901" /></g></g></g></g><g
       id="g903"><g
         id="g905"
         clip-path="url(#clipPath909)"><g
           id="g911"><g
             id="g913"><path
               d="M 0,45.103 V 0 H 277.338 L 116.117,161.221 Z"
               style="fill:url(#linearGradient919);stroke:none"
               id="path921" /></g></g></g></g><g
       id="g923"><g
         id="g925"
         clip-path="url(#clipPath929)"><g
           id="g931"><g
             id="g933"><path
               d="m 107.841,302.477 c 0,-98.581 79.915,-178.497 178.497,-178.497 v 0 c 98.58,0 178.496,79.916 178.496,178.497 v 0 c 0,98.581 -79.916,178.497 -178.496,178.497 v 0 c -98.582,0 -178.497,-79.916 -178.497,-178.497"
               style="fill:url(#linearGradient939);stroke:none"
               id="path941" /></g></g></g></g><g
       id="g943"><g
         id="g945"
         clip-path="url(#clipPath949)"><g
           id="g951"><g
             id="g953"><path
               d="M 10.311,137.324 C 10.311,66.637 67.615,9.333 138.302,9.333 v 0 c 70.687,0 127.991,57.304 127.991,127.991 v 0 c 0,70.687 -57.304,127.99 -127.991,127.99 v 0 c -70.687,0 -127.991,-57.303 -127.991,-127.99 m 33.212,0 c 0,52.345 42.434,94.779 94.779,94.779 v 0 c 52.345,0 94.778,-42.434 94.778,-94.779 v 0 c 0,-52.345 -42.433,-94.779 -94.778,-94.779 v 0 c -52.345,0 -94.779,42.434 -94.779,94.779"
               style="fill:url(#linearGradient959);stroke:none"
               id="path961" /></g></g></g></g><g
       id="g963"><g
         id="g965"
         clip-path="url(#clipPath969)"><g
           id="g971"><g
             id="g973"><path
               d="M 0,500 V 426.208 L 426.208,0 h 134.357 l -500,500 z"
               style="fill:url(#linearGradient979);stroke:none"
               id="path981" /></g></g></g></g><g
       id="g983"><g
         id="g985"
         clip-path="url(#clipPath989)"><g
           id="g991"><g
             id="g993" /><g
             id="g1051"><g
               clip-path="url(#clipPath997)"
               id="g1049"><g
                 id="g1047"><g
                   clip-path="url(#clipPath1001)"
                   id="g1045"><g
                     id="g1043"><g
                       id="g1035" /><g
                       mask="url(#mask1015)"
                       id="g1041"><g
                         id="g1039"><path
                           d="M 508.353,-82.145 -57.63,483.839 -91.428,450.042 474.556,-115.941 Z"
                           style="fill:url(#linearGradient1033);stroke:none"
                           id="path1037" /></g></g></g></g></g></g></g></g></g></g><g
       id="g1053"><g
         id="g1055"
         clip-path="url(#clipPath1059)"><g
           id="g1061"><g
             id="g1063"><path
               d="m 415.084,106.079 c 0,-22.046 17.871,-39.917 39.916,-39.917 v 0 c 22.045,0 39.916,17.871 39.916,39.917 v 0 c 0,22.044 -17.871,39.916 -39.916,39.916 v 0 c -22.045,0 -39.916,-17.872 -39.916,-39.916"
               style="fill:url(#linearGradient1069);stroke:none"
               id="path1071" /></g></g></g></g><g
       id="g1073"><g
         id="g1075"
         clip-path="url(#clipPath1079)"><g
           id="g1081"><g
             id="g1083" /><g
             id="g1111"><g
               clip-path="url(#clipPath1087)"
               id="g1109"><g
                 id="g1107"><g
                   clip-path="url(#clipPath1091)"
                   id="g1105"><g
                     id="g1103"><g
                       id="g1101"><path
                         d="M 433.917,-156.58 -132.066,409.403 -177.673,363.796 388.31,-202.187 Z"
                         style="fill:url(#linearGradient1097);stroke:none"
                         id="path1099" /></g></g></g></g></g></g></g><g
           id="g1113"><g
             id="g1115" /><g
             id="g1143"><g
               clip-path="url(#clipPath1119)"
               id="g1141"><g
                 id="g1139"><g
                   clip-path="url(#clipPath1123)"
                   id="g1137"><g
                     id="g1135"><g
                       id="g1133"><path
                         d="M 333.153,632.54 -56.04,243.347 -34.744,222.051 354.449,611.244 Z"
                         style="fill:url(#linearGradient1129);stroke:none"
                         id="path1131" /></g></g></g></g></g></g></g><g
           id="g1145"><g
             id="g1147" /><g
             id="g1175"><g
               clip-path="url(#clipPath1151)"
               id="g1173"><g
                 id="g1171"><g
                   clip-path="url(#clipPath1155)"
                   id="g1169"><g
                     id="g1167"><g
                       id="g1165"><path
                         d="M 360.126,605.567 -29.067,216.374 -7.771,195.078 381.422,584.271 Z"
                         style="fill:url(#linearGradient1161);stroke:none"
                         id="path1163" /></g></g></g></g></g></g></g></g></g><g
       id="g1177"><g
         id="g1179"
         clip-path="url(#clipPath1183)"><g
           id="g1185"><g
             id="g1187"><path
               d="m 258.088,302.477 89.624,-89.624 89.625,89.624 -89.625,89.624 z"
               style="fill:url(#linearGradient1193);stroke:none"
               id="path1195" /></g></g></g></g><g
       id="g1197"><g
         id="g1199"
         clip-path="url(#clipPath1203)"><g
           id="g1205"><g
             id="g1207"><path
               d="m 258.088,302.477 69.525,-69.525 69.525,69.525 -69.525,69.524 z"
               style="fill:url(#linearGradient1213);stroke:none"
               id="path1215" /></g></g></g></g><g
       id="g1217"><g
         id="g1219"
         clip-path="url(#clipPath1223)"><g
           id="g1225"><g
             id="g1227" /><g
             id="g1255"><g
               clip-path="url(#clipPath1231)"
               id="g1253"><g
                 id="g1251"><g
                   clip-path="url(#clipPath1235)"
                   id="g1249"><g
                     id="g1247"><g
                       id="g1245"><path
                         d="m 385.942,302.477 c 0,-70.136 -56.856,-126.993 -126.992,-126.993 -70.136,0 -126.992,56.857 -126.992,126.993 0,70.135 56.856,126.992 126.992,126.992 70.136,0 126.992,-56.857 126.992,-126.992"
                         style="fill:url(#linearGradient1241);stroke:none"
                         id="path1243" /></g></g></g></g></g></g></g><g
           id="g1257"><g
             id="g1259" /><g
             id="g1287"><g
               clip-path="url(#clipPath1263)"
               id="g1285"><g
                 id="g1283"><g
                   clip-path="url(#clipPath1267)"
                   id="g1281"><g
                     id="g1279"><g
                       id="g1277"><path
                         d="m 146.122,370.005 c -42.734,0 -77.378,34.643 -77.378,77.377 0,42.735 34.644,77.378 77.378,77.378 42.734,0 77.378,-34.643 77.378,-77.378 0,-42.734 -34.644,-77.377 -77.378,-77.377 m 0,181.87 c -57.709,0 -104.492,-46.783 -104.492,-104.493 0,-57.709 46.783,-104.492 104.492,-104.492 57.71,0 104.492,46.783 104.492,104.492 0,57.71 -46.782,104.493 -104.492,104.493"
                         style="fill:url(#linearGradient1273);stroke:none"
                         id="path1275" /></g></g></g></g></g></g></g><g
           id="g1289"><g
             id="g1291" /><g
             id="g1319"><g
               clip-path="url(#clipPath1295)"
               id="g1317"><g
                 id="g1315"><g
                   clip-path="url(#clipPath1299)"
                   id="g1313"><g
                     id="g1311"><g
                       id="g1309"><path
                         d="m 288.852,260.467 c -24.781,0 -44.871,20.09 -44.871,44.871 0,24.782 20.09,44.87 44.871,44.87 24.781,0 44.871,-20.088 44.871,-44.87 0,-24.781 -20.09,-44.871 -44.871,-44.871 m 0,140.633 c -52.888,0 -95.762,-42.874 -95.762,-95.762 0,-52.888 42.874,-95.762 95.762,-95.762 52.888,0 95.762,42.874 95.762,95.762 0,52.888 -42.874,95.762 -95.762,95.762"
                         style="fill:url(#linearGradient1305);stroke:none"
                         id="path1307" /></g></g></g></g></g></g></g><g
           id="g1321"><g
             id="g1323" /><g
             id="g1351"><g
               clip-path="url(#clipPath1327)"
               id="g1349"><g
                 id="g1347"><g
                   clip-path="url(#clipPath1331)"
                   id="g1345"><g
                     id="g1343"><g
                       id="g1341"><path
                         d="m 385.942,4.8 c -20.415,0 -36.965,16.55 -36.965,36.965 0,20.416 16.55,36.965 36.965,36.965 20.415,0 36.966,-16.549 36.966,-36.965 C 422.908,21.35 406.357,4.8 385.942,4.8 m 0,115.857 c -43.57,0 -78.892,-35.321 -78.892,-78.892 0,-43.571 35.322,-78.892 78.892,-78.892 43.571,0 78.892,35.321 78.892,78.892 0,43.571 -35.321,78.892 -78.892,78.892"
                         style="fill:url(#linearGradient1337);stroke:none"
                         id="path1339" /></g></g></g></g></g></g></g><g
           id="g1353"><g
             id="g1355" /><g
             id="g1383"><g
               clip-path="url(#clipPath1359)"
               id="g1381"><g
                 id="g1379"><g
                   clip-path="url(#clipPath1363)"
                   id="g1377"><g
                     id="g1375"><g
                       id="g1373"><path
                         d="m 240.188,472.04 c -21.549,0 -39.019,17.47 -39.019,39.019 0,21.55 17.47,39.02 39.019,39.02 21.55,0 39.02,-17.47 39.02,-39.02 0,-21.549 -17.47,-39.019 -39.02,-39.019 m 0,122.293 c -45.99,0 -83.273,-37.283 -83.273,-83.274 0,-45.991 37.283,-83.274 83.273,-83.274 45.992,0 83.275,37.283 83.275,83.274 0,45.991 -37.283,83.274 -83.275,83.274"
                         style="fill:url(#linearGradient1369);stroke:none"
                         id="path1371" /></g></g></g></g></g></g></g><g
           id="g1385"><g
             id="g1387" /><g
             id="g1415"><g
               clip-path="url(#clipPath1391)"
               id="g1413"><g
                 id="g1411"><g
                   clip-path="url(#clipPath1395)"
                   id="g1409"><g
                     id="g1407"><g
                       id="g1405"><path
                         d="m 216.609,10.475 c -27.539,0 -49.863,22.324 -49.863,49.863 0,27.539 22.324,49.864 49.863,49.864 27.539,0 49.864,-22.325 49.864,-49.864 0,-27.539 -22.325,-49.863 -49.864,-49.863 m 0,150.355 c -55.5,0 -100.492,-44.992 -100.492,-100.492 0,-55.5 44.992,-100.492 100.492,-100.492 55.501,0 100.493,44.992 100.493,100.492 0,55.5 -44.992,100.492 -100.493,100.492"
                         style="fill:url(#linearGradient1401);stroke:none"
                         id="path1403" /></g></g></g></g></g></g></g><g
           id="g1417"><g
             id="g1419" /><g
             id="g1447"><g
               clip-path="url(#clipPath1423)"
               id="g1445"><g
                 id="g1443"><g
                   clip-path="url(#clipPath1427)"
                   id="g1441"><g
                     id="g1439"><g
                       id="g1437"><path
                         d="m 565.71,-31.64 c -40.119,0 -72.642,32.523 -72.642,72.642 0,40.118 32.523,72.642 72.642,72.642 40.118,0 72.641,-32.524 72.641,-72.642 0,-40.119 -32.523,-72.642 -72.641,-72.642 m 0,219.037 c -80.853,0 -146.397,-65.543 -146.397,-146.395 0,-80.853 65.544,-146.397 146.397,-146.397 80.852,0 146.395,65.544 146.395,146.397 0,80.852 -65.543,146.395 -146.395,146.395"
                         style="fill:url(#linearGradient1433);stroke:none"
                         id="path1435" /></g></g></g></g></g></g></g><g
           id="g1449"><g
             id="g1451" /><g
             id="g1521"><g
               clip-path="url(#clipPath1455)"
               id="g1519"><g
                 id="g1517"><g
                   id="g1497" /><g
                   id="g1515"><g
                     clip-path="url(#clipPath1459)"
                     id="g1513"><g
                       id="g1511"><g
                         clip-path="url(#clipPath1463)"
                         id="g1509"><g
                           id="g1507"><g
                             id="g1499" /><g
                             mask="url(#mask1477)"
                             id="g1505"><g
                               id="g1503"><path
                                 d="M 438.558,482.724 258.2,302.365 287.417,273.147 467.775,453.506 Z"
                                 style="fill:url(#linearGradient1495);stroke:none"
                                 id="path1501" /></g></g></g></g></g></g></g></g></g></g></g><g
           id="g1523"><g
             id="g1525" /><g
             id="g1583"><g
               clip-path="url(#clipPath1529)"
               id="g1581"><g
                 id="g1579"><g
                   clip-path="url(#clipPath1533)"
                   id="g1577"><g
                     id="g1575"><g
                       id="g1567" /><g
                       mask="url(#mask1547)"
                       id="g1573"><g
                         id="g1571"><path
                           d="M 437.337,302.477 206.099,71.238 230.143,47.195 461.381,278.433 Z"
                           style="fill:url(#linearGradient1565);stroke:none"
                           id="path1569" /></g></g></g></g></g></g></g></g></g></g></g></svg>
