<?xml version="1.0" encoding="UTF-8" standalone="no"?>
<svg
   xmlns:dc="http://purl.org/dc/elements/1.1/"
   xmlns:cc="http://creativecommons.org/ns#"
   xmlns:rdf="http://www.w3.org/1999/02/22-rdf-syntax-ns#"
   xmlns:svg="http://www.w3.org/2000/svg"
   xmlns="http://www.w3.org/2000/svg"
   xmlns:sodipodi="http://sodipodi.sourceforge.net/DTD/sodipodi-0.dtd"
   xmlns:inkscape="http://www.inkscape.org/namespaces/inkscape"
   inkscape:version="1.0 (4035a4fb49, 2020-05-01)"
   height="167.60001"
   width="486.61124"
   sodipodi:docname="reddit-logo.svg"
   id="svg1702"
   xml:space="preserve"
   viewBox="0 0 486.61126 167.6"
   y="0px"
   x="0px"
   version="1.1"><metadata
   id="metadata1708"><rdf:RDF><cc:Work
       rdf:about=""><dc:format>image/svg+xml</dc:format><dc:type
         rdf:resource="http://purl.org/dc/dcmitype/StillImage" /><dc:title></dc:title></cc:Work></rdf:RDF></metadata><defs
   id="defs1706" /><sodipodi:namedview
   inkscape:current-layer="svg1702"
   inkscape:window-maximized="1"
   inkscape:window-y="-11"
   inkscape:window-x="-11"
   inkscape:cy="83.800003"
   inkscape:cx="243.29999"
   inkscape:zoom="2.3504846"
   fit-margin-bottom="0"
   fit-margin-right="0"
   fit-margin-left="0"
   fit-margin-top="0"
   showgrid="false"
   id="namedview1704"
   inkscape:window-height="1346"
   inkscape:window-width="2560"
   inkscape:pageshadow="2"
   inkscape:pageopacity="0"
   guidetolerance="10"
   gridtolerance="10"
   objecttolerance="10"
   borderopacity="1"
   bordercolor="#666666"
   pagecolor="#ffffff" />
<style
   id="style1664"
   type="text/css">
	.st0{fill:#FF4500;}
	.st1{fill:#222222;}
	.st2{fill:#FFFFFF;}
	.st3{display:none;}
	.st4{display:inline;fill:none;stroke:#D8D8D8;stroke-width:0.4925;stroke-miterlimit:10;}
	.st5{display:inline;fill:none;stroke:#D8D8D8;stroke-width:0.5589;stroke-miterlimit:10;}
	.st6{display:inline;}
</style>
<g
   transform="translate(-56,-56)"
   id="Artwork">
	<g
   id="g1688">
		<g
   id="g1680">
			<circle
   id="circle1666"
   r="10.6"
   cy="113.7"
   cx="495.39999"
   class="st0" />
			<path
   id="path1668"
   d="m 344,158.9 c 5.2,0 8.2,-3.9 8,-7.7 -0.1,-2 -0.3,-3.3 -0.5,-4.3 -3.2,-13.8 -14.4,-24 -27.7,-24 -15.8,0 -28.6,14.3 -28.6,31.9 0,17.6 12.8,31.9 28.6,31.9 9.9,0 17,-3.6 22.1,-9.3 2.5,-2.8 2,-7.1 -1,-9.2 -2.5,-1.7 -5.6,-1.1 -7.9,0.8 -2.2,1.9 -6.4,5.7 -13.2,5.7 -8,0 -14.8,-6.9 -16.3,-16 H 344 Z M 323.7,135 c 7.2,0 13.4,5.6 15.7,13.3 H 308 c 2.3,-7.8 8.5,-13.3 15.7,-13.3 z"
   class="st1" />
			<path
   id="path1670"
   d="m 295.8,129.2 c 0,-3 -2.2,-5.4 -5,-5.9 -8.7,-1.3 -16.9,1.9 -21.6,7.8 v -0.8 c 0,-3.7 -3,-6 -6,-6 -3.3,0 -6,2.7 -6,6 v 49 c 0,3.2 2.4,6 5.6,6.2 3.5,0.2 6.4,-2.5 6.4,-6 v -25.3 c 0,-11.2 8.4,-20.4 20,-19.1 0.4,0 0.8,0 1.2,0 3,-0.2 5.4,-2.8 5.4,-5.9 z"
   class="st1" />
			<path
   id="path1672"
   d="m 501.4,135.6 c 0,-3.3 -2.7,-6 -6,-6 -3.3,0 -6,2.7 -6,6 0,0.2 0,42 0,43.9 0,3.3 2.7,6 6,6 3.3,0 6,-2.7 6,-6 0,-1.8 0,-43.6 0,-43.9 z"
   class="st1" />
			<path
   id="path1674"
   d="m 412.2,102.4 c 0,-3.3 -2.7,-6 -6,-6 v 0 c -3.3,0 -6,2.7 -6,6 v 26.7 C 396.1,125 391,123 384.9,123 c -15.8,0 -28.6,14.3 -28.6,31.9 0,17.6 12.8,31.9 28.6,31.9 6.1,0 11.3,-2.1 15.4,-6.2 0.5,2.8 3,4.9 5.9,4.9 3.3,0 6,-2.7 6,-6 0,0 0,-77.1 0,-77.1 z M 385,174.9 c -9.2,0 -16.6,-8.9 -16.6,-20 0,-11 7.4,-20 16.6,-20 9.2,0 16.6,8.9 16.6,20 0,11.1 -7.5,20 -16.6,20 z"
   class="st1" />
			<path
   id="path1676"
   d="m 474.8,102.4 c 0,-3.3 -2.7,-6 -6,-6 v 0 c -3.3,0 -6,2.7 -6,6 v 26.7 c -4.1,-4.1 -9.2,-6.1 -15.3,-6.1 -15.8,0 -28.6,14.3 -28.6,31.9 0,17.6 12.8,31.9 28.6,31.9 6.1,0 11.3,-2.1 15.4,-6.2 0.5,2.8 3,4.9 5.9,4.9 3.3,0 6,-2.7 6,-6 0,0 0,-77.1 0,-77.1 z m -27.3,72.5 c -9.2,0 -16.6,-8.9 -16.6,-20 0,-11 7.4,-20 16.6,-20 9.2,0 16.6,8.9 16.6,20 0,11.1 -7.4,20 -16.6,20 z"
   class="st1" />
			<path
   id="path1678"
   d="M 531.8,179.6 V 135 h 5.3 c 2.8,0 5.3,-2.1 5.5,-5 0.2,-3.1 -2.3,-5.7 -5.3,-5.7 h -5.5 v -8.4 c 0,-3.2 -2.4,-6 -5.6,-6.2 -3.5,-0.2 -6.4,2.5 -6.4,6 v 8.7 h -5 c -2.8,0 -5.3,2.1 -5.5,5 -0.2,3.1 2.3,5.7 5.3,5.7 h 5.1 v 44.6 c 0,3.3 2.7,6 6,6 v 0 c 3.5,-0.2 6.1,-2.8 6.1,-6.1 z"
   class="st1" />
		</g>
		<g
   id="g1686">
			<circle
   id="circle1682"
   r="83.800003"
   cy="139.8"
   cx="139.8"
   class="st0" />
			<path
   id="path1684"
   d="m 195.7,139.8 c 0,-6.8 -5.5,-12.2 -12.2,-12.2 -3.3,0 -6.3,1.3 -8.5,3.4 -8.4,-6 -19.9,-9.9 -32.7,-10.4 l 5.6,-26.2 18.2,3.9 c 0.2,4.6 4,8.3 8.7,8.3 4.8,0 8.7,-3.9 8.7,-8.7 0,-4.8 -3.9,-8.7 -8.7,-8.7 -3.4,0 -6.4,2 -7.8,4.9 l -20.3,-4.3 c -0.6,-0.1 -1.2,0 -1.6,0.3 -0.5,0.3 -0.8,0.8 -0.9,1.4 l -6.2,29.2 c -13,0.4 -24.7,4.3 -33.2,10.4 -2.2,-2.1 -5.2,-3.4 -8.5,-3.4 -6.8,0 -12.2,5.5 -12.2,12.2 0,5 3,9.2 7.2,11.1 -0.2,1.2 -0.3,2.4 -0.3,3.7 0,18.8 21.9,34.1 48.9,34.1 27,0 48.9,-15.2 48.9,-34.1 0,-1.2 -0.1,-2.5 -0.3,-3.7 4.2,-1.9 7.2,-6.2 7.2,-11.2 z m -83.8,8.7 c 0,-4.8 3.9,-8.7 8.7,-8.7 4.8,0 8.7,3.9 8.7,8.7 0,4.8 -3.9,8.7 -8.7,8.7 -4.8,0.1 -8.7,-3.9 -8.7,-8.7 z m 48.7,23.1 c -6,6 -17.4,6.4 -20.7,6.4 -3.4,0 -14.8,-0.5 -20.7,-6.4 -0.9,-0.9 -0.9,-2.3 0,-3.2 0.9,-0.9 2.3,-0.9 3.2,0 3.8,3.8 11.8,5.1 17.5,5.1 5.7,0 13.8,-1.3 17.5,-5.1 0.9,-0.9 2.3,-0.9 3.2,0 0.8,0.9 0.8,2.3 0,3.2 z M 159,157.3 c -4.8,0 -8.7,-3.9 -8.7,-8.7 0,-4.8 3.9,-8.7 8.7,-8.7 4.8,0 8.7,3.9 8.7,8.7 0,4.7 -3.9,8.7 -8.7,8.7 z"
   class="st2" />
		</g>
	</g>
</g>
<g
   transform="translate(-56,-56)"
   class="st3"
   id="Spacing_Guides">
	<rect
   y="0"
   x="0"
   id="rect1691"
   height="55.900002"
   width="598.59998"
   class="st4" />
	<rect
   x="0"
   id="rect1693"
   height="55.900002"
   width="598.59998"
   class="st4"
   y="223.60001" />
	<rect
   y="0"
   id="rect1695"
   height="279.60001"
   width="55.900002"
   class="st5"
   x="0" />
	<rect
   y="0"
   id="rect1697"
   height="279.60001"
   width="55.900002"
   class="st5"
   x="542.70001" />
	<g
   class="st6"
   id="reddit_round">
	</g>
	<g
   class="st6"
   id="icon_2">
	</g>
</g>
</svg>
